%TF.GenerationSoftware,KiCad,Pcbnew,9.0.7*%
%TF.CreationDate,2026-02-17T21:12:57+08:00*%
%TF.ProjectId,3rd testing,33726420-7465-4737-9469-6e672e6b6963,rev?*%
%TF.SameCoordinates,Original*%
%TF.FileFunction,Soldermask,Bot*%
%TF.FilePolarity,Negative*%
%FSLAX46Y46*%
G04 Gerber Fmt 4.6, Leading zero omitted, Abs format (unit mm)*
G04 Created by KiCad (PCBNEW 9.0.7) date 2026-02-17 21:12:57*
%MOMM*%
%LPD*%
G01*
G04 APERTURE LIST*
G04 Aperture macros list*
%AMRoundRect*
0 Rectangle with rounded corners*
0 $1 Rounding radius*
0 $2 $3 $4 $5 $6 $7 $8 $9 X,Y pos of 4 corners*
0 Add a 4 corners polygon primitive as box body*
4,1,4,$2,$3,$4,$5,$6,$7,$8,$9,$2,$3,0*
0 Add four circle primitives for the rounded corners*
1,1,$1+$1,$2,$3*
1,1,$1+$1,$4,$5*
1,1,$1+$1,$6,$7*
1,1,$1+$1,$8,$9*
0 Add four rect primitives between the rounded corners*
20,1,$1+$1,$2,$3,$4,$5,0*
20,1,$1+$1,$4,$5,$6,$7,0*
20,1,$1+$1,$6,$7,$8,$9,0*
20,1,$1+$1,$8,$9,$2,$3,0*%
G04 Aperture macros list end*
%ADD10C,2.100000*%
%ADD11C,1.750000*%
%ADD12C,4.000000*%
%ADD13C,2.500000*%
%ADD14R,2.000000X2.000000*%
%ADD15C,2.000000*%
%ADD16R,3.200000X2.000000*%
%ADD17R,1.600000X1.600000*%
%ADD18R,1.200000X1.200000*%
%ADD19C,1.600000*%
%ADD20RoundRect,0.250000X0.337500X0.475000X-0.337500X0.475000X-0.337500X-0.475000X0.337500X-0.475000X0*%
%ADD21RoundRect,0.250000X0.350000X0.450000X-0.350000X0.450000X-0.350000X-0.450000X0.350000X-0.450000X0*%
%ADD22RoundRect,0.250000X0.450000X-0.350000X0.450000X0.350000X-0.450000X0.350000X-0.450000X-0.350000X0*%
%ADD23RoundRect,0.102000X0.900000X0.410000X-0.900000X0.410000X-0.900000X-0.410000X0.900000X-0.410000X0*%
%ADD24RoundRect,0.250000X-1.025305X0.106066X0.106066X-1.025305X1.025305X-0.106066X-0.106066X1.025305X0*%
%ADD25RoundRect,0.250000X0.097227X-0.574524X0.574524X-0.097227X-0.097227X0.574524X-0.574524X0.097227X0*%
%ADD26C,0.700000*%
%ADD27O,0.900000X1.700000*%
%ADD28O,0.900000X2.400000*%
%ADD29RoundRect,0.250000X-0.097227X0.574524X-0.574524X0.097227X0.097227X-0.574524X0.574524X-0.097227X0*%
%ADD30RoundRect,0.250000X0.475000X-0.337500X0.475000X0.337500X-0.475000X0.337500X-0.475000X-0.337500X0*%
%ADD31RoundRect,0.062500X-0.062500X0.450000X-0.062500X-0.450000X0.062500X-0.450000X0.062500X0.450000X0*%
%ADD32RoundRect,0.062500X-0.450000X0.062500X-0.450000X-0.062500X0.450000X-0.062500X0.450000X0.062500X0*%
%ADD33R,4.700000X4.700000*%
%ADD34RoundRect,0.250000X-0.337500X-0.475000X0.337500X-0.475000X0.337500X0.475000X-0.337500X0.475000X0*%
%ADD35RoundRect,0.250000X-0.350000X-0.450000X0.350000X-0.450000X0.350000X0.450000X-0.350000X0.450000X0*%
%ADD36R,1.700000X1.000000*%
G04 APERTURE END LIST*
D10*
%TO.C,REF\u002A\u002A*%
X167947500Y-106511250D03*
%TD*%
D11*
%TO.C,SW1*%
X72380000Y-85080000D03*
D12*
X77460000Y-85080000D03*
D11*
X82540000Y-85080000D03*
D13*
X73650000Y-82540000D03*
X80000000Y-80000000D03*
%TD*%
D11*
%TO.C,SW2*%
X91380000Y-85080000D03*
D12*
X96460000Y-85080000D03*
D11*
X101540000Y-85080000D03*
D13*
X92650000Y-82540000D03*
X99000000Y-80000000D03*
%TD*%
D10*
%TO.C,REF\u002A\u002A*%
X66744375Y-106511250D03*
%TD*%
%TO.C,REF\u002A\u002A*%
X140413125Y-48170625D03*
%TD*%
D14*
%TO.C,SW6*%
X149685000Y-82055000D03*
D15*
X149685000Y-87055000D03*
X149685000Y-84555000D03*
D16*
X157185000Y-78955000D03*
X157185000Y-90155000D03*
D15*
X164185000Y-87055000D03*
X164185000Y-82055000D03*
%TD*%
D10*
%TO.C,REF\u002A\u002A*%
X66594375Y-48170625D03*
%TD*%
D11*
%TO.C,SW4*%
X129380000Y-85080000D03*
D12*
X134460000Y-85080000D03*
D11*
X139540000Y-85080000D03*
D13*
X130650000Y-82540000D03*
X137000000Y-80000000D03*
%TD*%
D11*
%TO.C,SW3*%
X110380000Y-85080000D03*
D12*
X115460000Y-85080000D03*
D11*
X120540000Y-85080000D03*
D13*
X111650000Y-82540000D03*
X118000000Y-80000000D03*
%TD*%
D17*
%TO.C,D4*%
X126275625Y-84536250D03*
D18*
X126275625Y-82211250D03*
X126275625Y-79061250D03*
D19*
X126275625Y-76736250D03*
%TD*%
D20*
%TO.C,C4*%
X90406875Y-71983125D03*
X88331875Y-71983125D03*
%TD*%
D21*
%TO.C,R4*%
X96460000Y-55080000D03*
X94460000Y-55080000D03*
%TD*%
D22*
%TO.C,R5*%
X82460000Y-68080000D03*
X82460000Y-66080000D03*
%TD*%
D23*
%TO.C,D8*%
X131860000Y-89092500D03*
X131860000Y-90592500D03*
X137060000Y-90592500D03*
X137060000Y-89092500D03*
%TD*%
D17*
%TO.C,D2*%
X88175625Y-84601875D03*
D18*
X88175625Y-82276875D03*
X88175625Y-79126875D03*
D19*
X88175625Y-76801875D03*
%TD*%
D24*
%TO.C,Y1*%
X115865267Y-61844124D03*
X117915876Y-63894733D03*
X116360241Y-65450368D03*
X114309632Y-63399759D03*
%TD*%
D23*
%TO.C,D5*%
X74860000Y-89092500D03*
X74860000Y-90592500D03*
X80060000Y-90592500D03*
X80060000Y-89092500D03*
%TD*%
D25*
%TO.C,C2*%
X118316631Y-67647246D03*
X119783877Y-66180000D03*
%TD*%
D26*
%TO.C,P1*%
X71200625Y-53386250D03*
X72050625Y-53386250D03*
X72900625Y-53386250D03*
X73750625Y-53386250D03*
X74600625Y-53386250D03*
X75450625Y-53386250D03*
X76300625Y-53386250D03*
X77150625Y-53386250D03*
X77150625Y-52036250D03*
X76300625Y-52036250D03*
X75450625Y-52036250D03*
X74600625Y-52036250D03*
X73750625Y-52036250D03*
X72900625Y-52036250D03*
X72050625Y-52036250D03*
X71200625Y-52036250D03*
D27*
X69850625Y-49026250D03*
D28*
X69850625Y-52406250D03*
D27*
X78500625Y-49026250D03*
D28*
X78500625Y-52406250D03*
%TD*%
D20*
%TO.C,C5*%
X93460000Y-60080000D03*
X91385000Y-60080000D03*
%TD*%
D29*
%TO.C,C1*%
X113480000Y-59180000D03*
X112012754Y-60647246D03*
%TD*%
D30*
%TO.C,C3*%
X104694375Y-52626875D03*
X104694375Y-50551875D03*
%TD*%
D17*
%TO.C,D1*%
X69125625Y-84601875D03*
D18*
X69125625Y-82276875D03*
X69125625Y-79126875D03*
D19*
X69125625Y-76801875D03*
%TD*%
D31*
%TO.C,U1*%
X97960000Y-59717500D03*
X98460000Y-59717500D03*
X98960000Y-59717500D03*
X99460000Y-59717500D03*
X99960000Y-59717500D03*
X100460000Y-59717500D03*
X100960000Y-59717500D03*
X101460000Y-59717500D03*
X101960000Y-59717500D03*
X102460000Y-59717500D03*
X102960000Y-59717500D03*
D32*
X103822500Y-60580000D03*
X103822500Y-61080000D03*
X103822500Y-61580000D03*
X103822500Y-62080000D03*
X103822500Y-62580000D03*
X103822500Y-63080000D03*
X103822500Y-63580000D03*
X103822500Y-64080000D03*
X103822500Y-64580000D03*
X103822500Y-65080000D03*
X103822500Y-65580000D03*
D31*
X102960000Y-66442500D03*
X102460000Y-66442500D03*
X101960000Y-66442500D03*
X101460000Y-66442500D03*
X100960000Y-66442500D03*
X100460000Y-66442500D03*
X99960000Y-66442500D03*
X99460000Y-66442500D03*
X98960000Y-66442500D03*
X98460000Y-66442500D03*
X97960000Y-66442500D03*
D32*
X97097500Y-65580000D03*
X97097500Y-65080000D03*
X97097500Y-64580000D03*
X97097500Y-64080000D03*
X97097500Y-63580000D03*
X97097500Y-63080000D03*
X97097500Y-62580000D03*
X97097500Y-62080000D03*
X97097500Y-61580000D03*
X97097500Y-61080000D03*
X97097500Y-60580000D03*
D33*
X100460000Y-63080000D03*
%TD*%
D23*
%TO.C,D6*%
X93860000Y-89092500D03*
X93860000Y-90592500D03*
X99060000Y-90592500D03*
X99060000Y-89092500D03*
%TD*%
D34*
%TO.C,C8*%
X98671377Y-55080000D03*
X100746377Y-55080000D03*
%TD*%
D35*
%TO.C,R1*%
X104030000Y-68913623D03*
X106030000Y-68913623D03*
%TD*%
D36*
%TO.C,SW5*%
X130746377Y-57813623D03*
X137046377Y-57813623D03*
X130746377Y-54013623D03*
X137046377Y-54013623D03*
%TD*%
D23*
%TO.C,D7*%
X112860000Y-89092500D03*
X112860000Y-90592500D03*
X118060000Y-90592500D03*
X118060000Y-89092500D03*
%TD*%
D21*
%TO.C,R3*%
X92460000Y-57080000D03*
X90460000Y-57080000D03*
%TD*%
D17*
%TO.C,D3*%
X107225625Y-84217500D03*
D18*
X107225625Y-81892500D03*
X107225625Y-78742500D03*
D19*
X107225625Y-76417500D03*
%TD*%
D30*
%TO.C,C7*%
X108266250Y-52626875D03*
X108266250Y-50551875D03*
%TD*%
D20*
%TO.C,C6*%
X90556875Y-69601875D03*
X88481875Y-69601875D03*
%TD*%
M02*
