%TF.GenerationSoftware,KiCad,Pcbnew,9.0.7*%
%TF.CreationDate,2026-02-17T21:12:57+08:00*%
%TF.ProjectId,3rd testing,33726420-7465-4737-9469-6e672e6b6963,rev?*%
%TF.SameCoordinates,Original*%
%TF.FileFunction,Legend,Top*%
%TF.FilePolarity,Positive*%
%FSLAX46Y46*%
G04 Gerber Fmt 4.6, Leading zero omitted, Abs format (unit mm)*
G04 Created by KiCad (PCBNEW 9.0.7) date 2026-02-17 21:12:57*
%MOMM*%
%LPD*%
G01*
G04 APERTURE LIST*
%ADD10C,0.300000*%
%ADD11C,0.150000*%
%ADD12C,0.000000*%
%ADD13C,0.120000*%
G04 APERTURE END LIST*
D10*
X90376072Y-64089132D02*
X90233215Y-64017703D01*
X90233215Y-64017703D02*
X90018929Y-64017703D01*
X90018929Y-64017703D02*
X89804643Y-64089132D01*
X89804643Y-64089132D02*
X89661786Y-64231989D01*
X89661786Y-64231989D02*
X89590357Y-64374846D01*
X89590357Y-64374846D02*
X89518929Y-64660560D01*
X89518929Y-64660560D02*
X89518929Y-64874846D01*
X89518929Y-64874846D02*
X89590357Y-65160560D01*
X89590357Y-65160560D02*
X89661786Y-65303417D01*
X89661786Y-65303417D02*
X89804643Y-65446275D01*
X89804643Y-65446275D02*
X90018929Y-65517703D01*
X90018929Y-65517703D02*
X90161786Y-65517703D01*
X90161786Y-65517703D02*
X90376072Y-65446275D01*
X90376072Y-65446275D02*
X90447500Y-65374846D01*
X90447500Y-65374846D02*
X90447500Y-64874846D01*
X90447500Y-64874846D02*
X90161786Y-64874846D01*
X91304643Y-64017703D02*
X91304643Y-64374846D01*
X90947500Y-64231989D02*
X91304643Y-64374846D01*
X91304643Y-64374846D02*
X91661786Y-64231989D01*
X91090357Y-64660560D02*
X91304643Y-64374846D01*
X91304643Y-64374846D02*
X91518929Y-64660560D01*
X92447500Y-64017703D02*
X92447500Y-64374846D01*
X92090357Y-64231989D02*
X92447500Y-64374846D01*
X92447500Y-64374846D02*
X92804643Y-64231989D01*
X92233214Y-64660560D02*
X92447500Y-64374846D01*
X92447500Y-64374846D02*
X92661786Y-64660560D01*
X93590357Y-64017703D02*
X93590357Y-64374846D01*
X93233214Y-64231989D02*
X93590357Y-64374846D01*
X93590357Y-64374846D02*
X93947500Y-64231989D01*
X93376071Y-64660560D02*
X93590357Y-64374846D01*
X93590357Y-64374846D02*
X93804643Y-64660560D01*
D11*
X76126667Y-77487200D02*
X76269524Y-77534819D01*
X76269524Y-77534819D02*
X76507619Y-77534819D01*
X76507619Y-77534819D02*
X76602857Y-77487200D01*
X76602857Y-77487200D02*
X76650476Y-77439580D01*
X76650476Y-77439580D02*
X76698095Y-77344342D01*
X76698095Y-77344342D02*
X76698095Y-77249104D01*
X76698095Y-77249104D02*
X76650476Y-77153866D01*
X76650476Y-77153866D02*
X76602857Y-77106247D01*
X76602857Y-77106247D02*
X76507619Y-77058628D01*
X76507619Y-77058628D02*
X76317143Y-77011009D01*
X76317143Y-77011009D02*
X76221905Y-76963390D01*
X76221905Y-76963390D02*
X76174286Y-76915771D01*
X76174286Y-76915771D02*
X76126667Y-76820533D01*
X76126667Y-76820533D02*
X76126667Y-76725295D01*
X76126667Y-76725295D02*
X76174286Y-76630057D01*
X76174286Y-76630057D02*
X76221905Y-76582438D01*
X76221905Y-76582438D02*
X76317143Y-76534819D01*
X76317143Y-76534819D02*
X76555238Y-76534819D01*
X76555238Y-76534819D02*
X76698095Y-76582438D01*
X77031429Y-76534819D02*
X77269524Y-77534819D01*
X77269524Y-77534819D02*
X77460000Y-76820533D01*
X77460000Y-76820533D02*
X77650476Y-77534819D01*
X77650476Y-77534819D02*
X77888572Y-76534819D01*
X78793333Y-77534819D02*
X78221905Y-77534819D01*
X78507619Y-77534819D02*
X78507619Y-76534819D01*
X78507619Y-76534819D02*
X78412381Y-76677676D01*
X78412381Y-76677676D02*
X78317143Y-76772914D01*
X78317143Y-76772914D02*
X78221905Y-76820533D01*
X116739194Y-51781904D02*
X115739194Y-51781904D01*
X115739194Y-51781904D02*
X115739194Y-51400952D01*
X115739194Y-51400952D02*
X115786813Y-51305714D01*
X115786813Y-51305714D02*
X115834432Y-51258095D01*
X115834432Y-51258095D02*
X115929670Y-51210476D01*
X115929670Y-51210476D02*
X116072527Y-51210476D01*
X116072527Y-51210476D02*
X116167765Y-51258095D01*
X116167765Y-51258095D02*
X116215384Y-51305714D01*
X116215384Y-51305714D02*
X116263003Y-51400952D01*
X116263003Y-51400952D02*
X116263003Y-51781904D01*
X116739194Y-50210476D02*
X116263003Y-50543809D01*
X116739194Y-50781904D02*
X115739194Y-50781904D01*
X115739194Y-50781904D02*
X115739194Y-50400952D01*
X115739194Y-50400952D02*
X115786813Y-50305714D01*
X115786813Y-50305714D02*
X115834432Y-50258095D01*
X115834432Y-50258095D02*
X115929670Y-50210476D01*
X115929670Y-50210476D02*
X116072527Y-50210476D01*
X116072527Y-50210476D02*
X116167765Y-50258095D01*
X116167765Y-50258095D02*
X116215384Y-50305714D01*
X116215384Y-50305714D02*
X116263003Y-50400952D01*
X116263003Y-50400952D02*
X116263003Y-50781904D01*
X115739194Y-49591428D02*
X115739194Y-49400952D01*
X115739194Y-49400952D02*
X115786813Y-49305714D01*
X115786813Y-49305714D02*
X115882051Y-49210476D01*
X115882051Y-49210476D02*
X116072527Y-49162857D01*
X116072527Y-49162857D02*
X116405860Y-49162857D01*
X116405860Y-49162857D02*
X116596336Y-49210476D01*
X116596336Y-49210476D02*
X116691575Y-49305714D01*
X116691575Y-49305714D02*
X116739194Y-49400952D01*
X116739194Y-49400952D02*
X116739194Y-49591428D01*
X116739194Y-49591428D02*
X116691575Y-49686666D01*
X116691575Y-49686666D02*
X116596336Y-49781904D01*
X116596336Y-49781904D02*
X116405860Y-49829523D01*
X116405860Y-49829523D02*
X116072527Y-49829523D01*
X116072527Y-49829523D02*
X115882051Y-49781904D01*
X115882051Y-49781904D02*
X115786813Y-49686666D01*
X115786813Y-49686666D02*
X115739194Y-49591428D01*
X115786813Y-48210476D02*
X115739194Y-48305714D01*
X115739194Y-48305714D02*
X115739194Y-48448571D01*
X115739194Y-48448571D02*
X115786813Y-48591428D01*
X115786813Y-48591428D02*
X115882051Y-48686666D01*
X115882051Y-48686666D02*
X115977289Y-48734285D01*
X115977289Y-48734285D02*
X116167765Y-48781904D01*
X116167765Y-48781904D02*
X116310622Y-48781904D01*
X116310622Y-48781904D02*
X116501098Y-48734285D01*
X116501098Y-48734285D02*
X116596336Y-48686666D01*
X116596336Y-48686666D02*
X116691575Y-48591428D01*
X116691575Y-48591428D02*
X116739194Y-48448571D01*
X116739194Y-48448571D02*
X116739194Y-48353333D01*
X116739194Y-48353333D02*
X116691575Y-48210476D01*
X116691575Y-48210476D02*
X116643955Y-48162857D01*
X116643955Y-48162857D02*
X116310622Y-48162857D01*
X116310622Y-48162857D02*
X116310622Y-48353333D01*
X116739194Y-47210476D02*
X116739194Y-47781904D01*
X116739194Y-47496190D02*
X115739194Y-47496190D01*
X115739194Y-47496190D02*
X115882051Y-47591428D01*
X115882051Y-47591428D02*
X115977289Y-47686666D01*
X115977289Y-47686666D02*
X116024908Y-47781904D01*
X95126667Y-77487200D02*
X95269524Y-77534819D01*
X95269524Y-77534819D02*
X95507619Y-77534819D01*
X95507619Y-77534819D02*
X95602857Y-77487200D01*
X95602857Y-77487200D02*
X95650476Y-77439580D01*
X95650476Y-77439580D02*
X95698095Y-77344342D01*
X95698095Y-77344342D02*
X95698095Y-77249104D01*
X95698095Y-77249104D02*
X95650476Y-77153866D01*
X95650476Y-77153866D02*
X95602857Y-77106247D01*
X95602857Y-77106247D02*
X95507619Y-77058628D01*
X95507619Y-77058628D02*
X95317143Y-77011009D01*
X95317143Y-77011009D02*
X95221905Y-76963390D01*
X95221905Y-76963390D02*
X95174286Y-76915771D01*
X95174286Y-76915771D02*
X95126667Y-76820533D01*
X95126667Y-76820533D02*
X95126667Y-76725295D01*
X95126667Y-76725295D02*
X95174286Y-76630057D01*
X95174286Y-76630057D02*
X95221905Y-76582438D01*
X95221905Y-76582438D02*
X95317143Y-76534819D01*
X95317143Y-76534819D02*
X95555238Y-76534819D01*
X95555238Y-76534819D02*
X95698095Y-76582438D01*
X96031429Y-76534819D02*
X96269524Y-77534819D01*
X96269524Y-77534819D02*
X96460000Y-76820533D01*
X96460000Y-76820533D02*
X96650476Y-77534819D01*
X96650476Y-77534819D02*
X96888572Y-76534819D01*
X97221905Y-76630057D02*
X97269524Y-76582438D01*
X97269524Y-76582438D02*
X97364762Y-76534819D01*
X97364762Y-76534819D02*
X97602857Y-76534819D01*
X97602857Y-76534819D02*
X97698095Y-76582438D01*
X97698095Y-76582438D02*
X97745714Y-76630057D01*
X97745714Y-76630057D02*
X97793333Y-76725295D01*
X97793333Y-76725295D02*
X97793333Y-76820533D01*
X97793333Y-76820533D02*
X97745714Y-76963390D01*
X97745714Y-76963390D02*
X97174286Y-77534819D01*
X97174286Y-77534819D02*
X97793333Y-77534819D01*
X151151667Y-77762200D02*
X151294524Y-77809819D01*
X151294524Y-77809819D02*
X151532619Y-77809819D01*
X151532619Y-77809819D02*
X151627857Y-77762200D01*
X151627857Y-77762200D02*
X151675476Y-77714580D01*
X151675476Y-77714580D02*
X151723095Y-77619342D01*
X151723095Y-77619342D02*
X151723095Y-77524104D01*
X151723095Y-77524104D02*
X151675476Y-77428866D01*
X151675476Y-77428866D02*
X151627857Y-77381247D01*
X151627857Y-77381247D02*
X151532619Y-77333628D01*
X151532619Y-77333628D02*
X151342143Y-77286009D01*
X151342143Y-77286009D02*
X151246905Y-77238390D01*
X151246905Y-77238390D02*
X151199286Y-77190771D01*
X151199286Y-77190771D02*
X151151667Y-77095533D01*
X151151667Y-77095533D02*
X151151667Y-77000295D01*
X151151667Y-77000295D02*
X151199286Y-76905057D01*
X151199286Y-76905057D02*
X151246905Y-76857438D01*
X151246905Y-76857438D02*
X151342143Y-76809819D01*
X151342143Y-76809819D02*
X151580238Y-76809819D01*
X151580238Y-76809819D02*
X151723095Y-76857438D01*
X152056429Y-76809819D02*
X152294524Y-77809819D01*
X152294524Y-77809819D02*
X152485000Y-77095533D01*
X152485000Y-77095533D02*
X152675476Y-77809819D01*
X152675476Y-77809819D02*
X152913572Y-76809819D01*
X153723095Y-76809819D02*
X153532619Y-76809819D01*
X153532619Y-76809819D02*
X153437381Y-76857438D01*
X153437381Y-76857438D02*
X153389762Y-76905057D01*
X153389762Y-76905057D02*
X153294524Y-77047914D01*
X153294524Y-77047914D02*
X153246905Y-77238390D01*
X153246905Y-77238390D02*
X153246905Y-77619342D01*
X153246905Y-77619342D02*
X153294524Y-77714580D01*
X153294524Y-77714580D02*
X153342143Y-77762200D01*
X153342143Y-77762200D02*
X153437381Y-77809819D01*
X153437381Y-77809819D02*
X153627857Y-77809819D01*
X153627857Y-77809819D02*
X153723095Y-77762200D01*
X153723095Y-77762200D02*
X153770714Y-77714580D01*
X153770714Y-77714580D02*
X153818333Y-77619342D01*
X153818333Y-77619342D02*
X153818333Y-77381247D01*
X153818333Y-77381247D02*
X153770714Y-77286009D01*
X153770714Y-77286009D02*
X153723095Y-77238390D01*
X153723095Y-77238390D02*
X153627857Y-77190771D01*
X153627857Y-77190771D02*
X153437381Y-77190771D01*
X153437381Y-77190771D02*
X153342143Y-77238390D01*
X153342143Y-77238390D02*
X153294524Y-77286009D01*
X153294524Y-77286009D02*
X153246905Y-77381247D01*
X133126667Y-77487200D02*
X133269524Y-77534819D01*
X133269524Y-77534819D02*
X133507619Y-77534819D01*
X133507619Y-77534819D02*
X133602857Y-77487200D01*
X133602857Y-77487200D02*
X133650476Y-77439580D01*
X133650476Y-77439580D02*
X133698095Y-77344342D01*
X133698095Y-77344342D02*
X133698095Y-77249104D01*
X133698095Y-77249104D02*
X133650476Y-77153866D01*
X133650476Y-77153866D02*
X133602857Y-77106247D01*
X133602857Y-77106247D02*
X133507619Y-77058628D01*
X133507619Y-77058628D02*
X133317143Y-77011009D01*
X133317143Y-77011009D02*
X133221905Y-76963390D01*
X133221905Y-76963390D02*
X133174286Y-76915771D01*
X133174286Y-76915771D02*
X133126667Y-76820533D01*
X133126667Y-76820533D02*
X133126667Y-76725295D01*
X133126667Y-76725295D02*
X133174286Y-76630057D01*
X133174286Y-76630057D02*
X133221905Y-76582438D01*
X133221905Y-76582438D02*
X133317143Y-76534819D01*
X133317143Y-76534819D02*
X133555238Y-76534819D01*
X133555238Y-76534819D02*
X133698095Y-76582438D01*
X134031429Y-76534819D02*
X134269524Y-77534819D01*
X134269524Y-77534819D02*
X134460000Y-76820533D01*
X134460000Y-76820533D02*
X134650476Y-77534819D01*
X134650476Y-77534819D02*
X134888572Y-76534819D01*
X135698095Y-76868152D02*
X135698095Y-77534819D01*
X135460000Y-76487200D02*
X135221905Y-77201485D01*
X135221905Y-77201485D02*
X135840952Y-77201485D01*
X114126667Y-77487200D02*
X114269524Y-77534819D01*
X114269524Y-77534819D02*
X114507619Y-77534819D01*
X114507619Y-77534819D02*
X114602857Y-77487200D01*
X114602857Y-77487200D02*
X114650476Y-77439580D01*
X114650476Y-77439580D02*
X114698095Y-77344342D01*
X114698095Y-77344342D02*
X114698095Y-77249104D01*
X114698095Y-77249104D02*
X114650476Y-77153866D01*
X114650476Y-77153866D02*
X114602857Y-77106247D01*
X114602857Y-77106247D02*
X114507619Y-77058628D01*
X114507619Y-77058628D02*
X114317143Y-77011009D01*
X114317143Y-77011009D02*
X114221905Y-76963390D01*
X114221905Y-76963390D02*
X114174286Y-76915771D01*
X114174286Y-76915771D02*
X114126667Y-76820533D01*
X114126667Y-76820533D02*
X114126667Y-76725295D01*
X114126667Y-76725295D02*
X114174286Y-76630057D01*
X114174286Y-76630057D02*
X114221905Y-76582438D01*
X114221905Y-76582438D02*
X114317143Y-76534819D01*
X114317143Y-76534819D02*
X114555238Y-76534819D01*
X114555238Y-76534819D02*
X114698095Y-76582438D01*
X115031429Y-76534819D02*
X115269524Y-77534819D01*
X115269524Y-77534819D02*
X115460000Y-76820533D01*
X115460000Y-76820533D02*
X115650476Y-77534819D01*
X115650476Y-77534819D02*
X115888572Y-76534819D01*
X116174286Y-76534819D02*
X116793333Y-76534819D01*
X116793333Y-76534819D02*
X116460000Y-76915771D01*
X116460000Y-76915771D02*
X116602857Y-76915771D01*
X116602857Y-76915771D02*
X116698095Y-76963390D01*
X116698095Y-76963390D02*
X116745714Y-77011009D01*
X116745714Y-77011009D02*
X116793333Y-77106247D01*
X116793333Y-77106247D02*
X116793333Y-77344342D01*
X116793333Y-77344342D02*
X116745714Y-77439580D01*
X116745714Y-77439580D02*
X116698095Y-77487200D01*
X116698095Y-77487200D02*
X116602857Y-77534819D01*
X116602857Y-77534819D02*
X116317143Y-77534819D01*
X116317143Y-77534819D02*
X116221905Y-77487200D01*
X116221905Y-77487200D02*
X116174286Y-77439580D01*
D12*
%TO.C,G\u002A\u002A\u002A*%
G36*
X118536382Y-55905722D02*
G01*
X118634416Y-55984965D01*
X118759406Y-56098512D01*
X118896170Y-56231206D01*
X119029525Y-56367890D01*
X119144288Y-56493408D01*
X119225279Y-56592603D01*
X119257314Y-56650318D01*
X119257363Y-56651512D01*
X119228176Y-56710004D01*
X119149668Y-56811143D01*
X119035418Y-56938351D01*
X118954982Y-57020668D01*
X118652601Y-57320731D01*
X118652601Y-64880398D01*
X118652601Y-72440064D01*
X118959541Y-72749067D01*
X119107067Y-72903106D01*
X119197247Y-73012675D01*
X119238391Y-73089460D01*
X119239552Y-73142918D01*
X119198356Y-73207602D01*
X119110704Y-73310773D01*
X118992057Y-73437237D01*
X118857874Y-73571801D01*
X118723614Y-73699272D01*
X118604739Y-73804456D01*
X118516706Y-73872161D01*
X118480169Y-73889205D01*
X118428507Y-73860724D01*
X118331744Y-73783994D01*
X118205641Y-73672087D01*
X118115560Y-73586824D01*
X117803713Y-73284443D01*
X91805492Y-73284443D01*
X65807271Y-73284443D01*
X65495424Y-73586824D01*
X65358676Y-73714573D01*
X65240994Y-73815622D01*
X65158155Y-73876897D01*
X65130498Y-73889205D01*
X65080245Y-73860542D01*
X64983397Y-73782622D01*
X64854174Y-73667551D01*
X64715520Y-73535964D01*
X64572819Y-73391064D01*
X64456636Y-73262403D01*
X64379454Y-73164545D01*
X64353621Y-73113837D01*
X64383606Y-73055161D01*
X64463391Y-72954890D01*
X64577720Y-72828282D01*
X64711339Y-72690590D01*
X64848993Y-72557071D01*
X64975427Y-72442981D01*
X65075386Y-72363573D01*
X65133323Y-72334103D01*
X65191000Y-72363232D01*
X65290573Y-72441212D01*
X65414780Y-72553930D01*
X65476751Y-72614885D01*
X65755037Y-72895668D01*
X91805868Y-72895668D01*
X117856699Y-72895668D01*
X118060262Y-72688997D01*
X118263826Y-72482326D01*
X118263826Y-64876555D01*
X118263826Y-57270785D01*
X118028826Y-57048532D01*
X117793827Y-56826280D01*
X91805824Y-56826280D01*
X65817821Y-56826280D01*
X65498349Y-57128661D01*
X65358730Y-57255765D01*
X65237892Y-57356534D01*
X65151852Y-57418112D01*
X65121673Y-57431042D01*
X65066279Y-57401040D01*
X64969151Y-57321229D01*
X64845355Y-57206896D01*
X64709956Y-57073330D01*
X64578020Y-56935819D01*
X64464612Y-56809651D01*
X64384800Y-56710116D01*
X64353647Y-56652501D01*
X64353621Y-56651635D01*
X64383364Y-56595557D01*
X64462484Y-56497342D01*
X64575822Y-56372219D01*
X64708217Y-56235415D01*
X64844507Y-56102159D01*
X64969533Y-55987679D01*
X65068133Y-55907202D01*
X65125147Y-55875958D01*
X65125879Y-55875940D01*
X65179698Y-55904470D01*
X65278249Y-55981325D01*
X65405513Y-56093398D01*
X65495424Y-56178321D01*
X65807271Y-56480702D01*
X91805492Y-56480702D01*
X117803713Y-56480702D01*
X118115560Y-56178321D01*
X118252308Y-56050571D01*
X118369990Y-55949523D01*
X118452830Y-55888248D01*
X118480486Y-55875940D01*
X118536382Y-55905722D01*
G37*
G36*
X67121669Y-67528202D02*
G01*
X67144741Y-67648526D01*
X67161445Y-67830248D01*
X67183043Y-68165565D01*
X67982193Y-68165565D01*
X68781343Y-68165565D01*
X68802941Y-67830248D01*
X68821744Y-67637124D01*
X68845252Y-67528448D01*
X68869689Y-67502691D01*
X68891277Y-67558322D01*
X68906242Y-67693814D01*
X68910934Y-67873984D01*
X68910934Y-68251960D01*
X67969761Y-68263606D01*
X67028588Y-68275253D01*
X67041020Y-67874831D01*
X67053364Y-67666233D01*
X67072945Y-67538180D01*
X67096725Y-67491795D01*
X67121669Y-67528202D01*
G37*
G36*
X73502903Y-67701195D02*
G01*
X73515960Y-67927980D01*
X74094608Y-67927980D01*
X74673256Y-67927980D01*
X74686313Y-67701195D01*
X74699370Y-67474409D01*
X74850560Y-67474409D01*
X75001751Y-67474409D01*
X75014171Y-67873984D01*
X75026591Y-68273559D01*
X74094608Y-68273559D01*
X73162624Y-68273559D01*
X73167200Y-68126338D01*
X73393835Y-68126338D01*
X73412833Y-68160548D01*
X73463573Y-68169438D01*
X73585666Y-68175763D01*
X73764097Y-68179181D01*
X73983853Y-68179352D01*
X74153255Y-68177372D01*
X74439611Y-68170643D01*
X74647717Y-68160856D01*
X74785687Y-68147279D01*
X74861636Y-68129181D01*
X74883001Y-68111569D01*
X74870614Y-68091014D01*
X74811631Y-68076044D01*
X74696842Y-68065965D01*
X74517037Y-68060083D01*
X74263004Y-68057706D01*
X74165553Y-68057572D01*
X73868871Y-68059632D01*
X73650929Y-68066503D01*
X73504157Y-68079221D01*
X73420983Y-68098820D01*
X73393835Y-68126338D01*
X73167200Y-68126338D01*
X73175045Y-67873984D01*
X73187465Y-67474409D01*
X73338655Y-67474409D01*
X73489846Y-67474409D01*
X73502903Y-67701195D01*
G37*
G36*
X75588335Y-67528202D02*
G01*
X75611407Y-67648526D01*
X75628111Y-67830248D01*
X75649710Y-68165565D01*
X76448860Y-68165565D01*
X77248009Y-68165565D01*
X77269608Y-67830248D01*
X77288411Y-67637124D01*
X77311919Y-67528448D01*
X77336355Y-67502691D01*
X77357944Y-67558322D01*
X77372909Y-67693814D01*
X77377601Y-67873984D01*
X77377601Y-68251960D01*
X76436428Y-68263606D01*
X75495255Y-68275253D01*
X75507687Y-67874831D01*
X75520031Y-67666233D01*
X75539611Y-67538180D01*
X75563391Y-67491795D01*
X75588335Y-67528202D01*
G37*
G36*
X79648816Y-67478520D02*
G01*
X79696165Y-67505625D01*
X79718838Y-67577886D01*
X79731853Y-67690395D01*
X79753451Y-67906382D01*
X80323515Y-67918419D01*
X80893578Y-67930456D01*
X80906678Y-67702433D01*
X80923581Y-67557550D01*
X80948486Y-67493672D01*
X80974879Y-67506638D01*
X80996247Y-67592286D01*
X81006075Y-67746456D01*
X81006172Y-67765991D01*
X81006172Y-68035974D01*
X80257764Y-68047807D01*
X79972804Y-68053837D01*
X79765703Y-68062100D01*
X79627939Y-68073350D01*
X79550990Y-68088343D01*
X79526332Y-68107836D01*
X79527010Y-68112603D01*
X79558448Y-68132721D01*
X79642849Y-68147548D01*
X79788286Y-68157609D01*
X80002829Y-68163430D01*
X80294551Y-68165537D01*
X80340214Y-68165565D01*
X81135764Y-68165565D01*
X81148381Y-67830787D01*
X81161619Y-67638950D01*
X81181085Y-67530722D01*
X81202907Y-67503910D01*
X81223208Y-67556319D01*
X81238115Y-67685757D01*
X81243758Y-67884783D01*
X81243758Y-68273559D01*
X80313395Y-68273559D01*
X79383032Y-68273559D01*
X79395453Y-67873984D01*
X79407873Y-67474409D01*
X79559064Y-67474409D01*
X79648816Y-67478520D01*
G37*
G36*
X87338875Y-67547139D02*
G01*
X87357881Y-67683197D01*
X87368593Y-67873984D01*
X87381013Y-68273559D01*
X84917147Y-68273559D01*
X82453281Y-68273559D01*
X82453281Y-67884783D01*
X82457812Y-67698498D01*
X82470355Y-67565615D01*
X82489333Y-67500314D01*
X82496479Y-67496008D01*
X82518737Y-67535896D01*
X82534084Y-67642519D01*
X82539676Y-67793099D01*
X82549626Y-67995461D01*
X82579487Y-68113853D01*
X82598562Y-68139062D01*
X82640733Y-68150706D01*
X82739348Y-68160269D01*
X82898485Y-68167818D01*
X83122221Y-68173419D01*
X83414636Y-68177137D01*
X83779807Y-68179037D01*
X84221813Y-68179185D01*
X84744731Y-68177647D01*
X84942015Y-68176750D01*
X87226581Y-68165565D01*
X87248179Y-67830248D01*
X87266962Y-67633157D01*
X87290369Y-67521012D01*
X87315355Y-67492708D01*
X87338875Y-67547139D01*
G37*
G36*
X88189978Y-67701195D02*
G01*
X88203034Y-67927980D01*
X88781683Y-67927980D01*
X89360331Y-67927980D01*
X89373388Y-67701195D01*
X89390278Y-67556866D01*
X89415169Y-67493464D01*
X89441549Y-67506746D01*
X89462910Y-67592471D01*
X89472741Y-67746398D01*
X89472839Y-67765991D01*
X89472839Y-68035974D01*
X88724431Y-68047807D01*
X88439471Y-68053837D01*
X88232370Y-68062100D01*
X88094606Y-68073350D01*
X88017657Y-68088343D01*
X87992999Y-68107836D01*
X87993677Y-68112603D01*
X88025115Y-68132721D01*
X88109516Y-68147548D01*
X88254952Y-68157609D01*
X88469496Y-68163430D01*
X88761218Y-68165537D01*
X88806881Y-68165565D01*
X89602431Y-68165565D01*
X89615047Y-67830787D01*
X89628285Y-67638950D01*
X89647752Y-67530722D01*
X89669573Y-67503910D01*
X89689874Y-67556319D01*
X89704782Y-67685757D01*
X89710424Y-67884783D01*
X89710424Y-68273559D01*
X88780062Y-68273559D01*
X87849699Y-68273559D01*
X87862119Y-67873984D01*
X87874540Y-67474409D01*
X88025730Y-67474409D01*
X88176921Y-67474409D01*
X88189978Y-67701195D01*
G37*
G36*
X91873646Y-67478520D02*
G01*
X91920995Y-67505625D01*
X91943668Y-67577886D01*
X91956683Y-67690395D01*
X91978281Y-67906382D01*
X92613144Y-67918323D01*
X93248007Y-67930264D01*
X93261103Y-67702336D01*
X93274200Y-67474409D01*
X93425390Y-67474409D01*
X93576581Y-67474409D01*
X93589001Y-67873984D01*
X93601421Y-68273559D01*
X92604642Y-68273559D01*
X91607862Y-68273559D01*
X91612727Y-68117065D01*
X91875424Y-68117065D01*
X91893090Y-68152017D01*
X91900094Y-68159373D01*
X91953557Y-68171484D01*
X92073157Y-68178839D01*
X92241620Y-68181883D01*
X92441669Y-68181061D01*
X92656031Y-68176815D01*
X92867430Y-68169591D01*
X93058591Y-68159833D01*
X93212238Y-68147985D01*
X93311098Y-68134491D01*
X93339167Y-68122368D01*
X93297249Y-68105242D01*
X93176590Y-68090391D01*
X92984826Y-68078389D01*
X92729594Y-68069808D01*
X92604725Y-68067352D01*
X92320953Y-68064395D01*
X92114805Y-68066756D01*
X91977614Y-68075567D01*
X91900710Y-68091959D01*
X91875424Y-68117065D01*
X91612727Y-68117065D01*
X91620283Y-67873984D01*
X91632703Y-67474409D01*
X91783894Y-67474409D01*
X91873646Y-67478520D01*
G37*
G36*
X95010278Y-67460488D02*
G01*
X95081494Y-67475269D01*
X95119567Y-67513869D01*
X95137356Y-67599350D01*
X95144754Y-67701604D01*
X95157825Y-67928800D01*
X97261420Y-67917591D01*
X99365016Y-67906382D01*
X99378182Y-67701195D01*
X99395287Y-67561613D01*
X99419314Y-67502700D01*
X99444265Y-67519699D01*
X99464146Y-67607856D01*
X99472961Y-67762413D01*
X99473009Y-67776408D01*
X99473009Y-68056808D01*
X97194353Y-68067990D01*
X96629087Y-68071576D01*
X96142541Y-68076386D01*
X95735911Y-68082391D01*
X95410394Y-68089562D01*
X95167187Y-68097871D01*
X95007487Y-68107289D01*
X94932490Y-68117786D01*
X94926496Y-68122368D01*
X94972247Y-68132938D01*
X95102829Y-68142080D01*
X95316691Y-68149766D01*
X95612279Y-68155967D01*
X95988042Y-68160655D01*
X96442428Y-68163801D01*
X96973884Y-68165376D01*
X97259149Y-68165565D01*
X99581002Y-68165565D01*
X99602601Y-67830248D01*
X99621404Y-67637124D01*
X99644912Y-67528448D01*
X99669349Y-67502691D01*
X99690937Y-67558322D01*
X99705902Y-67693814D01*
X99710594Y-67873984D01*
X99710594Y-68251960D01*
X97266702Y-68263113D01*
X96815095Y-68264670D01*
X96389517Y-68265163D01*
X95997777Y-68264649D01*
X95647687Y-68263184D01*
X95347058Y-68260825D01*
X95103702Y-68257630D01*
X94925430Y-68253655D01*
X94820053Y-68248956D01*
X94793657Y-68245114D01*
X94779773Y-68190758D01*
X94769478Y-68073344D01*
X94764650Y-67916192D01*
X94764506Y-67882873D01*
X94771985Y-67679506D01*
X94799294Y-67549065D01*
X94853738Y-67478993D01*
X94942624Y-67456735D01*
X95010278Y-67460488D01*
G37*
G36*
X104302576Y-67701593D02*
G01*
X104315647Y-67928777D01*
X106484039Y-67917579D01*
X108652431Y-67906382D01*
X108674030Y-67690395D01*
X108689670Y-67562764D01*
X108715021Y-67498995D01*
X108767810Y-67476929D01*
X108846819Y-67474409D01*
X108998009Y-67474409D01*
X108998009Y-67863185D01*
X108998009Y-68251960D01*
X106480142Y-68263108D01*
X103962275Y-68274256D01*
X103966039Y-68153102D01*
X104206430Y-68153102D01*
X104211867Y-68159922D01*
X104259227Y-68165099D01*
X104384824Y-68169545D01*
X104580506Y-68173199D01*
X104838117Y-68176000D01*
X105149503Y-68177889D01*
X105506510Y-68178804D01*
X105900985Y-68178687D01*
X106324772Y-68177476D01*
X106485755Y-68176746D01*
X107006902Y-68173718D01*
X107447326Y-68170136D01*
X107812700Y-68165835D01*
X108108692Y-68160653D01*
X108340976Y-68154426D01*
X108515221Y-68146991D01*
X108637099Y-68138185D01*
X108712281Y-68127844D01*
X108746439Y-68115806D01*
X108749631Y-68111569D01*
X108737387Y-68099213D01*
X108687940Y-68088771D01*
X108595570Y-68080104D01*
X108454556Y-68073076D01*
X108259179Y-68067548D01*
X108003717Y-68063385D01*
X107682451Y-68060449D01*
X107289660Y-68058603D01*
X106819624Y-68057709D01*
X106498716Y-68057572D01*
X106064163Y-68058260D01*
X105656064Y-68060235D01*
X105282505Y-68063366D01*
X104951575Y-68067522D01*
X104671361Y-68072572D01*
X104449953Y-68078385D01*
X104295436Y-68084829D01*
X104215899Y-68091774D01*
X104206835Y-68094744D01*
X104206430Y-68153102D01*
X103966039Y-68153102D01*
X103974700Y-67874333D01*
X103987125Y-67474409D01*
X104138315Y-67474409D01*
X104289506Y-67474409D01*
X104302576Y-67701593D01*
G37*
G36*
X110448476Y-67478520D02*
G01*
X110495825Y-67505625D01*
X110518498Y-67577886D01*
X110531513Y-67690395D01*
X110553111Y-67906382D01*
X111123058Y-67918418D01*
X111693004Y-67930454D01*
X111706221Y-67727407D01*
X111725853Y-67596256D01*
X111760189Y-67517159D01*
X111775608Y-67505859D01*
X111806390Y-67516129D01*
X111820666Y-67582058D01*
X111820692Y-67717012D01*
X111818805Y-67761666D01*
X111805832Y-68035974D01*
X111057424Y-68047807D01*
X110772464Y-68053837D01*
X110565363Y-68062100D01*
X110427599Y-68073350D01*
X110350650Y-68088343D01*
X110325992Y-68107836D01*
X110326670Y-68112603D01*
X110358108Y-68132721D01*
X110442509Y-68147548D01*
X110587945Y-68157609D01*
X110802489Y-68163430D01*
X111094211Y-68165537D01*
X111139874Y-68165565D01*
X111935424Y-68165565D01*
X111948094Y-67827810D01*
X111959625Y-67644822D01*
X111978401Y-67540264D01*
X112005996Y-67506359D01*
X112012890Y-67507431D01*
X112042660Y-67559208D01*
X112059916Y-67692024D01*
X112065016Y-67888383D01*
X112065016Y-68251960D01*
X111123843Y-68263606D01*
X110182670Y-68275253D01*
X110195101Y-67874831D01*
X110207533Y-67474409D01*
X110358723Y-67474409D01*
X110448476Y-67478520D01*
G37*
G36*
X114206640Y-67478520D02*
G01*
X114253988Y-67505625D01*
X114276661Y-67577886D01*
X114289676Y-67690395D01*
X114311275Y-67906382D01*
X114946137Y-67918323D01*
X115581000Y-67930264D01*
X115594096Y-67702336D01*
X115607193Y-67474409D01*
X115758383Y-67474409D01*
X115909574Y-67474409D01*
X115921994Y-67873984D01*
X115934414Y-68273559D01*
X114937635Y-68273559D01*
X113940856Y-68273559D01*
X113945720Y-68117065D01*
X114208418Y-68117065D01*
X114226083Y-68152017D01*
X114233087Y-68159373D01*
X114286550Y-68171484D01*
X114406150Y-68178839D01*
X114574613Y-68181883D01*
X114774663Y-68181061D01*
X114989024Y-68176815D01*
X115200423Y-68169591D01*
X115391584Y-68159833D01*
X115545232Y-68147985D01*
X115644091Y-68134491D01*
X115672160Y-68122368D01*
X115630242Y-68105242D01*
X115509583Y-68090391D01*
X115317819Y-68078389D01*
X115062588Y-68069808D01*
X114937719Y-68067352D01*
X114653946Y-68064395D01*
X114447799Y-68066756D01*
X114310607Y-68075567D01*
X114233703Y-68091959D01*
X114208418Y-68117065D01*
X113945720Y-68117065D01*
X113953276Y-67873984D01*
X113965696Y-67474409D01*
X114116887Y-67474409D01*
X114206640Y-67478520D01*
G37*
G36*
X67367076Y-67554223D02*
G01*
X67384922Y-67687379D01*
X67385863Y-67701195D01*
X67399030Y-67906382D01*
X67982193Y-67906382D01*
X68565356Y-67906382D01*
X68578522Y-67701195D01*
X68595618Y-67561615D01*
X68619626Y-67502692D01*
X68644564Y-67519659D01*
X68664448Y-67607745D01*
X68673297Y-67762182D01*
X68673349Y-67776790D01*
X68673349Y-68057572D01*
X67982193Y-68057572D01*
X67291036Y-68057572D01*
X67291036Y-67776790D01*
X67298780Y-67617408D01*
X67318023Y-67524006D01*
X67342782Y-67501355D01*
X67367076Y-67554223D01*
G37*
G36*
X77119392Y-67535680D02*
G01*
X77134847Y-67640773D01*
X77140016Y-67776790D01*
X77140016Y-68057572D01*
X76448860Y-68057572D01*
X75757703Y-68057572D01*
X75757703Y-67776790D01*
X75765447Y-67617408D01*
X75784689Y-67524006D01*
X75809449Y-67501355D01*
X75833743Y-67554223D01*
X75851589Y-67687379D01*
X75852530Y-67701195D01*
X75865696Y-67906382D01*
X76423880Y-67918527D01*
X76668129Y-67922609D01*
X76839112Y-67918827D01*
X76949924Y-67901757D01*
X77013657Y-67865977D01*
X77043407Y-67806064D01*
X77052267Y-67716595D01*
X77052960Y-67657997D01*
X77063563Y-67553846D01*
X77089023Y-67498661D01*
X77096819Y-67496008D01*
X77119392Y-67535680D01*
G37*
G36*
X82761144Y-67529776D02*
G01*
X82782823Y-67633847D01*
X82790332Y-67711837D01*
X82803403Y-67928800D01*
X84906999Y-67917591D01*
X87010594Y-67906382D01*
X87023874Y-67698422D01*
X87042568Y-67561314D01*
X87075500Y-67507028D01*
X87088670Y-67507373D01*
X87125249Y-67558939D01*
X87149782Y-67666389D01*
X87158668Y-67799626D01*
X87148307Y-67928555D01*
X87142369Y-67956261D01*
X87116941Y-68057572D01*
X84913347Y-68057572D01*
X84408495Y-68057240D01*
X83983579Y-68056128D01*
X83632141Y-68054065D01*
X83347726Y-68050881D01*
X83123876Y-68046402D01*
X82954135Y-68040457D01*
X82832045Y-68032876D01*
X82751152Y-68023487D01*
X82704997Y-68012117D01*
X82687123Y-67998595D01*
X82687057Y-67998427D01*
X82673529Y-67916682D01*
X82672726Y-67797756D01*
X82682140Y-67669070D01*
X82699261Y-67558046D01*
X82721582Y-67492103D01*
X82734064Y-67484641D01*
X82761144Y-67529776D01*
G37*
G36*
X68306172Y-66588865D02*
G01*
X68306172Y-67344817D01*
X67581665Y-67356665D01*
X67302362Y-67359774D01*
X67098939Y-67358191D01*
X66960977Y-67351292D01*
X66878055Y-67338450D01*
X66839756Y-67319038D01*
X66835398Y-67311810D01*
X66828784Y-67251236D01*
X66824444Y-67120096D01*
X66822579Y-66934189D01*
X66823394Y-66709320D01*
X66825552Y-66544009D01*
X66837465Y-65832912D01*
X67571819Y-65832912D01*
X68306172Y-65832912D01*
X68306172Y-66588865D01*
G37*
G36*
X74538381Y-66577109D02*
G01*
X74526581Y-67344817D01*
X73770628Y-67355508D01*
X73521033Y-67357044D01*
X73299743Y-67354646D01*
X73121950Y-67348778D01*
X73002848Y-67339906D01*
X72959600Y-67330693D01*
X72938466Y-67294941D01*
X72924088Y-67212987D01*
X72915913Y-67075023D01*
X72913389Y-66871240D01*
X72915963Y-66591828D01*
X72916403Y-66564050D01*
X72928281Y-65832912D01*
X73739231Y-65821156D01*
X74550181Y-65809400D01*
X74538381Y-66577109D01*
G37*
G36*
X75001751Y-66588865D02*
G01*
X75001751Y-67344817D01*
X74861063Y-67358376D01*
X74745874Y-67351289D01*
X74697959Y-67313520D01*
X74691123Y-67252345D01*
X74686593Y-67120652D01*
X74684587Y-66934289D01*
X74685319Y-66709108D01*
X74687457Y-66544009D01*
X74699370Y-65832912D01*
X74850560Y-65832912D01*
X75001751Y-65832912D01*
X75001751Y-66588865D01*
G37*
G36*
X76772839Y-66588865D02*
G01*
X76772839Y-67344817D01*
X76048331Y-67356665D01*
X75769029Y-67359774D01*
X75565606Y-67358191D01*
X75427643Y-67351292D01*
X75344722Y-67338450D01*
X75306423Y-67319038D01*
X75302065Y-67311810D01*
X75295451Y-67251236D01*
X75291110Y-67120096D01*
X75289246Y-66934189D01*
X75290061Y-66709320D01*
X75292218Y-66544009D01*
X75304132Y-65832912D01*
X76038485Y-65832912D01*
X76772839Y-65832912D01*
X76772839Y-66588865D01*
G37*
G36*
X79915441Y-65821093D02*
G01*
X80660594Y-65832912D01*
X80672472Y-66564050D01*
X80675460Y-66850273D01*
X80673406Y-67060028D01*
X80665756Y-67203125D01*
X80651958Y-67289375D01*
X80631459Y-67328589D01*
X80629275Y-67330140D01*
X80568994Y-67342253D01*
X80442159Y-67351917D01*
X80266890Y-67359038D01*
X80061308Y-67363521D01*
X79843529Y-67365272D01*
X79631675Y-67364195D01*
X79443865Y-67360197D01*
X79298217Y-67353181D01*
X79212852Y-67343054D01*
X79199086Y-67337618D01*
X79189690Y-67286997D01*
X79181577Y-67164586D01*
X79175289Y-66984984D01*
X79171364Y-66762792D01*
X79170288Y-66559047D01*
X79170288Y-65809274D01*
X79915441Y-65821093D01*
G37*
G36*
X81794523Y-65819505D02*
G01*
X81956513Y-65832912D01*
X81969569Y-66059698D01*
X81980937Y-66192306D01*
X82002546Y-66259943D01*
X82045403Y-66284027D01*
X82086104Y-66286484D01*
X82147082Y-66278302D01*
X82180179Y-66239478D01*
X82196401Y-66148591D01*
X82202639Y-66059698D01*
X82215696Y-65832912D01*
X84548349Y-65832912D01*
X86881002Y-65832912D01*
X86902601Y-66048899D01*
X86924200Y-66264885D01*
X87140186Y-66286484D01*
X87356172Y-66308082D01*
X87368343Y-66815651D01*
X87372122Y-67035058D01*
X87370009Y-67181852D01*
X87360551Y-67269698D01*
X87342293Y-67312264D01*
X87314346Y-67323219D01*
X87284228Y-67310191D01*
X87264640Y-67261671D01*
X87253518Y-67163509D01*
X87248798Y-67001550D01*
X87248179Y-66869647D01*
X87248179Y-66416076D01*
X87099538Y-66416076D01*
X86977629Y-66428910D01*
X86929523Y-66461642D01*
X86959801Y-66505614D01*
X87034017Y-66539831D01*
X87165331Y-66585607D01*
X87152759Y-66940136D01*
X87139257Y-67141088D01*
X87116205Y-67267223D01*
X87088060Y-67311919D01*
X87058450Y-67291424D01*
X87037985Y-67201801D01*
X87025096Y-67035296D01*
X87023264Y-66991416D01*
X87009406Y-66800832D01*
X86987786Y-66695331D01*
X86962077Y-66674364D01*
X86935955Y-66737378D01*
X86913095Y-66883824D01*
X86902601Y-67009500D01*
X86881002Y-67344817D01*
X84591547Y-67355172D01*
X84153859Y-67356536D01*
X83741684Y-67356634D01*
X83363206Y-67355545D01*
X83026612Y-67353348D01*
X82740086Y-67350124D01*
X82511814Y-67345953D01*
X82349982Y-67340914D01*
X82262775Y-67335088D01*
X82250179Y-67332312D01*
X82221059Y-67272341D01*
X82198220Y-67144724D01*
X82185383Y-66976380D01*
X82172499Y-66653661D01*
X81902516Y-66640800D01*
X81632533Y-66627940D01*
X81632533Y-66496328D01*
X81868689Y-66496328D01*
X81902247Y-66517910D01*
X82001448Y-66535331D01*
X82105700Y-66521828D01*
X82175537Y-66484111D01*
X82183567Y-66470072D01*
X82161100Y-66430234D01*
X82057776Y-66416120D01*
X82049056Y-66416076D01*
X81937212Y-66428485D01*
X81872055Y-66458727D01*
X81868689Y-66496328D01*
X81632533Y-66496328D01*
X81632533Y-66217019D01*
X81632533Y-65806099D01*
X81794523Y-65819505D01*
G37*
G36*
X88367091Y-65820575D02*
G01*
X88396123Y-65821034D01*
X89127261Y-65832912D01*
X89139139Y-66564050D01*
X89142127Y-66850273D01*
X89140072Y-67060028D01*
X89132423Y-67203125D01*
X89118625Y-67289375D01*
X89098125Y-67328589D01*
X89095942Y-67330140D01*
X89027310Y-67346469D01*
X88892931Y-67357970D01*
X88711174Y-67364840D01*
X88500406Y-67367277D01*
X88278997Y-67365478D01*
X88065315Y-67359639D01*
X87877727Y-67349959D01*
X87734602Y-67336633D01*
X87654308Y-67319859D01*
X87645594Y-67314579D01*
X87627892Y-67255139D01*
X87613582Y-67127732D01*
X87602862Y-66950727D01*
X87595929Y-66742490D01*
X87592981Y-66521392D01*
X87594214Y-66305799D01*
X87599825Y-66114080D01*
X87610011Y-65964604D01*
X87624970Y-65875739D01*
X87630033Y-65864232D01*
X87665509Y-65843104D01*
X87747143Y-65828728D01*
X87884744Y-65820550D01*
X88088124Y-65818017D01*
X88367091Y-65820575D01*
G37*
G36*
X92205067Y-65821160D02*
G01*
X93015016Y-65832912D01*
X93026910Y-66539923D01*
X93029281Y-66850409D01*
X93024400Y-67078523D01*
X93012083Y-67227999D01*
X92992146Y-67302570D01*
X92989222Y-67306675D01*
X92951160Y-67329580D01*
X92873459Y-67346177D01*
X92745285Y-67357281D01*
X92555805Y-67363709D01*
X92294186Y-67366276D01*
X92196178Y-67366416D01*
X91951027Y-67364819D01*
X91736534Y-67360394D01*
X91567368Y-67353688D01*
X91458196Y-67345247D01*
X91423916Y-67337618D01*
X91414519Y-67286997D01*
X91406407Y-67164586D01*
X91400118Y-66984986D01*
X91396193Y-66762798D01*
X91395118Y-66559113D01*
X91395118Y-65809407D01*
X92205067Y-65821160D01*
G37*
G36*
X93576581Y-66588865D02*
G01*
X93576581Y-67344817D01*
X93468587Y-67356007D01*
X93363549Y-67351179D01*
X93305519Y-67331193D01*
X93284378Y-67295190D01*
X93269998Y-67212947D01*
X93261826Y-67074654D01*
X93259311Y-66870505D01*
X93261899Y-66590692D01*
X93262322Y-66564050D01*
X93274200Y-65832912D01*
X93425390Y-65832912D01*
X93576581Y-65832912D01*
X93576581Y-66588865D01*
G37*
G36*
X94290687Y-65851958D02*
G01*
X94317365Y-65940173D01*
X94331184Y-66070665D01*
X94331872Y-66105900D01*
X94336949Y-66221925D01*
X94359174Y-66273145D01*
X94410691Y-66281007D01*
X94429727Y-66278689D01*
X94489984Y-66257214D01*
X94524466Y-66199536D01*
X94544915Y-66082939D01*
X94548519Y-66048899D01*
X94570118Y-65832912D01*
X96837975Y-65832912D01*
X99105832Y-65832912D01*
X99105832Y-66588865D01*
X99105832Y-67344817D01*
X96847567Y-67356002D01*
X96327787Y-67358175D01*
X95888538Y-67359053D01*
X95523963Y-67358524D01*
X95228207Y-67356477D01*
X94995414Y-67352802D01*
X94819728Y-67347387D01*
X94695293Y-67340121D01*
X94616253Y-67330893D01*
X94576752Y-67319593D01*
X94569874Y-67312805D01*
X94558525Y-67244403D01*
X94547356Y-67117039D01*
X94538764Y-66958116D01*
X94538683Y-66956042D01*
X94526921Y-66653661D01*
X94246138Y-66632062D01*
X93965356Y-66610463D01*
X93952358Y-66308986D01*
X93949257Y-66141154D01*
X93953804Y-65995753D01*
X93964423Y-65907645D01*
X93995149Y-65830328D01*
X94025126Y-65830142D01*
X94050622Y-65897874D01*
X94067903Y-66024312D01*
X94073349Y-66176418D01*
X94078062Y-66355606D01*
X94099378Y-66465335D01*
X94148068Y-66522341D01*
X94234902Y-66543363D01*
X94310934Y-66545668D01*
X94446707Y-66532085D01*
X94524660Y-66499316D01*
X94538229Y-66459324D01*
X94480848Y-66424075D01*
X94386530Y-66407884D01*
X94224540Y-66394477D01*
X94211287Y-66162041D01*
X94208461Y-66017651D01*
X94215705Y-65902056D01*
X94224410Y-65860871D01*
X94257564Y-65820649D01*
X94290687Y-65851958D01*
G37*
G36*
X108393247Y-66588865D02*
G01*
X108393247Y-67344817D01*
X106098593Y-67355992D01*
X105583064Y-67358195D01*
X105147427Y-67359283D01*
X104785186Y-67359120D01*
X104489844Y-67357569D01*
X104254906Y-67354497D01*
X104073874Y-67349766D01*
X103940253Y-67343242D01*
X103847545Y-67334789D01*
X103789254Y-67324271D01*
X103758884Y-67311552D01*
X103754047Y-67307050D01*
X103733140Y-67242354D01*
X103719835Y-67105118D01*
X103713919Y-66891048D01*
X103715179Y-66595852D01*
X103716048Y-66539923D01*
X103727941Y-65832912D01*
X106060594Y-65832912D01*
X108393247Y-65832912D01*
X108393247Y-66588865D01*
G37*
G36*
X109671201Y-65835641D02*
G01*
X109694729Y-65934644D01*
X109708727Y-66117498D01*
X109710764Y-66244019D01*
X109710764Y-66628428D01*
X109375985Y-66641044D01*
X109041206Y-66653661D01*
X109028322Y-66976380D01*
X109014682Y-67151383D01*
X108991495Y-67276418D01*
X108963526Y-67332096D01*
X108874529Y-67360522D01*
X108770752Y-67362171D01*
X108702828Y-67337618D01*
X108691554Y-67285461D01*
X108682350Y-67165050D01*
X108676186Y-66994517D01*
X108674030Y-66799469D01*
X108674030Y-66290118D01*
X109008809Y-66277502D01*
X109343587Y-66264885D01*
X109365186Y-66058638D01*
X109388869Y-65918604D01*
X109417652Y-65860480D01*
X109445386Y-65880518D01*
X109465924Y-65974968D01*
X109473179Y-66124494D01*
X109473179Y-66394477D01*
X109135424Y-66407147D01*
X108952436Y-66418678D01*
X108847878Y-66437454D01*
X108813973Y-66465049D01*
X108815044Y-66471943D01*
X108866822Y-66501713D01*
X108999638Y-66518969D01*
X109195997Y-66524069D01*
X109559574Y-66524069D01*
X109570693Y-66264885D01*
X109587889Y-66035110D01*
X109613336Y-65886536D01*
X109642588Y-65819826D01*
X109671201Y-65835641D01*
G37*
G36*
X110715101Y-65821093D02*
G01*
X111460254Y-65832912D01*
X111460254Y-66588865D01*
X111460254Y-67344817D01*
X110744906Y-67356624D01*
X110504522Y-67358847D01*
X110294880Y-67357481D01*
X110130987Y-67352887D01*
X110027846Y-67345430D01*
X109999753Y-67338625D01*
X109990027Y-67287662D01*
X109981630Y-67164935D01*
X109975121Y-66985068D01*
X109971060Y-66762687D01*
X109969948Y-66559047D01*
X109969948Y-65809274D01*
X110715101Y-65821093D01*
G37*
G36*
X114538060Y-65821160D02*
G01*
X115348009Y-65832912D01*
X115361066Y-66059698D01*
X115374123Y-66286484D01*
X115652648Y-66286484D01*
X115931172Y-66286484D01*
X115931172Y-66806207D01*
X115929023Y-67043930D01*
X115919156Y-67207099D01*
X115896444Y-67307516D01*
X115855759Y-67356982D01*
X115791974Y-67367300D01*
X115699963Y-67350271D01*
X115695301Y-67349107D01*
X115641555Y-67329732D01*
X115608768Y-67291991D01*
X115590568Y-67216506D01*
X115580584Y-67083897D01*
X115576605Y-66988071D01*
X115568099Y-66818910D01*
X115554910Y-66718593D01*
X115531844Y-66669569D01*
X115493703Y-66654290D01*
X115477601Y-66653661D01*
X115432921Y-66662204D01*
X115405439Y-66699720D01*
X115389673Y-66784036D01*
X115380136Y-66932979D01*
X115378322Y-66976380D01*
X115364682Y-67151383D01*
X115341495Y-67276418D01*
X115313526Y-67332096D01*
X115254658Y-67343270D01*
X115128167Y-67352222D01*
X114951339Y-67358890D01*
X114741462Y-67363214D01*
X114515820Y-67365131D01*
X114291700Y-67364581D01*
X114086387Y-67361503D01*
X113917168Y-67355833D01*
X113801329Y-67347513D01*
X113756909Y-67337618D01*
X113747513Y-67286997D01*
X113739400Y-67164586D01*
X113733111Y-66984986D01*
X113729186Y-66762798D01*
X113728111Y-66559113D01*
X113728111Y-66464673D01*
X115369487Y-66464673D01*
X115398406Y-66516869D01*
X115473685Y-66543105D01*
X115585891Y-66536715D01*
X115646857Y-66519447D01*
X115711350Y-66478429D01*
X115697893Y-66442457D01*
X115614870Y-66419828D01*
X115542397Y-66416076D01*
X115414821Y-66428279D01*
X115369487Y-66464673D01*
X113728111Y-66464673D01*
X113728111Y-65809407D01*
X114538060Y-65821160D01*
G37*
G36*
X68646270Y-65885297D02*
G01*
X68659130Y-66014170D01*
X68668171Y-66209669D01*
X68672831Y-66461930D01*
X68673349Y-66591414D01*
X68670863Y-66877196D01*
X68663652Y-67097718D01*
X68652087Y-67246699D01*
X68636539Y-67317859D01*
X68630152Y-67323219D01*
X68613498Y-67281052D01*
X68600593Y-67158545D01*
X68591777Y-66961681D01*
X68587393Y-66696447D01*
X68586955Y-66564717D01*
X68589316Y-66261930D01*
X68596307Y-66037658D01*
X68607792Y-65894223D01*
X68623633Y-65833950D01*
X68630152Y-65832912D01*
X68646270Y-65885297D01*
G37*
G36*
X68884864Y-65896260D02*
G01*
X68899714Y-66016918D01*
X68911716Y-66208683D01*
X68920298Y-66463917D01*
X68922754Y-66588781D01*
X68926245Y-66859456D01*
X68926101Y-67055366D01*
X68921454Y-67188096D01*
X68911435Y-67269229D01*
X68895178Y-67310352D01*
X68871814Y-67323050D01*
X68867737Y-67323219D01*
X68843258Y-67313717D01*
X68826012Y-67277489D01*
X68815133Y-67202950D01*
X68809752Y-67078514D01*
X68809002Y-66892598D01*
X68812014Y-66633615D01*
X68812720Y-66588781D01*
X68819687Y-66309061D01*
X68830316Y-66089589D01*
X68844035Y-65938002D01*
X68860271Y-65861935D01*
X68867737Y-65854344D01*
X68884864Y-65896260D01*
G37*
G36*
X77112936Y-65885297D02*
G01*
X77125797Y-66014170D01*
X77134838Y-66209669D01*
X77139498Y-66461930D01*
X77140016Y-66591414D01*
X77137530Y-66877196D01*
X77130319Y-67097718D01*
X77118754Y-67246699D01*
X77103206Y-67317859D01*
X77096819Y-67323219D01*
X77080164Y-67281052D01*
X77067259Y-67158545D01*
X77058444Y-66961681D01*
X77054060Y-66696447D01*
X77053621Y-66564717D01*
X77055982Y-66261930D01*
X77062974Y-66037658D01*
X77074459Y-65894223D01*
X77090300Y-65833950D01*
X77096819Y-65832912D01*
X77112936Y-65885297D01*
G37*
G36*
X77352744Y-65894742D02*
G01*
X77366371Y-66004185D01*
X77375423Y-66165627D01*
X77380039Y-66361939D01*
X77380359Y-66575991D01*
X77376521Y-66790654D01*
X77368665Y-66988799D01*
X77356929Y-67153295D01*
X77341453Y-67267014D01*
X77322567Y-67312765D01*
X77302105Y-67302475D01*
X77287934Y-67249271D01*
X77279474Y-67143458D01*
X77276144Y-66975339D01*
X77277361Y-66735219D01*
X77279370Y-66592727D01*
X77286323Y-66311972D01*
X77296919Y-66091613D01*
X77310592Y-65939221D01*
X77326778Y-65862366D01*
X77334404Y-65854427D01*
X77352744Y-65894742D01*
G37*
G36*
X80979863Y-65887970D02*
G01*
X80994159Y-66000677D01*
X81005619Y-66164743D01*
X81013998Y-66363165D01*
X81019052Y-66578936D01*
X81020536Y-66795051D01*
X81018207Y-66994505D01*
X81011819Y-67160293D01*
X81001129Y-67275410D01*
X80985892Y-67322849D01*
X80984238Y-67323219D01*
X80929168Y-67289112D01*
X80917279Y-67267488D01*
X80907033Y-67197456D01*
X80901655Y-67065824D01*
X80900597Y-66889720D01*
X80903309Y-66686274D01*
X80909240Y-66472613D01*
X80917841Y-66265867D01*
X80928563Y-66083162D01*
X80940855Y-65941628D01*
X80954168Y-65858392D01*
X80962975Y-65843628D01*
X80979863Y-65887970D01*
G37*
G36*
X81217887Y-65863660D02*
G01*
X81230906Y-65978379D01*
X81239479Y-66174744D01*
X81243469Y-66450434D01*
X81243758Y-66564717D01*
X81241356Y-66857151D01*
X81234379Y-67083754D01*
X81223168Y-67238540D01*
X81208062Y-67315525D01*
X81200560Y-67323219D01*
X81183691Y-67281103D01*
X81170674Y-67158944D01*
X81161880Y-66963022D01*
X81157679Y-66699617D01*
X81157363Y-66591414D01*
X81159867Y-66316816D01*
X81167005Y-66094539D01*
X81178215Y-65934447D01*
X81192936Y-65846402D01*
X81200560Y-65832912D01*
X81217887Y-65863660D01*
G37*
G36*
X89446769Y-65896260D02*
G01*
X89461619Y-66016918D01*
X89473621Y-66208683D01*
X89482203Y-66463917D01*
X89484659Y-66588781D01*
X89488150Y-66859456D01*
X89488006Y-67055366D01*
X89483359Y-67188096D01*
X89473340Y-67269229D01*
X89457083Y-67310352D01*
X89433719Y-67323050D01*
X89429642Y-67323219D01*
X89405163Y-67313717D01*
X89387917Y-67277489D01*
X89377038Y-67202950D01*
X89371657Y-67078514D01*
X89370907Y-66892598D01*
X89373919Y-66633615D01*
X89374625Y-66588781D01*
X89381592Y-66309061D01*
X89392221Y-66089589D01*
X89405939Y-65938002D01*
X89422176Y-65861935D01*
X89429642Y-65854344D01*
X89446769Y-65896260D01*
G37*
G36*
X89684554Y-65863660D02*
G01*
X89697573Y-65978379D01*
X89706145Y-66174744D01*
X89710136Y-66450434D01*
X89710424Y-66564717D01*
X89708023Y-66857151D01*
X89701046Y-67083754D01*
X89689834Y-67238540D01*
X89674729Y-67315525D01*
X89667227Y-67323219D01*
X89650358Y-67281103D01*
X89637341Y-67158944D01*
X89628546Y-66963022D01*
X89624346Y-66699617D01*
X89624030Y-66591414D01*
X89626534Y-66316816D01*
X89633672Y-66094539D01*
X89644882Y-65934447D01*
X89659603Y-65846402D01*
X89667227Y-65832912D01*
X89684554Y-65863660D01*
G37*
G36*
X100531343Y-66221688D02*
G01*
X100531343Y-66610463D01*
X100142567Y-66632062D01*
X99753792Y-66653661D01*
X99741175Y-66988440D01*
X99730680Y-67165464D01*
X99713483Y-67270303D01*
X99686392Y-67317098D01*
X99665580Y-67323219D01*
X99634622Y-67306641D01*
X99615365Y-67247327D01*
X99605472Y-67130906D01*
X99602603Y-66943007D01*
X99602601Y-66936260D01*
X99602601Y-66549302D01*
X99933913Y-66536685D01*
X100134185Y-66521879D01*
X100250481Y-66495731D01*
X100283650Y-66468396D01*
X100273670Y-66441970D01*
X100214069Y-66426877D01*
X100092675Y-66421753D01*
X99898341Y-66425199D01*
X99494608Y-66437674D01*
X99482297Y-66880446D01*
X99471354Y-67108871D01*
X99455286Y-67253198D01*
X99436626Y-67315382D01*
X99417902Y-67297380D01*
X99401645Y-67201147D01*
X99390385Y-67028642D01*
X99386615Y-66806472D01*
X99386615Y-66289726D01*
X99786189Y-66277306D01*
X100185764Y-66264885D01*
X100207363Y-66048899D01*
X100223004Y-65921268D01*
X100248355Y-65857499D01*
X100301143Y-65835432D01*
X100380152Y-65832912D01*
X100531343Y-65832912D01*
X100531343Y-66221688D01*
G37*
G36*
X112756172Y-66221688D02*
G01*
X112756172Y-66610463D01*
X112423178Y-66623048D01*
X112090185Y-66635632D01*
X112077600Y-66965159D01*
X112062881Y-67161886D01*
X112037152Y-67279045D01*
X112011019Y-67312552D01*
X111984067Y-67298655D01*
X111967154Y-67228248D01*
X111958721Y-67090508D01*
X111957023Y-66938043D01*
X111957023Y-66545668D01*
X112234272Y-66545668D01*
X112445133Y-66538776D01*
X112578147Y-66516978D01*
X112640844Y-66478589D01*
X112648179Y-66453030D01*
X112607924Y-66436202D01*
X112498590Y-66425935D01*
X112337328Y-66423422D01*
X112248604Y-66425254D01*
X111849030Y-66437674D01*
X111836719Y-66880446D01*
X111827319Y-67076131D01*
X111812296Y-67223796D01*
X111793501Y-67308631D01*
X111781367Y-67323219D01*
X111728863Y-67289108D01*
X111716484Y-67266302D01*
X111708512Y-67201268D01*
X111704332Y-67070929D01*
X111704334Y-66896307D01*
X111707040Y-66758734D01*
X111719438Y-66308082D01*
X112065016Y-66286484D01*
X112410594Y-66264885D01*
X112432193Y-66048899D01*
X112447834Y-65921268D01*
X112473184Y-65857499D01*
X112525973Y-65835432D01*
X112604982Y-65832912D01*
X112756172Y-65832912D01*
X112756172Y-66221688D01*
G37*
G36*
X71934863Y-65859575D02*
G01*
X71949329Y-65967210D01*
X71955965Y-66150653D01*
X71956343Y-66219139D01*
X71956343Y-66632062D01*
X71025980Y-66632062D01*
X70095618Y-66632062D01*
X70108038Y-66232487D01*
X70120397Y-66024085D01*
X70140004Y-65896317D01*
X70163813Y-65850290D01*
X70188777Y-65887111D01*
X70211852Y-66007885D01*
X70228451Y-66188751D01*
X70250050Y-66524069D01*
X70962805Y-66536402D01*
X71209163Y-66539153D01*
X71430938Y-66538810D01*
X71611197Y-66535618D01*
X71733004Y-66529818D01*
X71772754Y-66524780D01*
X71822691Y-66505595D01*
X71851814Y-66465600D01*
X71865663Y-66385152D01*
X71869781Y-66244609D01*
X71869948Y-66180217D01*
X71875385Y-66021618D01*
X71889738Y-65898878D01*
X71910065Y-65835628D01*
X71913145Y-65832912D01*
X71934863Y-65859575D01*
G37*
G36*
X70408971Y-65887451D02*
G01*
X70434946Y-65990410D01*
X70444438Y-66058638D01*
X70466036Y-66264885D01*
X71036100Y-66276922D01*
X71606164Y-66288959D01*
X71619263Y-66071168D01*
X71636793Y-65925890D01*
X71662318Y-65862076D01*
X71689028Y-65876079D01*
X71710111Y-65964246D01*
X71718757Y-66122927D01*
X71718758Y-66124494D01*
X71718758Y-66394477D01*
X71037467Y-66406378D01*
X70771415Y-66409657D01*
X70580098Y-66408228D01*
X70451945Y-66401297D01*
X70375385Y-66388070D01*
X70338847Y-66367754D01*
X70333058Y-66358032D01*
X70319361Y-66275899D01*
X70318395Y-66156642D01*
X70327682Y-66027670D01*
X70344744Y-65916394D01*
X70367104Y-65850224D01*
X70379642Y-65842652D01*
X70408971Y-65887451D01*
G37*
G36*
X67561019Y-64179596D02*
G01*
X68306172Y-64191416D01*
X68317992Y-64936569D01*
X68329811Y-65681722D01*
X67572839Y-65681722D01*
X66815866Y-65681722D01*
X66815866Y-64924749D01*
X66815866Y-64167777D01*
X67561019Y-64179596D01*
G37*
G36*
X68646827Y-64211979D02*
G01*
X68659742Y-64334454D01*
X68668556Y-64531231D01*
X68672923Y-64796297D01*
X68673349Y-64925770D01*
X68670940Y-65217573D01*
X68663942Y-65443599D01*
X68652697Y-65597835D01*
X68637550Y-65674267D01*
X68630152Y-65681722D01*
X68613478Y-65639561D01*
X68600562Y-65517085D01*
X68591748Y-65320308D01*
X68587381Y-65055242D01*
X68586955Y-64925770D01*
X68589364Y-64633966D01*
X68596363Y-64407940D01*
X68607607Y-64253704D01*
X68622754Y-64177272D01*
X68630152Y-64169817D01*
X68646827Y-64211979D01*
G37*
G36*
X68886077Y-64253245D02*
G01*
X68899704Y-64362688D01*
X68908756Y-64524130D01*
X68913372Y-64720442D01*
X68913692Y-64934495D01*
X68909854Y-65149158D01*
X68901998Y-65347302D01*
X68890262Y-65511798D01*
X68874786Y-65625517D01*
X68855901Y-65671268D01*
X68835438Y-65660978D01*
X68821267Y-65607774D01*
X68812808Y-65501961D01*
X68809477Y-65333842D01*
X68810694Y-65093722D01*
X68812704Y-64951230D01*
X68819657Y-64670476D01*
X68830252Y-64450117D01*
X68843925Y-64297724D01*
X68860111Y-64220869D01*
X68867737Y-64212931D01*
X68886077Y-64253245D01*
G37*
G36*
X69569693Y-64178009D02*
G01*
X69731683Y-64191416D01*
X69744739Y-64418202D01*
X69758932Y-64544944D01*
X69781384Y-64627256D01*
X69797913Y-64644987D01*
X69837661Y-64607288D01*
X69869310Y-64516160D01*
X69883271Y-64404554D01*
X69881407Y-64358086D01*
X69875451Y-64292333D01*
X69880880Y-64243914D01*
X69908788Y-64210390D01*
X69970267Y-64189323D01*
X70076412Y-64178271D01*
X70238317Y-64174797D01*
X70467075Y-64176459D01*
X70692822Y-64179663D01*
X71502771Y-64191416D01*
X71502771Y-64925770D01*
X71502771Y-65660123D01*
X70695953Y-65671864D01*
X70372916Y-65674098D01*
X70125847Y-65670403D01*
X69957788Y-65660900D01*
X69871782Y-65645709D01*
X69861382Y-65638698D01*
X69847266Y-65573440D01*
X69839966Y-65452199D01*
X69840190Y-65346175D01*
X69843210Y-65201115D01*
X69844082Y-65088109D01*
X69843214Y-65044562D01*
X69798578Y-65007759D01*
X69672746Y-64991389D01*
X69623689Y-64990565D01*
X69407703Y-64990565D01*
X69407703Y-64817776D01*
X69537295Y-64817776D01*
X69575269Y-64846328D01*
X69668644Y-64860601D01*
X69688485Y-64860974D01*
X69788418Y-64850124D01*
X69838370Y-64823445D01*
X69839676Y-64817776D01*
X69801702Y-64789224D01*
X69708327Y-64774952D01*
X69688485Y-64774579D01*
X69588553Y-64785429D01*
X69538601Y-64812107D01*
X69537295Y-64817776D01*
X69407703Y-64817776D01*
X69407703Y-64577584D01*
X69407703Y-64164602D01*
X69569693Y-64178009D01*
G37*
G36*
X72702192Y-64178008D02*
G01*
X72767216Y-64213025D01*
X72802977Y-64296833D01*
X72817610Y-64443802D01*
X72819627Y-64565859D01*
X72818202Y-64758565D01*
X72802379Y-64881883D01*
X72756436Y-64951293D01*
X72664650Y-64982277D01*
X72511300Y-64990316D01*
X72388315Y-64990565D01*
X72192263Y-64992445D01*
X72066831Y-65008154D01*
X71996253Y-65052798D01*
X71964765Y-65141483D01*
X71956602Y-65289315D01*
X71956343Y-65404473D01*
X71949852Y-65556281D01*
X71932286Y-65654139D01*
X71911524Y-65681722D01*
X71889609Y-65639864D01*
X71878259Y-65518474D01*
X71877981Y-65323828D01*
X71879126Y-65282147D01*
X71891547Y-64882572D01*
X72226326Y-64869956D01*
X72417819Y-64857020D01*
X72526230Y-64838201D01*
X72554359Y-64817030D01*
X72505002Y-64797036D01*
X72380959Y-64781752D01*
X72185028Y-64774707D01*
X72150730Y-64774579D01*
X71740356Y-64774579D01*
X71740356Y-65228151D01*
X71736263Y-65444521D01*
X71724546Y-65595746D01*
X71706052Y-65673216D01*
X71695803Y-65681722D01*
X71641889Y-65647575D01*
X71629409Y-65624805D01*
X71621438Y-65559771D01*
X71617257Y-65429432D01*
X71617259Y-65254810D01*
X71619965Y-65117237D01*
X71632363Y-64666586D01*
X72029736Y-64654195D01*
X72427108Y-64641803D01*
X72440110Y-64416610D01*
X72450537Y-64285043D01*
X72472410Y-64216582D01*
X72521212Y-64188035D01*
X72599772Y-64177412D01*
X72702192Y-64178008D01*
G37*
G36*
X74548179Y-64924816D02*
G01*
X74548179Y-65681722D01*
X73747674Y-65681722D01*
X73449289Y-65680287D01*
X73227932Y-65675563D01*
X73074278Y-65666915D01*
X72979002Y-65653712D01*
X72932778Y-65635322D01*
X72925783Y-65625991D01*
X72919211Y-65565498D01*
X72914973Y-65434706D01*
X72913273Y-65249688D01*
X72914312Y-65026513D01*
X72916339Y-64880838D01*
X72928281Y-64191416D01*
X73738230Y-64179663D01*
X74548179Y-64167911D01*
X74548179Y-64924816D01*
G37*
G36*
X75023349Y-64923162D02*
G01*
X75023349Y-65681722D01*
X74849540Y-65681722D01*
X74675731Y-65681722D01*
X74687550Y-64936569D01*
X74699370Y-64191416D01*
X74861360Y-64178009D01*
X75023349Y-64164602D01*
X75023349Y-64923162D01*
G37*
G36*
X76027686Y-64179596D02*
G01*
X76772839Y-64191416D01*
X76784659Y-64936569D01*
X76796478Y-65681722D01*
X76039505Y-65681722D01*
X75282533Y-65681722D01*
X75282533Y-64924749D01*
X75282533Y-64167777D01*
X76027686Y-64179596D01*
G37*
G36*
X79915441Y-64179596D02*
G01*
X80660594Y-64191416D01*
X80672414Y-64936569D01*
X80684233Y-65681722D01*
X79927261Y-65681722D01*
X79170288Y-65681722D01*
X79170288Y-65404473D01*
X79171329Y-65266741D01*
X79167259Y-65163384D01*
X79147291Y-65089494D01*
X79100640Y-65040165D01*
X79016518Y-65010490D01*
X78884137Y-64995562D01*
X78692712Y-64990476D01*
X78431455Y-64990323D01*
X78260341Y-64990565D01*
X77402834Y-64990565D01*
X77390217Y-65321878D01*
X77375411Y-65522150D01*
X77349263Y-65638445D01*
X77321928Y-65671614D01*
X77295503Y-65661634D01*
X77280410Y-65602034D01*
X77275285Y-65480639D01*
X77278731Y-65286306D01*
X77291206Y-64882572D01*
X78209149Y-64870914D01*
X78532159Y-64864826D01*
X78791160Y-64855762D01*
X78980391Y-64844066D01*
X79094090Y-64830080D01*
X79127091Y-64816106D01*
X79084488Y-64801246D01*
X78958863Y-64790590D01*
X78753490Y-64784245D01*
X78471644Y-64782315D01*
X78144353Y-64784567D01*
X77161615Y-64796178D01*
X77149304Y-65238950D01*
X77138375Y-65467344D01*
X77122339Y-65611670D01*
X77103714Y-65673914D01*
X77085016Y-65656066D01*
X77068761Y-65560114D01*
X77057467Y-65388045D01*
X77053621Y-65163355D01*
X77053621Y-64644987D01*
X78085735Y-64644987D01*
X78419656Y-64645165D01*
X78677102Y-64643830D01*
X78867983Y-64638176D01*
X79002208Y-64625400D01*
X79089688Y-64602696D01*
X79140333Y-64567261D01*
X79164051Y-64516289D01*
X79170754Y-64446977D01*
X79170351Y-64356519D01*
X79170288Y-64338053D01*
X79170288Y-64167777D01*
X79915441Y-64179596D01*
G37*
G36*
X80979863Y-64246473D02*
G01*
X80994159Y-64359180D01*
X81005619Y-64523247D01*
X81013998Y-64721668D01*
X81019052Y-64937439D01*
X81020536Y-65153555D01*
X81018207Y-65353009D01*
X81011819Y-65518797D01*
X81001129Y-65633913D01*
X80985892Y-65681353D01*
X80984238Y-65681722D01*
X80929168Y-65647615D01*
X80917279Y-65625991D01*
X80907033Y-65555959D01*
X80901655Y-65424327D01*
X80900597Y-65248224D01*
X80903309Y-65044778D01*
X80909240Y-64831117D01*
X80917841Y-64624370D01*
X80928563Y-64441665D01*
X80940855Y-64300131D01*
X80954168Y-64216896D01*
X80962975Y-64202132D01*
X80979863Y-64246473D01*
G37*
G36*
X81217235Y-64211979D02*
G01*
X81230151Y-64334454D01*
X81238964Y-64531231D01*
X81243332Y-64796297D01*
X81243758Y-64925770D01*
X81241348Y-65217573D01*
X81234350Y-65443599D01*
X81223105Y-65597835D01*
X81207959Y-65674267D01*
X81200560Y-65681722D01*
X81183886Y-65639561D01*
X81170970Y-65517085D01*
X81162156Y-65320308D01*
X81157789Y-65055242D01*
X81157363Y-64925770D01*
X81159772Y-64633966D01*
X81166771Y-64407940D01*
X81178015Y-64253704D01*
X81193162Y-64177272D01*
X81200560Y-64169817D01*
X81217235Y-64211979D01*
G37*
G36*
X83014846Y-64924816D02*
G01*
X83014846Y-65681722D01*
X82193078Y-65681722D01*
X81371309Y-65681722D01*
X81383129Y-64936569D01*
X81394948Y-64191416D01*
X82204897Y-64179663D01*
X83014846Y-64167911D01*
X83014846Y-64924816D01*
G37*
G36*
X83490016Y-64923162D02*
G01*
X83490016Y-65681722D01*
X83316207Y-65681722D01*
X83142398Y-65681722D01*
X83154217Y-64936569D01*
X83166036Y-64191416D01*
X83328026Y-64178009D01*
X83490016Y-64164602D01*
X83490016Y-64923162D01*
G37*
G36*
X88367091Y-64179078D02*
G01*
X88396123Y-64179538D01*
X89127261Y-64191416D01*
X89139080Y-64936569D01*
X89150900Y-65681722D01*
X88401127Y-65681722D01*
X88154905Y-65680139D01*
X87939301Y-65675748D01*
X87768914Y-65669092D01*
X87658345Y-65660708D01*
X87622556Y-65652924D01*
X87611037Y-65599650D01*
X87602671Y-65478162D01*
X87597363Y-65306579D01*
X87595019Y-65103021D01*
X87595544Y-64885606D01*
X87598842Y-64672455D01*
X87604820Y-64481686D01*
X87613383Y-64331419D01*
X87624435Y-64239773D01*
X87630033Y-64222735D01*
X87665509Y-64201608D01*
X87747143Y-64187232D01*
X87884744Y-64179054D01*
X88088124Y-64176520D01*
X88367091Y-64179078D01*
G37*
G36*
X92205067Y-64179663D02*
G01*
X93015016Y-64191416D01*
X93028073Y-64418202D01*
X93041130Y-64644987D01*
X93319654Y-64644987D01*
X93598179Y-64644987D01*
X93598179Y-65163355D01*
X93598179Y-65681722D01*
X93427207Y-65681722D01*
X93256235Y-65681722D01*
X93243619Y-65346943D01*
X93235215Y-65177556D01*
X93221971Y-65076052D01*
X93198153Y-65023926D01*
X93158024Y-65002672D01*
X93135675Y-64998605D01*
X93087730Y-64997223D01*
X93058277Y-65021203D01*
X93041656Y-65087529D01*
X93032207Y-65213182D01*
X93027682Y-65322585D01*
X93015016Y-65660123D01*
X92205067Y-65671876D01*
X91395118Y-65683628D01*
X91395118Y-65405426D01*
X91395947Y-65262724D01*
X91390954Y-65157027D01*
X91368921Y-65082809D01*
X91318629Y-65034545D01*
X91228861Y-65006710D01*
X91088397Y-64993779D01*
X90886019Y-64990227D01*
X90610509Y-64990528D01*
X90552771Y-64990565D01*
X90263027Y-64990161D01*
X90048419Y-64992624D01*
X89897727Y-65003466D01*
X89799732Y-65028201D01*
X89743216Y-65072340D01*
X89716959Y-65141397D01*
X89709744Y-65240883D01*
X89710350Y-65376313D01*
X89710424Y-65404473D01*
X89703934Y-65556281D01*
X89686368Y-65654139D01*
X89665606Y-65681722D01*
X89643691Y-65639864D01*
X89632341Y-65518474D01*
X89632063Y-65323828D01*
X89633208Y-65282147D01*
X89645628Y-64882572D01*
X90498775Y-64870860D01*
X90797304Y-64864686D01*
X91039654Y-64855395D01*
X91217900Y-64843487D01*
X91324121Y-64829465D01*
X91349907Y-64817776D01*
X93036615Y-64817776D01*
X93074937Y-64844827D01*
X93170671Y-64859872D01*
X93209404Y-64860974D01*
X93317605Y-64851393D01*
X93377787Y-64827459D01*
X93382193Y-64817776D01*
X93343870Y-64790726D01*
X93248136Y-64775681D01*
X93209404Y-64774579D01*
X93101203Y-64784160D01*
X93041021Y-64808093D01*
X93036615Y-64817776D01*
X91349907Y-64817776D01*
X91351921Y-64816863D01*
X91309789Y-64802228D01*
X91187582Y-64790397D01*
X90991583Y-64781655D01*
X90728074Y-64776289D01*
X90423179Y-64774579D01*
X89494438Y-64774579D01*
X89494438Y-65228151D01*
X89490344Y-65444521D01*
X89478628Y-65595746D01*
X89460134Y-65673216D01*
X89449885Y-65681722D01*
X89395971Y-65647575D01*
X89383491Y-65624805D01*
X89375519Y-65559771D01*
X89371339Y-65429432D01*
X89371341Y-65254810D01*
X89374047Y-65117237D01*
X89386445Y-64666586D01*
X90356359Y-64654937D01*
X90699223Y-64649372D01*
X90962662Y-64641622D01*
X91153625Y-64631241D01*
X91279065Y-64617777D01*
X91345933Y-64600784D01*
X91360034Y-64590141D01*
X91381332Y-64515874D01*
X91393454Y-64395031D01*
X91394457Y-64352452D01*
X91395118Y-64167911D01*
X92205067Y-64179663D01*
G37*
G36*
X95359488Y-64936569D02*
G01*
X95371308Y-65681722D01*
X94548519Y-65681722D01*
X93725731Y-65681722D01*
X93737550Y-64936569D01*
X93749370Y-64191416D01*
X94548519Y-64191416D01*
X95347669Y-64191416D01*
X95359488Y-64936569D01*
G37*
G36*
X95574615Y-64187282D02*
G01*
X95598583Y-64245938D01*
X95614010Y-64355179D01*
X95621770Y-64524398D01*
X95622737Y-64762986D01*
X95619235Y-65008617D01*
X95611677Y-65281327D01*
X95600555Y-65475684D01*
X95585069Y-65599684D01*
X95564418Y-65661324D01*
X95552856Y-65670976D01*
X95532591Y-65658617D01*
X95517744Y-65600055D01*
X95507651Y-65486185D01*
X95501650Y-65307902D01*
X95499077Y-65056102D01*
X95498860Y-64929369D01*
X95501197Y-64645055D01*
X95507927Y-64420409D01*
X95518625Y-64263046D01*
X95532865Y-64180582D01*
X95541234Y-64169817D01*
X95574615Y-64187282D01*
G37*
G36*
X95796530Y-64246473D02*
G01*
X95810826Y-64359180D01*
X95822286Y-64523247D01*
X95830665Y-64721668D01*
X95835719Y-64937439D01*
X95837203Y-65153555D01*
X95834874Y-65353009D01*
X95828486Y-65518797D01*
X95817796Y-65633913D01*
X95802558Y-65681353D01*
X95800905Y-65681722D01*
X95745834Y-65647615D01*
X95733946Y-65625991D01*
X95723700Y-65555959D01*
X95718322Y-65424327D01*
X95717264Y-65248224D01*
X95719975Y-65044778D01*
X95725906Y-64831117D01*
X95734508Y-64624370D01*
X95745229Y-64441665D01*
X95757522Y-64300131D01*
X95770835Y-64216896D01*
X95779642Y-64202132D01*
X95796530Y-64246473D01*
G37*
G36*
X99948179Y-64924816D02*
G01*
X99948179Y-65681722D01*
X99126411Y-65681722D01*
X98304643Y-65681722D01*
X98316462Y-64936569D01*
X98328281Y-64191416D01*
X99138230Y-64179663D01*
X99948179Y-64167911D01*
X99948179Y-64924816D01*
G37*
G36*
X100369353Y-64178009D02*
G01*
X100531343Y-64191416D01*
X100543162Y-64936569D01*
X100554981Y-65681722D01*
X100381172Y-65681722D01*
X100207363Y-65681722D01*
X100207363Y-64923162D01*
X100207363Y-64164602D01*
X100369353Y-64178009D01*
G37*
G36*
X105347839Y-64924816D02*
G01*
X105347839Y-65681722D01*
X104547334Y-65681722D01*
X104248949Y-65680287D01*
X104027592Y-65675563D01*
X103873938Y-65666915D01*
X103778662Y-65653712D01*
X103732437Y-65635322D01*
X103725443Y-65625991D01*
X103718871Y-65565498D01*
X103714633Y-65434706D01*
X103712932Y-65249688D01*
X103713972Y-65026513D01*
X103715999Y-64880838D01*
X103727941Y-64191416D01*
X104537890Y-64179663D01*
X105347839Y-64167911D01*
X105347839Y-64924816D01*
G37*
G36*
X105823009Y-64923162D02*
G01*
X105823009Y-65681722D01*
X105649200Y-65681722D01*
X105475391Y-65681722D01*
X105487210Y-64936569D01*
X105499030Y-64191416D01*
X105661019Y-64178009D01*
X105823009Y-64164602D01*
X105823009Y-64923162D01*
G37*
G36*
X109235594Y-64924816D02*
G01*
X109235594Y-65681722D01*
X108413826Y-65681722D01*
X107592058Y-65681722D01*
X107603877Y-64936569D01*
X107615696Y-64191416D01*
X108425645Y-64179663D01*
X109235594Y-64167911D01*
X109235594Y-64924816D01*
G37*
G36*
X109448322Y-64253245D02*
G01*
X109461949Y-64362688D01*
X109471001Y-64524130D01*
X109475617Y-64720442D01*
X109475937Y-64934495D01*
X109472099Y-65149158D01*
X109464243Y-65347302D01*
X109452507Y-65511798D01*
X109437031Y-65625517D01*
X109418146Y-65671268D01*
X109397683Y-65660978D01*
X109383512Y-65607774D01*
X109375053Y-65501961D01*
X109371722Y-65333842D01*
X109372939Y-65093722D01*
X109374948Y-64951230D01*
X109381902Y-64670476D01*
X109392497Y-64450117D01*
X109406170Y-64297724D01*
X109422356Y-64220869D01*
X109429982Y-64212931D01*
X109448322Y-64253245D01*
G37*
G36*
X109662856Y-64246473D02*
G01*
X109677152Y-64359180D01*
X109688612Y-64523247D01*
X109696991Y-64721668D01*
X109702045Y-64937439D01*
X109703530Y-65153555D01*
X109701200Y-65353009D01*
X109694812Y-65518797D01*
X109684122Y-65633913D01*
X109668885Y-65681353D01*
X109667231Y-65681722D01*
X109612161Y-65647615D01*
X109600272Y-65625991D01*
X109590026Y-65555959D01*
X109584649Y-65424327D01*
X109583590Y-65248224D01*
X109586302Y-65044778D01*
X109592233Y-64831117D01*
X109600834Y-64624370D01*
X109611556Y-64441665D01*
X109623848Y-64300131D01*
X109637162Y-64216896D01*
X109645968Y-64202132D01*
X109662856Y-64246473D01*
G37*
G36*
X112292822Y-64936569D02*
G01*
X112304641Y-65681722D01*
X111481853Y-65681722D01*
X110659064Y-65681722D01*
X110670884Y-64936569D01*
X110682703Y-64191416D01*
X111481853Y-64191416D01*
X112281002Y-64191416D01*
X112292822Y-64936569D01*
G37*
G36*
X114540318Y-64418202D02*
G01*
X114553374Y-64644987D01*
X114831899Y-64644987D01*
X115110424Y-64644987D01*
X115110424Y-65163355D01*
X115105943Y-65403924D01*
X115094179Y-65570213D01*
X115077647Y-65660234D01*
X115058866Y-65671997D01*
X115040350Y-65603515D01*
X115024618Y-65452799D01*
X115014741Y-65238950D01*
X115002431Y-64796178D01*
X114775645Y-64783121D01*
X114639252Y-64785032D01*
X114563042Y-64803773D01*
X114553689Y-64830484D01*
X114617863Y-64856304D01*
X114710849Y-64869165D01*
X114872839Y-64882572D01*
X114885259Y-65282147D01*
X114889009Y-65473775D01*
X114884524Y-65594149D01*
X114869855Y-65658182D01*
X114843056Y-65680786D01*
X114833080Y-65681722D01*
X114798445Y-65662942D01*
X114775838Y-65596766D01*
X114761856Y-65468442D01*
X114755864Y-65346943D01*
X114747460Y-65177556D01*
X114734216Y-65076052D01*
X114710398Y-65023926D01*
X114670269Y-65002672D01*
X114647920Y-64998605D01*
X114599975Y-64997223D01*
X114570522Y-65021203D01*
X114553901Y-65087529D01*
X114544452Y-65213182D01*
X114539927Y-65322585D01*
X114527261Y-65660123D01*
X113771309Y-65660123D01*
X113015356Y-65660123D01*
X113002690Y-65322585D01*
X112994819Y-65153753D01*
X112983132Y-65054314D01*
X112961968Y-65007286D01*
X112925666Y-64995686D01*
X112894697Y-64998605D01*
X112846278Y-65012586D01*
X112816505Y-65049898D01*
X112799645Y-65129047D01*
X112789961Y-65268538D01*
X112786753Y-65346943D01*
X112774137Y-65681722D01*
X112603165Y-65681722D01*
X112432193Y-65681722D01*
X112432193Y-65163355D01*
X112432193Y-64817776D01*
X112648179Y-64817776D01*
X112686502Y-64844827D01*
X112782236Y-64859872D01*
X112820968Y-64860974D01*
X112929169Y-64851393D01*
X112989351Y-64827459D01*
X112993758Y-64817776D01*
X112955435Y-64790726D01*
X112859701Y-64775681D01*
X112820968Y-64774579D01*
X112712767Y-64784160D01*
X112652585Y-64808093D01*
X112648179Y-64817776D01*
X112432193Y-64817776D01*
X112432193Y-64644987D01*
X112710718Y-64644987D01*
X112989243Y-64644987D01*
X113002299Y-64418202D01*
X113015356Y-64191416D01*
X113771309Y-64191416D01*
X114527261Y-64191416D01*
X114540318Y-64418202D01*
G37*
G36*
X68327771Y-63284273D02*
G01*
X68327771Y-64040225D01*
X67571819Y-64040225D01*
X66815866Y-64040225D01*
X66815866Y-63284273D01*
X66815866Y-62528321D01*
X67571819Y-62528321D01*
X68327771Y-62528321D01*
X68327771Y-63284273D01*
G37*
G36*
X72205747Y-63295072D02*
G01*
X72217566Y-64040225D01*
X70683043Y-64040225D01*
X69148519Y-64040225D01*
X69148519Y-63694647D01*
X69147323Y-63523236D01*
X69140124Y-63420597D01*
X69121507Y-63369106D01*
X69086060Y-63351142D01*
X69042343Y-63349069D01*
X68988609Y-63353695D01*
X68955987Y-63379551D01*
X68938036Y-63444600D01*
X68928316Y-63566806D01*
X68923551Y-63680381D01*
X68908745Y-63880653D01*
X68882597Y-63996948D01*
X68855262Y-64030118D01*
X68828836Y-64020137D01*
X68813743Y-63960537D01*
X68808618Y-63839143D01*
X68812064Y-63644809D01*
X68824540Y-63241076D01*
X68986530Y-63227669D01*
X69106519Y-63207797D01*
X69148280Y-63180791D01*
X69118483Y-63155513D01*
X69023801Y-63140821D01*
X68921734Y-63141624D01*
X68694948Y-63154681D01*
X68682637Y-63597453D01*
X68671690Y-63825887D01*
X68655614Y-63970213D01*
X68636944Y-64032381D01*
X68618212Y-64014337D01*
X68601955Y-63918028D01*
X68590705Y-63745403D01*
X68586955Y-63523919D01*
X68586955Y-63007613D01*
X68856938Y-62994753D01*
X69126921Y-62981892D01*
X69148519Y-62765906D01*
X69170118Y-62549919D01*
X70682023Y-62549919D01*
X72193928Y-62549919D01*
X72205747Y-63295072D01*
G37*
G36*
X74548179Y-63284273D02*
G01*
X74548179Y-64042132D01*
X73738230Y-64030379D01*
X72928281Y-64018627D01*
X72915665Y-63683848D01*
X72905026Y-63526139D01*
X72888139Y-63408400D01*
X72868242Y-63351403D01*
X72863485Y-63349069D01*
X72843351Y-63388801D01*
X72825466Y-63494150D01*
X72813070Y-63644344D01*
X72811306Y-63683848D01*
X72798689Y-64018627D01*
X72636353Y-64032054D01*
X72504763Y-64026105D01*
X72451166Y-63985937D01*
X72442770Y-63919740D01*
X72438256Y-63788390D01*
X72438058Y-63613060D01*
X72440714Y-63475740D01*
X72448952Y-63176280D01*
X72561104Y-63176280D01*
X72599427Y-63203330D01*
X72695161Y-63218376D01*
X72733894Y-63219477D01*
X72842095Y-63209896D01*
X72902277Y-63185963D01*
X72906683Y-63176280D01*
X72868360Y-63149230D01*
X72772626Y-63134184D01*
X72733894Y-63133082D01*
X72625693Y-63142663D01*
X72565510Y-63166597D01*
X72561104Y-63176280D01*
X72448952Y-63176280D01*
X72453111Y-63025089D01*
X72669098Y-63003491D01*
X72885084Y-62981892D01*
X72906683Y-62765906D01*
X72928281Y-62549919D01*
X73738230Y-62538167D01*
X74548179Y-62526414D01*
X74548179Y-63284273D01*
G37*
G36*
X75023349Y-63281665D02*
G01*
X75023349Y-64040225D01*
X74849540Y-64040225D01*
X74675731Y-64040225D01*
X74687550Y-63295072D01*
X74699370Y-62549919D01*
X74861360Y-62536512D01*
X75023349Y-62523105D01*
X75023349Y-63281665D01*
G37*
G36*
X77971564Y-62538793D02*
G01*
X80660594Y-62549919D01*
X80672414Y-63295072D01*
X80684233Y-64040225D01*
X77983383Y-64040225D01*
X75282533Y-64040225D01*
X75282533Y-63283946D01*
X75282533Y-62527667D01*
X77971564Y-62538793D01*
G37*
G36*
X80994039Y-62551428D02*
G01*
X81008887Y-62609987D01*
X81018979Y-62723853D01*
X81024981Y-62902132D01*
X81027553Y-63153928D01*
X81027771Y-63280673D01*
X81025270Y-63587037D01*
X81017885Y-63817096D01*
X81005792Y-63967829D01*
X80989170Y-64036217D01*
X80983218Y-64040225D01*
X80929105Y-64006143D01*
X80917279Y-63984495D01*
X80910694Y-63923957D01*
X80906454Y-63793172D01*
X80904766Y-63608260D01*
X80905835Y-63385341D01*
X80907836Y-63242894D01*
X80914827Y-62961766D01*
X80925061Y-62758903D01*
X80939295Y-62626211D01*
X80958287Y-62555596D01*
X80973775Y-62539072D01*
X80994039Y-62551428D01*
G37*
G36*
X81217235Y-62570482D02*
G01*
X81230151Y-62692958D01*
X81238964Y-62889735D01*
X81243332Y-63154800D01*
X81243758Y-63284273D01*
X81241348Y-63576077D01*
X81234350Y-63802103D01*
X81223105Y-63956338D01*
X81207959Y-64032771D01*
X81200560Y-64040225D01*
X81183886Y-63998064D01*
X81170970Y-63875588D01*
X81162156Y-63678811D01*
X81157789Y-63413746D01*
X81157363Y-63284273D01*
X81159772Y-62992469D01*
X81166771Y-62766443D01*
X81178015Y-62612207D01*
X81193162Y-62535775D01*
X81200560Y-62528321D01*
X81217235Y-62570482D01*
G37*
G36*
X83014846Y-63283320D02*
G01*
X83014846Y-64040225D01*
X82214341Y-64040225D01*
X81915955Y-64038791D01*
X81694599Y-64034066D01*
X81540945Y-64025418D01*
X81445668Y-64012216D01*
X81399444Y-63993825D01*
X81392449Y-63984495D01*
X81385878Y-63924001D01*
X81381640Y-63793210D01*
X81379939Y-63608191D01*
X81380979Y-63385016D01*
X81383006Y-63239342D01*
X81394948Y-62549919D01*
X82204897Y-62538167D01*
X83014846Y-62526414D01*
X83014846Y-63283320D01*
G37*
G36*
X83490016Y-63281665D02*
G01*
X83490016Y-64040225D01*
X83316207Y-64040225D01*
X83142398Y-64040225D01*
X83154217Y-63295072D01*
X83166036Y-62549919D01*
X83328026Y-62536512D01*
X83490016Y-62523105D01*
X83490016Y-63281665D01*
G37*
G36*
X92194268Y-63284273D02*
G01*
X92194268Y-64018627D01*
X89914402Y-64029809D01*
X89395780Y-64031989D01*
X88957465Y-64032951D01*
X88593379Y-64032575D01*
X88297442Y-64030743D01*
X88063574Y-64027336D01*
X87885695Y-64022236D01*
X87757727Y-64015323D01*
X87673588Y-64006479D01*
X87627201Y-63995586D01*
X87613004Y-63984877D01*
X87606383Y-63924247D01*
X87602102Y-63793331D01*
X87600369Y-63608210D01*
X87601391Y-63384966D01*
X87603414Y-63239342D01*
X87615356Y-62549919D01*
X89904812Y-62549919D01*
X92194268Y-62549919D01*
X92194268Y-63284273D01*
G37*
G36*
X93598179Y-62934466D02*
G01*
X93598179Y-63345827D01*
X93198604Y-63358247D01*
X92799030Y-63370668D01*
X92786360Y-63708423D01*
X92774814Y-63891499D01*
X92756006Y-63996114D01*
X92728371Y-64030012D01*
X92721564Y-64028960D01*
X92694707Y-63980464D01*
X92672649Y-63870435D01*
X92657258Y-63723685D01*
X92650398Y-63565027D01*
X92653937Y-63419271D01*
X92668062Y-63317574D01*
X92687448Y-63267187D01*
X92727238Y-63237802D01*
X92807125Y-63223824D01*
X92946806Y-63219654D01*
X93013290Y-63219477D01*
X93171888Y-63214040D01*
X93294629Y-63199687D01*
X93357878Y-63179360D01*
X93360594Y-63176280D01*
X93333959Y-63154534D01*
X93226377Y-63140063D01*
X93043036Y-63133448D01*
X92975879Y-63133082D01*
X92564467Y-63133082D01*
X92552156Y-63572346D01*
X92541290Y-63800780D01*
X92523338Y-63948457D01*
X92497514Y-64020785D01*
X92485849Y-64029518D01*
X92461958Y-64016526D01*
X92445784Y-63952064D01*
X92436224Y-63825873D01*
X92432176Y-63627698D01*
X92431853Y-63527079D01*
X92431853Y-63006733D01*
X92831428Y-62994312D01*
X93231002Y-62981892D01*
X93252601Y-62765906D01*
X93268450Y-62637991D01*
X93295165Y-62572543D01*
X93351599Y-62546004D01*
X93436189Y-62536512D01*
X93598179Y-62523105D01*
X93598179Y-62934466D01*
G37*
G36*
X95369268Y-63283320D02*
G01*
X95369268Y-64040225D01*
X94547499Y-64040225D01*
X93725731Y-64040225D01*
X93737550Y-63295072D01*
X93749370Y-62549919D01*
X94559319Y-62538167D01*
X95369268Y-62526414D01*
X95369268Y-63283320D01*
G37*
G36*
X95574615Y-62545785D02*
G01*
X95598583Y-62604442D01*
X95614010Y-62713683D01*
X95621770Y-62882901D01*
X95622737Y-63121490D01*
X95619235Y-63367121D01*
X95611677Y-63639831D01*
X95600555Y-63834188D01*
X95585069Y-63958187D01*
X95564418Y-64019827D01*
X95552856Y-64029479D01*
X95532591Y-64017121D01*
X95517744Y-63958559D01*
X95507651Y-63844689D01*
X95501650Y-63666406D01*
X95499077Y-63414605D01*
X95498860Y-63287873D01*
X95501197Y-63003559D01*
X95507927Y-62778912D01*
X95518625Y-62621550D01*
X95532865Y-62539086D01*
X95541234Y-62528321D01*
X95574615Y-62545785D01*
G37*
G36*
X95796530Y-62604977D02*
G01*
X95810826Y-62717683D01*
X95822286Y-62881750D01*
X95830665Y-63080172D01*
X95835719Y-63295943D01*
X95837203Y-63512058D01*
X95834874Y-63711512D01*
X95828486Y-63877300D01*
X95817796Y-63992416D01*
X95802558Y-64039856D01*
X95800905Y-64040225D01*
X95745834Y-64006119D01*
X95733946Y-63984495D01*
X95723700Y-63914462D01*
X95718322Y-63782830D01*
X95717264Y-63606727D01*
X95719975Y-63403281D01*
X95725906Y-63189620D01*
X95734508Y-62982873D01*
X95745229Y-62800169D01*
X95757522Y-62658634D01*
X95770835Y-62575399D01*
X95779642Y-62560635D01*
X95796530Y-62604977D01*
G37*
G36*
X99948179Y-63283320D02*
G01*
X99948179Y-64040225D01*
X99126411Y-64040225D01*
X98304643Y-64040225D01*
X98316462Y-63295072D01*
X98328281Y-62549919D01*
X99138230Y-62538167D01*
X99948179Y-62526414D01*
X99948179Y-63283320D01*
G37*
G36*
X100369353Y-62536512D02*
G01*
X100531343Y-62549919D01*
X100543162Y-63295072D01*
X100554981Y-64040225D01*
X100381172Y-64040225D01*
X100207363Y-64040225D01*
X100207363Y-63281665D01*
X100207363Y-62523105D01*
X100369353Y-62536512D01*
G37*
G36*
X105347839Y-63283320D02*
G01*
X105347839Y-64040225D01*
X104547334Y-64040225D01*
X104248949Y-64038791D01*
X104027592Y-64034066D01*
X103873938Y-64025418D01*
X103778662Y-64012216D01*
X103732437Y-63993825D01*
X103725443Y-63984495D01*
X103718871Y-63924001D01*
X103714633Y-63793210D01*
X103712932Y-63608191D01*
X103713972Y-63385016D01*
X103715999Y-63239342D01*
X103727941Y-62549919D01*
X104537890Y-62538167D01*
X105347839Y-62526414D01*
X105347839Y-63283320D01*
G37*
G36*
X105823009Y-63281665D02*
G01*
X105823009Y-64040225D01*
X105649200Y-64040225D01*
X105475391Y-64040225D01*
X105487210Y-63295072D01*
X105499030Y-62549919D01*
X105661019Y-62536512D01*
X105823009Y-62523105D01*
X105823009Y-63281665D01*
G37*
G36*
X109235594Y-63283320D02*
G01*
X109235594Y-64040225D01*
X108413826Y-64040225D01*
X107592058Y-64040225D01*
X107603877Y-63295072D01*
X107615696Y-62549919D01*
X108425645Y-62538167D01*
X109235594Y-62526414D01*
X109235594Y-63283320D01*
G37*
G36*
X109440412Y-62569986D02*
G01*
X109455788Y-62652213D01*
X109465948Y-62794619D01*
X109471531Y-63006017D01*
X109473179Y-63284273D01*
X109471413Y-63570753D01*
X109465687Y-63779717D01*
X109455364Y-63919982D01*
X109439804Y-64000362D01*
X109419183Y-64029426D01*
X109398961Y-64017098D01*
X109384132Y-63958628D01*
X109374038Y-63844926D01*
X109368019Y-63666905D01*
X109365418Y-63415473D01*
X109365186Y-63284273D01*
X109366535Y-62998918D01*
X109371022Y-62790833D01*
X109379305Y-62650928D01*
X109392043Y-62570114D01*
X109409894Y-62539302D01*
X109419183Y-62539120D01*
X109440412Y-62569986D01*
G37*
G36*
X109677032Y-62551428D02*
G01*
X109691880Y-62609987D01*
X109701973Y-62723853D01*
X109707974Y-62902132D01*
X109710547Y-63153928D01*
X109710764Y-63280673D01*
X109708263Y-63587037D01*
X109700878Y-63817096D01*
X109688785Y-63967829D01*
X109672163Y-64036217D01*
X109666211Y-64040225D01*
X109612098Y-64006143D01*
X109600272Y-63984495D01*
X109593687Y-63923957D01*
X109589447Y-63793172D01*
X109587760Y-63608260D01*
X109588829Y-63385341D01*
X109590829Y-63242894D01*
X109597820Y-62961766D01*
X109608054Y-62758903D01*
X109622288Y-62626211D01*
X109641280Y-62555596D01*
X109656768Y-62539072D01*
X109677032Y-62551428D01*
G37*
G36*
X113814506Y-63284273D02*
G01*
X113814506Y-64040225D01*
X112649996Y-64040225D01*
X111485487Y-64040225D01*
X111472870Y-63705446D01*
X111460254Y-63370668D01*
X111179472Y-63349069D01*
X110898689Y-63327470D01*
X110898689Y-62942294D01*
X110903519Y-62733130D01*
X110918655Y-62602578D01*
X110945075Y-62543361D01*
X110952686Y-62539120D01*
X110980993Y-62553424D01*
X110998107Y-62626606D01*
X111005807Y-62769573D01*
X111006683Y-62870299D01*
X111006683Y-63219477D01*
X111244268Y-63219477D01*
X111386159Y-63210560D01*
X111464857Y-63188801D01*
X111474378Y-63161686D01*
X111408738Y-63136701D01*
X111319863Y-63124891D01*
X111157873Y-63111484D01*
X111145100Y-62819902D01*
X111144120Y-62656119D01*
X111157012Y-62555265D01*
X111176675Y-62528321D01*
X111219442Y-62566142D01*
X111252641Y-62658107D01*
X111266413Y-62771962D01*
X111264400Y-62815222D01*
X111260815Y-62935783D01*
X111289970Y-62990313D01*
X111361236Y-62995950D01*
X111363060Y-62995696D01*
X111421185Y-62976421D01*
X111453079Y-62924808D01*
X111469053Y-62818351D01*
X111473311Y-62755106D01*
X111486368Y-62528321D01*
X112650437Y-62528321D01*
X113814506Y-62528321D01*
X113814506Y-63284273D01*
G37*
G36*
X115088105Y-62584726D02*
G01*
X115103366Y-62709141D01*
X115110316Y-62905647D01*
X115110424Y-62937074D01*
X115110424Y-63345827D01*
X114710849Y-63358247D01*
X114311275Y-63370668D01*
X114298658Y-63705446D01*
X114286042Y-64040225D01*
X114113699Y-64040225D01*
X113941356Y-64040225D01*
X113953526Y-63532657D01*
X113965696Y-63025089D01*
X114354472Y-63003491D01*
X114743247Y-62981892D01*
X114764846Y-62775645D01*
X114785654Y-62653318D01*
X114814263Y-62574331D01*
X114829642Y-62559658D01*
X114858734Y-62590533D01*
X114878057Y-62680499D01*
X114886952Y-62802734D01*
X114884761Y-62930416D01*
X114870827Y-63036723D01*
X114844492Y-63094833D01*
X114842800Y-63096016D01*
X114772861Y-63114362D01*
X114644914Y-63127488D01*
X114494863Y-63132421D01*
X114337498Y-63138976D01*
X114234945Y-63156094D01*
X114203281Y-63177901D01*
X114245139Y-63199816D01*
X114366529Y-63211166D01*
X114561175Y-63211444D01*
X114602856Y-63210299D01*
X115002431Y-63197878D01*
X115015047Y-62863099D01*
X115028004Y-62671586D01*
X115046870Y-62563191D01*
X115068088Y-62535157D01*
X115088105Y-62584726D01*
G37*
G36*
X69977810Y-61113610D02*
G01*
X69990866Y-61340395D01*
X70217652Y-61353452D01*
X70444438Y-61366509D01*
X70444438Y-61886219D01*
X70442263Y-62115581D01*
X70435003Y-62268899D01*
X70421555Y-62356434D01*
X70400813Y-62388444D01*
X70390441Y-62388071D01*
X70360347Y-62338172D01*
X70336660Y-62208670D01*
X70318912Y-61996668D01*
X70314846Y-61920101D01*
X70304041Y-61718505D01*
X70292182Y-61587395D01*
X70275251Y-61510913D01*
X70249226Y-61473199D01*
X70210090Y-61458396D01*
X70197296Y-61456346D01*
X70084049Y-61464053D01*
X70024506Y-61485839D01*
X69981633Y-61513338D01*
X69982096Y-61534820D01*
X70038766Y-61560231D01*
X70164515Y-61599517D01*
X70176147Y-61603017D01*
X70202419Y-61651392D01*
X70217924Y-61761233D01*
X70223323Y-61908367D01*
X70219276Y-62068623D01*
X70206442Y-62217832D01*
X70185482Y-62331822D01*
X70157055Y-62386421D01*
X70154727Y-62387420D01*
X70125118Y-62366934D01*
X70104653Y-62277325D01*
X70091764Y-62110838D01*
X70089931Y-62066926D01*
X70075701Y-61872851D01*
X70053685Y-61763777D01*
X70028272Y-61739822D01*
X70003849Y-61801103D01*
X69984807Y-61947736D01*
X69978250Y-62063950D01*
X69965634Y-62398729D01*
X68390750Y-62398729D01*
X66815866Y-62398729D01*
X66815866Y-61642776D01*
X66815866Y-60886824D01*
X68390310Y-60886824D01*
X69964753Y-60886824D01*
X69977810Y-61113610D01*
G37*
G36*
X74548179Y-61642776D02*
G01*
X74548179Y-62398729D01*
X72971479Y-62398729D01*
X71394778Y-62398729D01*
X71394778Y-61642776D01*
X71394778Y-60886824D01*
X72971479Y-60886824D01*
X74548179Y-60886824D01*
X74548179Y-61642776D01*
G37*
G36*
X75023349Y-61640169D02*
G01*
X75023349Y-62398729D01*
X74870803Y-62398729D01*
X74762667Y-62384356D01*
X74699944Y-62348864D01*
X74696871Y-62342998D01*
X74690300Y-62282505D01*
X74686062Y-62151713D01*
X74684361Y-61966695D01*
X74685401Y-61743520D01*
X74687427Y-61597845D01*
X74699370Y-60908423D01*
X74861360Y-60895016D01*
X75023349Y-60881609D01*
X75023349Y-61640169D01*
G37*
G36*
X76794438Y-61642776D02*
G01*
X76794438Y-62398729D01*
X76038485Y-62398729D01*
X75282533Y-62398729D01*
X75282533Y-61642776D01*
X75282533Y-60886824D01*
X76038485Y-60886824D01*
X76794438Y-60886824D01*
X76794438Y-61642776D01*
G37*
G36*
X79915441Y-60896603D02*
G01*
X80660594Y-60908423D01*
X80682193Y-61124409D01*
X80703792Y-61340395D01*
X80973775Y-61353256D01*
X81243758Y-61366117D01*
X81243758Y-61882423D01*
X81240286Y-62109350D01*
X81230425Y-62277163D01*
X81215006Y-62375930D01*
X81200560Y-62398729D01*
X81180776Y-62357540D01*
X81166387Y-62241797D01*
X81158513Y-62063235D01*
X81157363Y-61945980D01*
X81156505Y-61743955D01*
X81151597Y-61612018D01*
X81139137Y-61533864D01*
X81115624Y-61493189D01*
X81077555Y-61473688D01*
X81054589Y-61467437D01*
X80924343Y-61451601D01*
X80800320Y-61462718D01*
X80713698Y-61496144D01*
X80693646Y-61521217D01*
X80719999Y-61560171D01*
X80821288Y-61584081D01*
X80841505Y-61586013D01*
X81006172Y-61599579D01*
X81018648Y-62003312D01*
X81022092Y-62198327D01*
X81016926Y-62319426D01*
X81001787Y-62378783D01*
X80975451Y-62388621D01*
X80940554Y-62334344D01*
X80917251Y-62197379D01*
X80907162Y-62038884D01*
X80899261Y-61871718D01*
X80887127Y-61772968D01*
X80864419Y-61724681D01*
X80824800Y-61708903D01*
X80790186Y-61707572D01*
X80737565Y-61712378D01*
X80705489Y-61738704D01*
X80687715Y-61804412D01*
X80678003Y-61927365D01*
X80673211Y-62042351D01*
X80660594Y-62377130D01*
X79915441Y-62388949D01*
X79170288Y-62400769D01*
X79170288Y-62122499D01*
X79171335Y-61984427D01*
X79167284Y-61880813D01*
X79147350Y-61806740D01*
X79100746Y-61757288D01*
X79016684Y-61727540D01*
X78884380Y-61712576D01*
X78693045Y-61707478D01*
X78431895Y-61707328D01*
X78260341Y-61707572D01*
X77402834Y-61707572D01*
X77390217Y-62038884D01*
X77375411Y-62239156D01*
X77349263Y-62355452D01*
X77321928Y-62388621D01*
X77295503Y-62378641D01*
X77280410Y-62319041D01*
X77275285Y-62197646D01*
X77278731Y-62003312D01*
X77291206Y-61599579D01*
X78212459Y-61587911D01*
X78531948Y-61582694D01*
X78773080Y-61575812D01*
X78943887Y-61566690D01*
X79052398Y-61554751D01*
X79106646Y-61539419D01*
X79116034Y-61523115D01*
X79084244Y-61503409D01*
X78998502Y-61487756D01*
X78851380Y-61475614D01*
X78635447Y-61466445D01*
X78343273Y-61459709D01*
X78216380Y-61457753D01*
X77943180Y-61455166D01*
X77694643Y-61455071D01*
X77485512Y-61457294D01*
X77330529Y-61461660D01*
X77244438Y-61467995D01*
X77237210Y-61469376D01*
X77193842Y-61484584D01*
X77165756Y-61515446D01*
X77149642Y-61578188D01*
X77142192Y-61689037D01*
X77140097Y-61864220D01*
X77140016Y-61945980D01*
X77136086Y-62153333D01*
X77125043Y-62304144D01*
X77108006Y-62386679D01*
X77096819Y-62398729D01*
X77077857Y-62357227D01*
X77063828Y-62239307D01*
X77055554Y-62054848D01*
X77053621Y-61880361D01*
X77053621Y-61361994D01*
X78060118Y-61361994D01*
X78416257Y-61360487D01*
X78692346Y-61355758D01*
X78894683Y-61347501D01*
X79029563Y-61335407D01*
X79103283Y-61319166D01*
X79118451Y-61310157D01*
X79150715Y-61237040D01*
X79168847Y-61116680D01*
X79170288Y-61071552D01*
X79170288Y-60884784D01*
X79915441Y-60896603D01*
G37*
G36*
X83014846Y-61641823D02*
G01*
X83014846Y-62398729D01*
X82214341Y-62398729D01*
X81915955Y-62397294D01*
X81694599Y-62392569D01*
X81540945Y-62383922D01*
X81445668Y-62370719D01*
X81399444Y-62352329D01*
X81392449Y-62342998D01*
X81385878Y-62282505D01*
X81381640Y-62151713D01*
X81379939Y-61966695D01*
X81380979Y-61743520D01*
X81383006Y-61597845D01*
X81394948Y-60908423D01*
X82204897Y-60896670D01*
X83014846Y-60884918D01*
X83014846Y-61641823D01*
G37*
G36*
X87101526Y-60905261D02*
G01*
X87127146Y-60987345D01*
X87139859Y-61138111D01*
X87140186Y-61171206D01*
X87140186Y-61426790D01*
X85286287Y-61448389D01*
X84814070Y-61454451D01*
X84422183Y-61460817D01*
X84104560Y-61467730D01*
X83855135Y-61475435D01*
X83667845Y-61484179D01*
X83536623Y-61494204D01*
X83455404Y-61505757D01*
X83418124Y-61519083D01*
X83414405Y-61523984D01*
X83426588Y-61537316D01*
X83476914Y-61548407D01*
X83571556Y-61557432D01*
X83716683Y-61564564D01*
X83918465Y-61569979D01*
X84183074Y-61573853D01*
X84516679Y-61576358D01*
X84925451Y-61577671D01*
X85320484Y-61577980D01*
X87244545Y-61577980D01*
X87257162Y-61246668D01*
X87271968Y-61046396D01*
X87298116Y-60930101D01*
X87325451Y-60896932D01*
X87351876Y-60906912D01*
X87366969Y-60966512D01*
X87372094Y-61087907D01*
X87368648Y-61282240D01*
X87356172Y-61685974D01*
X85433894Y-61707572D01*
X83511615Y-61729171D01*
X83498998Y-62063950D01*
X83486382Y-62398729D01*
X83315410Y-62398729D01*
X83144438Y-62398729D01*
X83144438Y-61880806D01*
X83144438Y-61362883D01*
X85077516Y-61351639D01*
X87010594Y-61340395D01*
X87023749Y-61110795D01*
X87042175Y-60963016D01*
X87070652Y-60895828D01*
X87101526Y-60905261D01*
G37*
G36*
X89127261Y-61642776D02*
G01*
X89127261Y-62377130D01*
X88381145Y-62388954D01*
X88097448Y-62392050D01*
X87889747Y-62390634D01*
X87747734Y-62384102D01*
X87661100Y-62371850D01*
X87619535Y-62353275D01*
X87613250Y-62344022D01*
X87606544Y-62283163D01*
X87602192Y-62152037D01*
X87600406Y-61966744D01*
X87601398Y-61743385D01*
X87603414Y-61597845D01*
X87615356Y-60908423D01*
X88371309Y-60908423D01*
X89127261Y-60908423D01*
X89127261Y-61642776D01*
G37*
G36*
X92205067Y-60896670D02*
G01*
X93015016Y-60908423D01*
X93036615Y-61124409D01*
X93058213Y-61340395D01*
X93328196Y-61353256D01*
X93598179Y-61366117D01*
X93598179Y-61885030D01*
X93598179Y-62403944D01*
X93436189Y-62390537D01*
X93274200Y-62377130D01*
X93261583Y-62042351D01*
X93253746Y-61874128D01*
X93241781Y-61774411D01*
X93219449Y-61725337D01*
X93180507Y-61709045D01*
X93144608Y-61707572D01*
X93091987Y-61712378D01*
X93059911Y-61738704D01*
X93042137Y-61804412D01*
X93032425Y-61927365D01*
X93027632Y-62042351D01*
X93015016Y-62377130D01*
X92206901Y-62388876D01*
X91398786Y-62400622D01*
X91386153Y-62064896D01*
X91373519Y-61729171D01*
X90552771Y-61729171D01*
X89732023Y-61729171D01*
X89719406Y-62063950D01*
X89708326Y-62222385D01*
X89690319Y-62340092D01*
X89668793Y-62396560D01*
X89663789Y-62398729D01*
X89643915Y-62357552D01*
X89632924Y-62241352D01*
X89631658Y-62061127D01*
X89633208Y-61999154D01*
X89645628Y-61599579D01*
X90502066Y-61587856D01*
X90808999Y-61582371D01*
X91037760Y-61575043D01*
X91196561Y-61565237D01*
X91293618Y-61552317D01*
X91337142Y-61535651D01*
X91339704Y-61526863D01*
X93046454Y-61526863D01*
X93057800Y-61563513D01*
X93134459Y-61573394D01*
X93194045Y-61570061D01*
X93296910Y-61551615D01*
X93348387Y-61522481D01*
X93349795Y-61513185D01*
X93303553Y-61480213D01*
X93213073Y-61470781D01*
X93116730Y-61483159D01*
X93052901Y-61515614D01*
X93046454Y-61526863D01*
X91339704Y-61526863D01*
X91340813Y-61523060D01*
X91311085Y-61504099D01*
X91230937Y-61489808D01*
X91092479Y-61479730D01*
X90887823Y-61473413D01*
X90609078Y-61470400D01*
X90419580Y-61469987D01*
X89516036Y-61469987D01*
X89503776Y-61934358D01*
X89494625Y-62137256D01*
X89480054Y-62290684D01*
X89461718Y-62380748D01*
X89448423Y-62398729D01*
X89395873Y-62364617D01*
X89383491Y-62341812D01*
X89375519Y-62276778D01*
X89371339Y-62146439D01*
X89371341Y-61971817D01*
X89374047Y-61834244D01*
X89386445Y-61383593D01*
X90356359Y-61371944D01*
X90699223Y-61366378D01*
X90962662Y-61358629D01*
X91153625Y-61348247D01*
X91279065Y-61334784D01*
X91345933Y-61317791D01*
X91360034Y-61307148D01*
X91381332Y-61232881D01*
X91393454Y-61112038D01*
X91394457Y-61069459D01*
X91395118Y-60884918D01*
X92205067Y-60896670D01*
G37*
G36*
X95369268Y-61642776D02*
G01*
X95369268Y-62398729D01*
X94548519Y-62398729D01*
X93727771Y-62398729D01*
X93727771Y-61642776D01*
X93727771Y-60886824D01*
X94548519Y-60886824D01*
X95369268Y-60886824D01*
X95369268Y-61642776D01*
G37*
G36*
X99956688Y-61112665D02*
G01*
X99969778Y-61340395D01*
X100250560Y-61361994D01*
X100531343Y-61383593D01*
X100531343Y-61880361D01*
X100531343Y-62377130D01*
X100371215Y-62390426D01*
X100211087Y-62403722D01*
X100198426Y-62066446D01*
X100190713Y-61897542D01*
X100179026Y-61797182D01*
X100156991Y-61747550D01*
X100118234Y-61730832D01*
X100077771Y-61729171D01*
X100023429Y-61733484D01*
X99990350Y-61758326D01*
X99972118Y-61821554D01*
X99962318Y-61941026D01*
X99957144Y-62064896D01*
X99944511Y-62400622D01*
X99136396Y-62388876D01*
X98328281Y-62377130D01*
X98315665Y-62042351D01*
X98303049Y-61707572D01*
X97073743Y-61707572D01*
X95844438Y-61707572D01*
X95844438Y-62056750D01*
X95840767Y-62238579D01*
X95828568Y-62345185D01*
X95806062Y-62387476D01*
X95790441Y-62387929D01*
X95761345Y-62343783D01*
X95743750Y-62229942D01*
X95736683Y-62039129D01*
X95736445Y-61984755D01*
X95736445Y-61599579D01*
X97024947Y-61588132D01*
X97408654Y-61583946D01*
X97713097Y-61578710D01*
X97945406Y-61572061D01*
X98112710Y-61563636D01*
X98222137Y-61553070D01*
X98280818Y-61540000D01*
X98284788Y-61535799D01*
X99970407Y-61535799D01*
X99970561Y-61536050D01*
X100025101Y-61564840D01*
X100118973Y-61576677D01*
X100216827Y-61571846D01*
X100283314Y-61550636D01*
X100293758Y-61533427D01*
X100259233Y-61480840D01*
X100228865Y-61463973D01*
X100146118Y-61453429D01*
X100054293Y-61467791D01*
X99985140Y-61498201D01*
X99970407Y-61535799D01*
X98284788Y-61535799D01*
X98295879Y-61524063D01*
X98295667Y-61523336D01*
X98269817Y-61507388D01*
X98199344Y-61494687D01*
X98077200Y-61484950D01*
X97896337Y-61477894D01*
X97649707Y-61473237D01*
X97330262Y-61470697D01*
X96963967Y-61469987D01*
X95650050Y-61469987D01*
X95628451Y-61920101D01*
X95612323Y-62156339D01*
X95590391Y-62309245D01*
X95562185Y-62381716D01*
X95552856Y-62388071D01*
X95528984Y-62375054D01*
X95512815Y-62310589D01*
X95503250Y-62184426D01*
X95499189Y-61986313D01*
X95498860Y-61884560D01*
X95498860Y-61363191D01*
X96891972Y-61351793D01*
X98285084Y-61340395D01*
X98306683Y-61124409D01*
X98328281Y-60908423D01*
X99135940Y-60896679D01*
X99943599Y-60884934D01*
X99956688Y-61112665D01*
G37*
G36*
X105347839Y-61641823D02*
G01*
X105347839Y-62398729D01*
X104547334Y-62398729D01*
X104248949Y-62397294D01*
X104027592Y-62392569D01*
X103873938Y-62383922D01*
X103778662Y-62370719D01*
X103732437Y-62352329D01*
X103725443Y-62342998D01*
X103718871Y-62282505D01*
X103714633Y-62151713D01*
X103712932Y-61966695D01*
X103713972Y-61743520D01*
X103715999Y-61597845D01*
X103727941Y-60908423D01*
X104537890Y-60896670D01*
X105347839Y-60884918D01*
X105347839Y-61641823D01*
G37*
G36*
X109244103Y-61112665D02*
G01*
X109257193Y-61340395D01*
X109483979Y-61353452D01*
X109710764Y-61366509D01*
X109710764Y-61886219D01*
X109708590Y-62115581D01*
X109701330Y-62268899D01*
X109687881Y-62356434D01*
X109667140Y-62388444D01*
X109656768Y-62388071D01*
X109626673Y-62338172D01*
X109602986Y-62208670D01*
X109585239Y-61996668D01*
X109581172Y-61920101D01*
X109570367Y-61718505D01*
X109558509Y-61587395D01*
X109541577Y-61510913D01*
X109515553Y-61473199D01*
X109476416Y-61458396D01*
X109463622Y-61456346D01*
X109350375Y-61464053D01*
X109290833Y-61485839D01*
X109246082Y-61511887D01*
X109239905Y-61530394D01*
X109285783Y-61552180D01*
X109397198Y-61588064D01*
X109431674Y-61598873D01*
X109464194Y-61624219D01*
X109482615Y-61685807D01*
X109489163Y-61799963D01*
X109486062Y-61983012D01*
X109485671Y-61994961D01*
X109472417Y-62209812D01*
X109449612Y-62340467D01*
X109419183Y-62388043D01*
X109390992Y-62373699D01*
X109373891Y-62300664D01*
X109366122Y-62158040D01*
X109365186Y-62053151D01*
X109361561Y-61870168D01*
X109349513Y-61762424D01*
X109327285Y-61719021D01*
X109311189Y-61718239D01*
X109277690Y-61773360D01*
X109254659Y-61911060D01*
X109244559Y-62068363D01*
X109231926Y-62400622D01*
X108423811Y-62388876D01*
X107615696Y-62377130D01*
X107603064Y-62041463D01*
X107590432Y-61705795D01*
X106717520Y-61717483D01*
X105844608Y-61729171D01*
X105831991Y-62063950D01*
X105819375Y-62398729D01*
X105677201Y-62398729D01*
X105571105Y-62390728D01*
X105507796Y-62371330D01*
X105506229Y-62369931D01*
X105494737Y-62317594D01*
X105485424Y-62197437D01*
X105479323Y-62028026D01*
X105477431Y-61852331D01*
X105477431Y-61523984D01*
X105747414Y-61523984D01*
X105759593Y-61542460D01*
X105815651Y-61556485D01*
X105923999Y-61566555D01*
X106093050Y-61573164D01*
X106331217Y-61576806D01*
X106646913Y-61577978D01*
X106665356Y-61577980D01*
X106985256Y-61576922D01*
X107227196Y-61573419D01*
X107399589Y-61566974D01*
X107510847Y-61557094D01*
X107569382Y-61543284D01*
X107583608Y-61525048D01*
X107583298Y-61523984D01*
X107554987Y-61504789D01*
X107478988Y-61490335D01*
X107346979Y-61480132D01*
X107150635Y-61473692D01*
X106881633Y-61470524D01*
X106665356Y-61469987D01*
X106344998Y-61471302D01*
X106102675Y-61475573D01*
X105930063Y-61483289D01*
X105818838Y-61494941D01*
X105760677Y-61511018D01*
X105747414Y-61523984D01*
X105477431Y-61523984D01*
X105477431Y-61363530D01*
X106524965Y-61351963D01*
X107572499Y-61340395D01*
X107594098Y-61124409D01*
X107615696Y-60908423D01*
X108423355Y-60896679D01*
X109231014Y-60884934D01*
X109244103Y-61112665D01*
G37*
G36*
X110540054Y-61113610D02*
G01*
X110554778Y-61240354D01*
X110578590Y-61322667D01*
X110596309Y-61340395D01*
X110622695Y-61301409D01*
X110644139Y-61201274D01*
X110652563Y-61113610D01*
X110665619Y-60886824D01*
X111481853Y-60886824D01*
X112298086Y-60886824D01*
X112311143Y-61113610D01*
X112324200Y-61340395D01*
X112552336Y-61353499D01*
X112780473Y-61366603D01*
X112768323Y-61871866D01*
X112756172Y-62377130D01*
X112596045Y-62390426D01*
X112435917Y-62403722D01*
X112423256Y-62069913D01*
X112408584Y-61871044D01*
X112383016Y-61752600D01*
X112356598Y-61718239D01*
X112328284Y-61732647D01*
X112311168Y-61805970D01*
X112303472Y-61949109D01*
X112302601Y-62049551D01*
X112302601Y-62398729D01*
X111483670Y-62398729D01*
X110664739Y-62398729D01*
X110652122Y-62063950D01*
X110639506Y-61729171D01*
X110423519Y-61707572D01*
X110207533Y-61685974D01*
X110202587Y-61526863D01*
X110325366Y-61526863D01*
X110336712Y-61563513D01*
X110413371Y-61573394D01*
X110472956Y-61570061D01*
X110575821Y-61551615D01*
X110624642Y-61523984D01*
X112313400Y-61523984D01*
X112333159Y-61561202D01*
X112429028Y-61577069D01*
X112475390Y-61577980D01*
X112596235Y-61568331D01*
X112639008Y-61537984D01*
X112637380Y-61523984D01*
X112586330Y-61487209D01*
X112486171Y-61470137D01*
X112475390Y-61469987D01*
X112372476Y-61484534D01*
X112315141Y-61519960D01*
X112313400Y-61523984D01*
X110624642Y-61523984D01*
X110627298Y-61522481D01*
X110628706Y-61513185D01*
X110582465Y-61480213D01*
X110491984Y-61470781D01*
X110395641Y-61483159D01*
X110331813Y-61515614D01*
X110325366Y-61526863D01*
X110202587Y-61526863D01*
X110195113Y-61286399D01*
X110182692Y-60886824D01*
X110354845Y-60886824D01*
X110526998Y-60886824D01*
X110540054Y-61113610D01*
G37*
G36*
X114527261Y-61642776D02*
G01*
X114527261Y-62377130D01*
X113781145Y-62388954D01*
X113497448Y-62392050D01*
X113289747Y-62390634D01*
X113147734Y-62384102D01*
X113061100Y-62371850D01*
X113019535Y-62353275D01*
X113013250Y-62344022D01*
X113006544Y-62283163D01*
X113002192Y-62152037D01*
X113000406Y-61966744D01*
X113001398Y-61743385D01*
X113003414Y-61597845D01*
X113015356Y-60908423D01*
X113771309Y-60908423D01*
X114527261Y-60908423D01*
X114527261Y-61642776D01*
G37*
G36*
X115931172Y-61292969D02*
G01*
X115931172Y-61704330D01*
X115531598Y-61716751D01*
X115132023Y-61729171D01*
X115119406Y-62063950D01*
X115106447Y-62255465D01*
X115087576Y-62363859D01*
X115066352Y-62391882D01*
X115046332Y-62342287D01*
X115031074Y-62217826D01*
X115024135Y-62021251D01*
X115024030Y-61990172D01*
X115024030Y-61581615D01*
X115348326Y-61568998D01*
X115537245Y-61555271D01*
X115642741Y-61534874D01*
X115667103Y-61511979D01*
X115612618Y-61490758D01*
X115481576Y-61475383D01*
X115294013Y-61469987D01*
X114916036Y-61469987D01*
X114903548Y-61901489D01*
X114891661Y-62125515D01*
X114871741Y-62286632D01*
X114845400Y-62378696D01*
X114814246Y-62395563D01*
X114786263Y-62349035D01*
X114777122Y-62280802D01*
X114772025Y-62147683D01*
X114771479Y-61971116D01*
X114774047Y-61834244D01*
X114786445Y-61383593D01*
X115175220Y-61361994D01*
X115563996Y-61340395D01*
X115585594Y-61124409D01*
X115601443Y-60996494D01*
X115628158Y-60931046D01*
X115684593Y-60904508D01*
X115769183Y-60895016D01*
X115931172Y-60881609D01*
X115931172Y-61292969D01*
G37*
G36*
X69148519Y-59456692D02*
G01*
X69154753Y-59584088D01*
X69184654Y-59662239D01*
X69255024Y-59703059D01*
X69382666Y-59718460D01*
X69520600Y-59720497D01*
X69756023Y-59720497D01*
X69743853Y-60228065D01*
X69731683Y-60735633D01*
X69571555Y-60748929D01*
X69411427Y-60762225D01*
X69398766Y-60424950D01*
X69391053Y-60256045D01*
X69379366Y-60155685D01*
X69357331Y-60106054D01*
X69318575Y-60089335D01*
X69278111Y-60087674D01*
X69223708Y-60092004D01*
X69190619Y-60116912D01*
X69172403Y-60180282D01*
X69162618Y-60299995D01*
X69157502Y-60422453D01*
X69144885Y-60757232D01*
X67980376Y-60757232D01*
X66815866Y-60757232D01*
X66815866Y-60001280D01*
X66815866Y-59862577D01*
X69160347Y-59862577D01*
X69184204Y-59901251D01*
X69264443Y-59929307D01*
X69349056Y-59936484D01*
X69457203Y-59923892D01*
X69484424Y-59885639D01*
X69483515Y-59882487D01*
X69428395Y-59833766D01*
X69327759Y-59810276D01*
X69220787Y-59820207D01*
X69207436Y-59824769D01*
X69160347Y-59862577D01*
X66815866Y-59862577D01*
X66815866Y-59245327D01*
X67982193Y-59245327D01*
X69148519Y-59245327D01*
X69148519Y-59456692D01*
G37*
G36*
X74548179Y-59431076D02*
G01*
X74563798Y-59587308D01*
X74621110Y-59676839D01*
X74735800Y-59715353D01*
X74837601Y-59720497D01*
X75023349Y-59720497D01*
X75023349Y-60241472D01*
X75023349Y-60762447D01*
X74861360Y-60749040D01*
X74699370Y-60735633D01*
X74686700Y-60397878D01*
X74675157Y-60214816D01*
X74656354Y-60110210D01*
X74628724Y-60076311D01*
X74621904Y-60077366D01*
X74590768Y-60130549D01*
X74568269Y-60261307D01*
X74557162Y-60425920D01*
X74544545Y-60757232D01*
X73380036Y-60757232D01*
X72215526Y-60757232D01*
X72215526Y-60001280D01*
X72215526Y-59871688D01*
X74591377Y-59871688D01*
X74624162Y-59919612D01*
X74728797Y-59936367D01*
X74742567Y-59936484D01*
X74854390Y-59922433D01*
X74893484Y-59877589D01*
X74893758Y-59871688D01*
X74860972Y-59823764D01*
X74756337Y-59807009D01*
X74742567Y-59806892D01*
X74630744Y-59820943D01*
X74591650Y-59865787D01*
X74591377Y-59871688D01*
X72215526Y-59871688D01*
X72215526Y-59245327D01*
X73381853Y-59245327D01*
X74548179Y-59245327D01*
X74548179Y-59431076D01*
G37*
G36*
X77971564Y-59255695D02*
G01*
X79969438Y-59266926D01*
X79991036Y-59482912D01*
X80012635Y-59698899D01*
X80217822Y-59712065D01*
X80423009Y-59725231D01*
X80423009Y-60241232D01*
X80418481Y-60485401D01*
X80406604Y-60651686D01*
X80389938Y-60738705D01*
X80371047Y-60745077D01*
X80352490Y-60669420D01*
X80336828Y-60510354D01*
X80327277Y-60292861D01*
X80315016Y-59828491D01*
X80167425Y-59828491D01*
X80062586Y-59843504D01*
X80006689Y-59878149D01*
X80010766Y-59916834D01*
X80085741Y-59943953D01*
X80133545Y-59955550D01*
X80162971Y-59985418D01*
X80178462Y-60051040D01*
X80184464Y-60169895D01*
X80185424Y-60336059D01*
X80179341Y-60537779D01*
X80163761Y-60666912D01*
X80142690Y-60720836D01*
X80120132Y-60696931D01*
X80100093Y-60592575D01*
X80086577Y-60405148D01*
X80086413Y-60400855D01*
X80075774Y-60243146D01*
X80058887Y-60125407D01*
X80038990Y-60068410D01*
X80034234Y-60066076D01*
X80014099Y-60105808D01*
X79996215Y-60211157D01*
X79983819Y-60361351D01*
X79982054Y-60400855D01*
X79969438Y-60735633D01*
X78000792Y-60746863D01*
X77596437Y-60748544D01*
X77218793Y-60748907D01*
X76876596Y-60748031D01*
X76578585Y-60745993D01*
X76333494Y-60742874D01*
X76150062Y-60738752D01*
X76037025Y-60733705D01*
X76002918Y-60728865D01*
X75993244Y-60677986D01*
X75984922Y-60555571D01*
X75978525Y-60376477D01*
X75974627Y-60155557D01*
X75973689Y-59972050D01*
X75973689Y-59244465D01*
X77971564Y-59255695D01*
G37*
G36*
X86911130Y-59471742D02*
G01*
X86924200Y-59698899D01*
X87152336Y-59712002D01*
X87380473Y-59725106D01*
X87368323Y-60219732D01*
X87357754Y-60462796D01*
X87341335Y-60625916D01*
X87321162Y-60708001D01*
X87299331Y-60707966D01*
X87277940Y-60624721D01*
X87259086Y-60457180D01*
X87248179Y-60282062D01*
X87226581Y-59828491D01*
X87086189Y-59828491D01*
X86981844Y-59843658D01*
X86945479Y-59878988D01*
X86983444Y-59919226D01*
X87040443Y-59938431D01*
X87088060Y-59954781D01*
X87117481Y-59988223D01*
X87133068Y-60056545D01*
X87139180Y-60177534D01*
X87140186Y-60345206D01*
X87134741Y-60559496D01*
X87118099Y-60691619D01*
X87089795Y-60745132D01*
X87088060Y-60745809D01*
X87058314Y-60725341D01*
X87037796Y-60635534D01*
X87024927Y-60468667D01*
X87023264Y-60428896D01*
X87008598Y-60229788D01*
X86983048Y-60111200D01*
X86956598Y-60076742D01*
X86928284Y-60091150D01*
X86911168Y-60164474D01*
X86903472Y-60307613D01*
X86902601Y-60408054D01*
X86902601Y-60757232D01*
X84568592Y-60757232D01*
X84041817Y-60756863D01*
X83595520Y-60755661D01*
X83223787Y-60753486D01*
X82920705Y-60750200D01*
X82680361Y-60745661D01*
X82496840Y-60739730D01*
X82364229Y-60732267D01*
X82276615Y-60723133D01*
X82228083Y-60712186D01*
X82213198Y-60701502D01*
X82206626Y-60641008D01*
X82202388Y-60510217D01*
X82200688Y-60325198D01*
X82201727Y-60102023D01*
X82203754Y-59956348D01*
X82215696Y-59266926D01*
X84556878Y-59255756D01*
X86898060Y-59244585D01*
X86911130Y-59471742D01*
G37*
G36*
X92215866Y-59482912D02*
G01*
X92237465Y-59698899D01*
X92507448Y-59711759D01*
X92777431Y-59724620D01*
X92777431Y-60240926D01*
X92774048Y-60461782D01*
X92764536Y-60628927D01*
X92749853Y-60730705D01*
X92735057Y-60757232D01*
X92698780Y-60733240D01*
X92672040Y-60654945D01*
X92653181Y-60512867D01*
X92640550Y-60297528D01*
X92637074Y-60195668D01*
X92626240Y-59828491D01*
X92435453Y-59828491D01*
X92303857Y-59840890D01*
X92234688Y-59870461D01*
X92233891Y-59905758D01*
X92307410Y-59935339D01*
X92375179Y-59944516D01*
X92539846Y-59958082D01*
X92539846Y-60336059D01*
X92533763Y-60537779D01*
X92518183Y-60666912D01*
X92497111Y-60720836D01*
X92474554Y-60696931D01*
X92454515Y-60592575D01*
X92440999Y-60405148D01*
X92440835Y-60400855D01*
X92432997Y-60232631D01*
X92421033Y-60132914D01*
X92398701Y-60083841D01*
X92359759Y-60067549D01*
X92323860Y-60066076D01*
X92271239Y-60070881D01*
X92239162Y-60097207D01*
X92221389Y-60162915D01*
X92211677Y-60285868D01*
X92206884Y-60400855D01*
X92194268Y-60735633D01*
X89914402Y-60746815D01*
X89395780Y-60748996D01*
X88957465Y-60749958D01*
X88593379Y-60749582D01*
X88297442Y-60747750D01*
X88063574Y-60744343D01*
X87885695Y-60739243D01*
X87757727Y-60732330D01*
X87673588Y-60723486D01*
X87627201Y-60712593D01*
X87613004Y-60701884D01*
X87606383Y-60641254D01*
X87602102Y-60510337D01*
X87600369Y-60325216D01*
X87601391Y-60101973D01*
X87603414Y-59956348D01*
X87615356Y-59266926D01*
X89904812Y-59266926D01*
X92194268Y-59266926D01*
X92215866Y-59482912D01*
G37*
G36*
X99127431Y-59456692D02*
G01*
X99133664Y-59584088D01*
X99163565Y-59662239D01*
X99233936Y-59703059D01*
X99361578Y-59718460D01*
X99499512Y-59720497D01*
X99734935Y-59720497D01*
X99722764Y-60217428D01*
X99712224Y-60460938D01*
X99695853Y-60624700D01*
X99675734Y-60707594D01*
X99653950Y-60708498D01*
X99632583Y-60626293D01*
X99613717Y-60459859D01*
X99602601Y-60282062D01*
X99581002Y-59828491D01*
X99375815Y-59828491D01*
X99244573Y-59839298D01*
X99179147Y-59865082D01*
X99185013Y-59895891D01*
X99267647Y-59921769D01*
X99320916Y-59928292D01*
X99473009Y-59941699D01*
X99473009Y-60349466D01*
X99467418Y-60555195D01*
X99453024Y-60689054D01*
X99433398Y-60748310D01*
X99412107Y-60730232D01*
X99392722Y-60632089D01*
X99378813Y-60451149D01*
X99377632Y-60422453D01*
X99369899Y-60254308D01*
X99358108Y-60154643D01*
X99335817Y-60105577D01*
X99296584Y-60089228D01*
X99257023Y-60087674D01*
X99202619Y-60092004D01*
X99169531Y-60116912D01*
X99151315Y-60180282D01*
X99141529Y-60299995D01*
X99136413Y-60422453D01*
X99123797Y-60757232D01*
X96864956Y-60757232D01*
X96431161Y-60756697D01*
X96023649Y-60755160D01*
X95650553Y-60752722D01*
X95320008Y-60749488D01*
X95040148Y-60745558D01*
X94819108Y-60741036D01*
X94665020Y-60736024D01*
X94586019Y-60730623D01*
X94577318Y-60728434D01*
X94567784Y-60677701D01*
X94559583Y-60555427D01*
X94553280Y-60376458D01*
X94549441Y-60155645D01*
X94548519Y-59972482D01*
X94548519Y-59245327D01*
X96837975Y-59245327D01*
X99127431Y-59245327D01*
X99127431Y-59456692D01*
G37*
G36*
X108414846Y-59456320D02*
G01*
X108421065Y-59583893D01*
X108450923Y-59662152D01*
X108521225Y-59703029D01*
X108648773Y-59718454D01*
X108786927Y-59720497D01*
X109022350Y-59720497D01*
X109010179Y-60228065D01*
X108998009Y-60735633D01*
X108837881Y-60748929D01*
X108677754Y-60762225D01*
X108665092Y-60424950D01*
X108657379Y-60256045D01*
X108645692Y-60155685D01*
X108623657Y-60106054D01*
X108584901Y-60089335D01*
X108544438Y-60087674D01*
X108490034Y-60092004D01*
X108456946Y-60116912D01*
X108438730Y-60180282D01*
X108428944Y-60299995D01*
X108423828Y-60422453D01*
X108411212Y-60757232D01*
X106079020Y-60757232D01*
X105552462Y-60756862D01*
X105106380Y-60755659D01*
X104734858Y-60753483D01*
X104431981Y-60750193D01*
X104191832Y-60745650D01*
X104008495Y-60739713D01*
X103876056Y-60732243D01*
X103788598Y-60723099D01*
X103740205Y-60712142D01*
X103725443Y-60701502D01*
X103718871Y-60641008D01*
X103714633Y-60510217D01*
X103712932Y-60325198D01*
X103713972Y-60102023D01*
X103715999Y-59956348D01*
X103717623Y-59862577D01*
X108426674Y-59862577D01*
X108450530Y-59901251D01*
X108530770Y-59929307D01*
X108615383Y-59936484D01*
X108723530Y-59923892D01*
X108750750Y-59885639D01*
X108749841Y-59882487D01*
X108694722Y-59833766D01*
X108594086Y-59810276D01*
X108487114Y-59820207D01*
X108473762Y-59824769D01*
X108426674Y-59862577D01*
X103717623Y-59862577D01*
X103727941Y-59266926D01*
X106071394Y-59255755D01*
X108414846Y-59244583D01*
X108414846Y-59456320D01*
G37*
G36*
X111490395Y-59472113D02*
G01*
X111503451Y-59698899D01*
X111784234Y-59720497D01*
X112065016Y-59742096D01*
X112065016Y-60235265D01*
X112061564Y-60474320D01*
X112050715Y-60634416D01*
X112031731Y-60722731D01*
X112012512Y-60745935D01*
X111987089Y-60728722D01*
X111968613Y-60651558D01*
X111955795Y-60505484D01*
X111947716Y-60295964D01*
X111935424Y-59828491D01*
X111730237Y-59828491D01*
X111597934Y-59839337D01*
X111532570Y-59865837D01*
X111539726Y-59898932D01*
X111624977Y-59929562D01*
X111663741Y-59936484D01*
X111805832Y-59958082D01*
X111818308Y-60361816D01*
X111821751Y-60556830D01*
X111816586Y-60677929D01*
X111801447Y-60737286D01*
X111775110Y-60747125D01*
X111740214Y-60692848D01*
X111716910Y-60555883D01*
X111706821Y-60397388D01*
X111698921Y-60230222D01*
X111686786Y-60131472D01*
X111664079Y-60083184D01*
X111624460Y-60067406D01*
X111589846Y-60066076D01*
X111537225Y-60070881D01*
X111505149Y-60097207D01*
X111487375Y-60162915D01*
X111477663Y-60285868D01*
X111472870Y-60400855D01*
X111460254Y-60735633D01*
X110715101Y-60747453D01*
X109969948Y-60759272D01*
X109969948Y-60002300D01*
X109969948Y-59245327D01*
X110723643Y-59245327D01*
X111477338Y-59245327D01*
X111490395Y-59472113D01*
G37*
G36*
X114538060Y-59255174D02*
G01*
X115348009Y-59266926D01*
X115369608Y-59482912D01*
X115391206Y-59698899D01*
X115661189Y-59711759D01*
X115931172Y-59724620D01*
X115931172Y-60243534D01*
X115931172Y-60762447D01*
X115769183Y-60749040D01*
X115607193Y-60735633D01*
X115594576Y-60400855D01*
X115586739Y-60232631D01*
X115574774Y-60132914D01*
X115552442Y-60083841D01*
X115513501Y-60067549D01*
X115477601Y-60066076D01*
X115424980Y-60070881D01*
X115392904Y-60097207D01*
X115375130Y-60162915D01*
X115365418Y-60285868D01*
X115360626Y-60400855D01*
X115348009Y-60735633D01*
X114538060Y-60747386D01*
X113728111Y-60759138D01*
X113728111Y-60001280D01*
X113728111Y-59885367D01*
X115379447Y-59885367D01*
X115390794Y-59922017D01*
X115467453Y-59931897D01*
X115527038Y-59928564D01*
X115629903Y-59910119D01*
X115681380Y-59880984D01*
X115682788Y-59871688D01*
X115636547Y-59838717D01*
X115546066Y-59829285D01*
X115449723Y-59841662D01*
X115385894Y-59874118D01*
X115379447Y-59885367D01*
X113728111Y-59885367D01*
X113728111Y-59243421D01*
X114538060Y-59255174D01*
G37*
D13*
%TO.C,SW1*%
X70360000Y-77980000D02*
X70360000Y-92180000D01*
X70360000Y-92180000D02*
X84560000Y-92180000D01*
X84560000Y-77980000D02*
X70360000Y-77980000D01*
X84560000Y-92180000D02*
X84560000Y-77980000D01*
%TO.C,PROG1*%
X117284375Y-46870000D02*
X117854375Y-46870000D01*
X117284375Y-52170000D02*
X117284375Y-46870000D01*
X117284375Y-52170000D02*
X117854375Y-52170000D01*
X117854375Y-53560000D02*
X117854375Y-52170000D01*
X119474375Y-46870000D02*
X120394375Y-46870000D01*
X119474375Y-52170000D02*
X120394375Y-52170000D01*
X122014375Y-46870000D02*
X122934375Y-46870000D01*
X122014375Y-52170000D02*
X122934375Y-52170000D01*
X124554375Y-46870000D02*
X125124375Y-46870000D01*
X124554375Y-52170000D02*
X125124375Y-52170000D01*
X125124375Y-52170000D02*
X125124375Y-46870000D01*
%TO.C,SW2*%
X89360000Y-77980000D02*
X89360000Y-92180000D01*
X89360000Y-92180000D02*
X103560000Y-92180000D01*
X103560000Y-77980000D02*
X89360000Y-77980000D01*
X103560000Y-92180000D02*
X103560000Y-77980000D01*
%TO.C,SW6*%
X149385000Y-80455000D02*
X149985000Y-80455000D01*
X149685000Y-80755000D02*
X149385000Y-80455000D01*
X149985000Y-80455000D02*
X149685000Y-80755000D01*
X151085000Y-78655000D02*
X151085000Y-90455000D01*
X155185000Y-78655000D02*
X151085000Y-78655000D01*
X155185000Y-90455000D02*
X151085000Y-90455000D01*
X156685000Y-84555000D02*
X157685000Y-84555000D01*
X157185000Y-84055000D02*
X157185000Y-85055000D01*
X159185000Y-78655000D02*
X163285000Y-78655000D01*
X163285000Y-78655000D02*
X163285000Y-81055000D01*
X163285000Y-83255000D02*
X163285000Y-85855000D01*
X163285000Y-88055000D02*
X163285000Y-90455000D01*
X163285000Y-90455000D02*
X159185000Y-90455000D01*
X160185000Y-84555000D02*
G75*
G02*
X154185000Y-84555000I-3000000J0D01*
G01*
X154185000Y-84555000D02*
G75*
G02*
X160185000Y-84555000I3000000J0D01*
G01*
%TO.C,SW4*%
X127360000Y-77980000D02*
X127360000Y-92180000D01*
X127360000Y-92180000D02*
X141560000Y-92180000D01*
X141560000Y-77980000D02*
X127360000Y-77980000D01*
X141560000Y-92180000D02*
X141560000Y-77980000D01*
%TO.C,SW3*%
X108360000Y-77980000D02*
X108360000Y-92180000D01*
X108360000Y-92180000D02*
X122560000Y-92180000D01*
X122560000Y-77980000D02*
X108360000Y-77980000D01*
X122560000Y-92180000D02*
X122560000Y-77980000D01*
%TD*%
M02*
