%TF.GenerationSoftware,KiCad,Pcbnew,9.0.7*%
%TF.CreationDate,2026-02-17T21:12:57+08:00*%
%TF.ProjectId,3rd testing,33726420-7465-4737-9469-6e672e6b6963,rev?*%
%TF.SameCoordinates,Original*%
%TF.FileFunction,Legend,Bot*%
%TF.FilePolarity,Positive*%
%FSLAX46Y46*%
G04 Gerber Fmt 4.6, Leading zero omitted, Abs format (unit mm)*
G04 Created by KiCad (PCBNEW 9.0.7) date 2026-02-17 21:12:57*
%MOMM*%
%LPD*%
G01*
G04 APERTURE LIST*
%ADD10C,0.150000*%
%ADD11C,0.200000*%
%ADD12C,0.120000*%
%ADD13C,0.127000*%
%ADD14R,1.600000X1.600000*%
%ADD15C,1.600000*%
G04 APERTURE END LIST*
D10*
X124712920Y-80045774D02*
X123912920Y-80045774D01*
X123912920Y-80045774D02*
X123912920Y-80236250D01*
X123912920Y-80236250D02*
X123951015Y-80350536D01*
X123951015Y-80350536D02*
X124027205Y-80426726D01*
X124027205Y-80426726D02*
X124103396Y-80464821D01*
X124103396Y-80464821D02*
X124255777Y-80502917D01*
X124255777Y-80502917D02*
X124370063Y-80502917D01*
X124370063Y-80502917D02*
X124522444Y-80464821D01*
X124522444Y-80464821D02*
X124598634Y-80426726D01*
X124598634Y-80426726D02*
X124674825Y-80350536D01*
X124674825Y-80350536D02*
X124712920Y-80236250D01*
X124712920Y-80236250D02*
X124712920Y-80045774D01*
X124179586Y-81188631D02*
X124712920Y-81188631D01*
X123874825Y-80998155D02*
X124446253Y-80807678D01*
X124446253Y-80807678D02*
X124446253Y-81302917D01*
X89536041Y-70662705D02*
X89583660Y-70710325D01*
X89583660Y-70710325D02*
X89726517Y-70757944D01*
X89726517Y-70757944D02*
X89821755Y-70757944D01*
X89821755Y-70757944D02*
X89964612Y-70710325D01*
X89964612Y-70710325D02*
X90059850Y-70615086D01*
X90059850Y-70615086D02*
X90107469Y-70519848D01*
X90107469Y-70519848D02*
X90155088Y-70329372D01*
X90155088Y-70329372D02*
X90155088Y-70186515D01*
X90155088Y-70186515D02*
X90107469Y-69996039D01*
X90107469Y-69996039D02*
X90059850Y-69900801D01*
X90059850Y-69900801D02*
X89964612Y-69805563D01*
X89964612Y-69805563D02*
X89821755Y-69757944D01*
X89821755Y-69757944D02*
X89726517Y-69757944D01*
X89726517Y-69757944D02*
X89583660Y-69805563D01*
X89583660Y-69805563D02*
X89536041Y-69853182D01*
X88678898Y-70091277D02*
X88678898Y-70757944D01*
X88916993Y-69710325D02*
X89155088Y-70424610D01*
X89155088Y-70424610D02*
X88536041Y-70424610D01*
X95626666Y-53884819D02*
X95959999Y-53408628D01*
X96198094Y-53884819D02*
X96198094Y-52884819D01*
X96198094Y-52884819D02*
X95817142Y-52884819D01*
X95817142Y-52884819D02*
X95721904Y-52932438D01*
X95721904Y-52932438D02*
X95674285Y-52980057D01*
X95674285Y-52980057D02*
X95626666Y-53075295D01*
X95626666Y-53075295D02*
X95626666Y-53218152D01*
X95626666Y-53218152D02*
X95674285Y-53313390D01*
X95674285Y-53313390D02*
X95721904Y-53361009D01*
X95721904Y-53361009D02*
X95817142Y-53408628D01*
X95817142Y-53408628D02*
X96198094Y-53408628D01*
X94769523Y-53218152D02*
X94769523Y-53884819D01*
X95007618Y-52837200D02*
X95245713Y-53551485D01*
X95245713Y-53551485D02*
X94626666Y-53551485D01*
X84564819Y-66913333D02*
X84088628Y-66580000D01*
X84564819Y-66341905D02*
X83564819Y-66341905D01*
X83564819Y-66341905D02*
X83564819Y-66722857D01*
X83564819Y-66722857D02*
X83612438Y-66818095D01*
X83612438Y-66818095D02*
X83660057Y-66865714D01*
X83660057Y-66865714D02*
X83755295Y-66913333D01*
X83755295Y-66913333D02*
X83898152Y-66913333D01*
X83898152Y-66913333D02*
X83993390Y-66865714D01*
X83993390Y-66865714D02*
X84041009Y-66818095D01*
X84041009Y-66818095D02*
X84088628Y-66722857D01*
X84088628Y-66722857D02*
X84088628Y-66341905D01*
X83564819Y-67818095D02*
X83564819Y-67341905D01*
X83564819Y-67341905D02*
X84041009Y-67294286D01*
X84041009Y-67294286D02*
X83993390Y-67341905D01*
X83993390Y-67341905D02*
X83945771Y-67437143D01*
X83945771Y-67437143D02*
X83945771Y-67675238D01*
X83945771Y-67675238D02*
X83993390Y-67770476D01*
X83993390Y-67770476D02*
X84041009Y-67818095D01*
X84041009Y-67818095D02*
X84136247Y-67865714D01*
X84136247Y-67865714D02*
X84374342Y-67865714D01*
X84374342Y-67865714D02*
X84469580Y-67818095D01*
X84469580Y-67818095D02*
X84517200Y-67770476D01*
X84517200Y-67770476D02*
X84564819Y-67675238D01*
X84564819Y-67675238D02*
X84564819Y-67437143D01*
X84564819Y-67437143D02*
X84517200Y-67341905D01*
X84517200Y-67341905D02*
X84469580Y-67294286D01*
X134674642Y-87140138D02*
X134674642Y-85640138D01*
X134674642Y-85640138D02*
X134317499Y-85640138D01*
X134317499Y-85640138D02*
X134103213Y-85711567D01*
X134103213Y-85711567D02*
X133960356Y-85854424D01*
X133960356Y-85854424D02*
X133888927Y-85997281D01*
X133888927Y-85997281D02*
X133817499Y-86282995D01*
X133817499Y-86282995D02*
X133817499Y-86497281D01*
X133817499Y-86497281D02*
X133888927Y-86782995D01*
X133888927Y-86782995D02*
X133960356Y-86925852D01*
X133960356Y-86925852D02*
X134103213Y-87068710D01*
X134103213Y-87068710D02*
X134317499Y-87140138D01*
X134317499Y-87140138D02*
X134674642Y-87140138D01*
X132960356Y-86282995D02*
X133103213Y-86211567D01*
X133103213Y-86211567D02*
X133174642Y-86140138D01*
X133174642Y-86140138D02*
X133246070Y-85997281D01*
X133246070Y-85997281D02*
X133246070Y-85925852D01*
X133246070Y-85925852D02*
X133174642Y-85782995D01*
X133174642Y-85782995D02*
X133103213Y-85711567D01*
X133103213Y-85711567D02*
X132960356Y-85640138D01*
X132960356Y-85640138D02*
X132674642Y-85640138D01*
X132674642Y-85640138D02*
X132531785Y-85711567D01*
X132531785Y-85711567D02*
X132460356Y-85782995D01*
X132460356Y-85782995D02*
X132388927Y-85925852D01*
X132388927Y-85925852D02*
X132388927Y-85997281D01*
X132388927Y-85997281D02*
X132460356Y-86140138D01*
X132460356Y-86140138D02*
X132531785Y-86211567D01*
X132531785Y-86211567D02*
X132674642Y-86282995D01*
X132674642Y-86282995D02*
X132960356Y-86282995D01*
X132960356Y-86282995D02*
X133103213Y-86354424D01*
X133103213Y-86354424D02*
X133174642Y-86425852D01*
X133174642Y-86425852D02*
X133246070Y-86568710D01*
X133246070Y-86568710D02*
X133246070Y-86854424D01*
X133246070Y-86854424D02*
X133174642Y-86997281D01*
X133174642Y-86997281D02*
X133103213Y-87068710D01*
X133103213Y-87068710D02*
X132960356Y-87140138D01*
X132960356Y-87140138D02*
X132674642Y-87140138D01*
X132674642Y-87140138D02*
X132531785Y-87068710D01*
X132531785Y-87068710D02*
X132460356Y-86997281D01*
X132460356Y-86997281D02*
X132388927Y-86854424D01*
X132388927Y-86854424D02*
X132388927Y-86568710D01*
X132388927Y-86568710D02*
X132460356Y-86425852D01*
X132460356Y-86425852D02*
X132531785Y-86354424D01*
X132531785Y-86354424D02*
X132674642Y-86282995D01*
X86612920Y-80111399D02*
X85812920Y-80111399D01*
X85812920Y-80111399D02*
X85812920Y-80301875D01*
X85812920Y-80301875D02*
X85851015Y-80416161D01*
X85851015Y-80416161D02*
X85927205Y-80492351D01*
X85927205Y-80492351D02*
X86003396Y-80530446D01*
X86003396Y-80530446D02*
X86155777Y-80568542D01*
X86155777Y-80568542D02*
X86270063Y-80568542D01*
X86270063Y-80568542D02*
X86422444Y-80530446D01*
X86422444Y-80530446D02*
X86498634Y-80492351D01*
X86498634Y-80492351D02*
X86574825Y-80416161D01*
X86574825Y-80416161D02*
X86612920Y-80301875D01*
X86612920Y-80301875D02*
X86612920Y-80111399D01*
X85889110Y-80873303D02*
X85851015Y-80911399D01*
X85851015Y-80911399D02*
X85812920Y-80987589D01*
X85812920Y-80987589D02*
X85812920Y-81178065D01*
X85812920Y-81178065D02*
X85851015Y-81254256D01*
X85851015Y-81254256D02*
X85889110Y-81292351D01*
X85889110Y-81292351D02*
X85965301Y-81330446D01*
X85965301Y-81330446D02*
X86041491Y-81330446D01*
X86041491Y-81330446D02*
X86155777Y-81292351D01*
X86155777Y-81292351D02*
X86612920Y-80835208D01*
X86612920Y-80835208D02*
X86612920Y-81330446D01*
X114378618Y-66054816D02*
X114041900Y-66391534D01*
X114984709Y-65920129D02*
X114378618Y-66054816D01*
X114378618Y-66054816D02*
X114513305Y-65448725D01*
X113200107Y-65549740D02*
X113604168Y-65953801D01*
X113402137Y-65751770D02*
X114109244Y-65044664D01*
X114109244Y-65044664D02*
X114075572Y-65213022D01*
X114075572Y-65213022D02*
X114075572Y-65347709D01*
X114075572Y-65347709D02*
X114109244Y-65448725D01*
X77674642Y-87140138D02*
X77674642Y-85640138D01*
X77674642Y-85640138D02*
X77317499Y-85640138D01*
X77317499Y-85640138D02*
X77103213Y-85711567D01*
X77103213Y-85711567D02*
X76960356Y-85854424D01*
X76960356Y-85854424D02*
X76888927Y-85997281D01*
X76888927Y-85997281D02*
X76817499Y-86282995D01*
X76817499Y-86282995D02*
X76817499Y-86497281D01*
X76817499Y-86497281D02*
X76888927Y-86782995D01*
X76888927Y-86782995D02*
X76960356Y-86925852D01*
X76960356Y-86925852D02*
X77103213Y-87068710D01*
X77103213Y-87068710D02*
X77317499Y-87140138D01*
X77317499Y-87140138D02*
X77674642Y-87140138D01*
X75460356Y-85640138D02*
X76174642Y-85640138D01*
X76174642Y-85640138D02*
X76246070Y-86354424D01*
X76246070Y-86354424D02*
X76174642Y-86282995D01*
X76174642Y-86282995D02*
X76031785Y-86211567D01*
X76031785Y-86211567D02*
X75674642Y-86211567D01*
X75674642Y-86211567D02*
X75531785Y-86282995D01*
X75531785Y-86282995D02*
X75460356Y-86354424D01*
X75460356Y-86354424D02*
X75388927Y-86497281D01*
X75388927Y-86497281D02*
X75388927Y-86854424D01*
X75388927Y-86854424D02*
X75460356Y-86997281D01*
X75460356Y-86997281D02*
X75531785Y-87068710D01*
X75531785Y-87068710D02*
X75674642Y-87140138D01*
X75674642Y-87140138D02*
X76031785Y-87140138D01*
X76031785Y-87140138D02*
X76174642Y-87068710D01*
X76174642Y-87068710D02*
X76246070Y-86997281D01*
X120610305Y-68237973D02*
X120677649Y-68237973D01*
X120677649Y-68237973D02*
X120812336Y-68170629D01*
X120812336Y-68170629D02*
X120879679Y-68103286D01*
X120879679Y-68103286D02*
X120947023Y-67968599D01*
X120947023Y-67968599D02*
X120947023Y-67833912D01*
X120947023Y-67833912D02*
X120913351Y-67732897D01*
X120913351Y-67732897D02*
X120812336Y-67564538D01*
X120812336Y-67564538D02*
X120711321Y-67463523D01*
X120711321Y-67463523D02*
X120542962Y-67362507D01*
X120542962Y-67362507D02*
X120441947Y-67328836D01*
X120441947Y-67328836D02*
X120307260Y-67328836D01*
X120307260Y-67328836D02*
X120172573Y-67396179D01*
X120172573Y-67396179D02*
X120105229Y-67463523D01*
X120105229Y-67463523D02*
X120037886Y-67598210D01*
X120037886Y-67598210D02*
X120037886Y-67665553D01*
X119768512Y-67934927D02*
X119701168Y-67934927D01*
X119701168Y-67934927D02*
X119600153Y-67968599D01*
X119600153Y-67968599D02*
X119431794Y-68136958D01*
X119431794Y-68136958D02*
X119398122Y-68237973D01*
X119398122Y-68237973D02*
X119398122Y-68305316D01*
X119398122Y-68305316D02*
X119431794Y-68406332D01*
X119431794Y-68406332D02*
X119499138Y-68473675D01*
X119499138Y-68473675D02*
X119633825Y-68541019D01*
X119633825Y-68541019D02*
X120441947Y-68541019D01*
X120441947Y-68541019D02*
X120004214Y-68978751D01*
X74913719Y-55641069D02*
X74913719Y-54641069D01*
X74913719Y-54641069D02*
X74532767Y-54641069D01*
X74532767Y-54641069D02*
X74437529Y-54688688D01*
X74437529Y-54688688D02*
X74389910Y-54736307D01*
X74389910Y-54736307D02*
X74342291Y-54831545D01*
X74342291Y-54831545D02*
X74342291Y-54974402D01*
X74342291Y-54974402D02*
X74389910Y-55069640D01*
X74389910Y-55069640D02*
X74437529Y-55117259D01*
X74437529Y-55117259D02*
X74532767Y-55164878D01*
X74532767Y-55164878D02*
X74913719Y-55164878D01*
X73389910Y-55641069D02*
X73961338Y-55641069D01*
X73675624Y-55641069D02*
X73675624Y-54641069D01*
X73675624Y-54641069D02*
X73770862Y-54783926D01*
X73770862Y-54783926D02*
X73866100Y-54879164D01*
X73866100Y-54879164D02*
X73961338Y-54926783D01*
X92589166Y-58759580D02*
X92636785Y-58807200D01*
X92636785Y-58807200D02*
X92779642Y-58854819D01*
X92779642Y-58854819D02*
X92874880Y-58854819D01*
X92874880Y-58854819D02*
X93017737Y-58807200D01*
X93017737Y-58807200D02*
X93112975Y-58711961D01*
X93112975Y-58711961D02*
X93160594Y-58616723D01*
X93160594Y-58616723D02*
X93208213Y-58426247D01*
X93208213Y-58426247D02*
X93208213Y-58283390D01*
X93208213Y-58283390D02*
X93160594Y-58092914D01*
X93160594Y-58092914D02*
X93112975Y-57997676D01*
X93112975Y-57997676D02*
X93017737Y-57902438D01*
X93017737Y-57902438D02*
X92874880Y-57854819D01*
X92874880Y-57854819D02*
X92779642Y-57854819D01*
X92779642Y-57854819D02*
X92636785Y-57902438D01*
X92636785Y-57902438D02*
X92589166Y-57950057D01*
X91684404Y-57854819D02*
X92160594Y-57854819D01*
X92160594Y-57854819D02*
X92208213Y-58331009D01*
X92208213Y-58331009D02*
X92160594Y-58283390D01*
X92160594Y-58283390D02*
X92065356Y-58235771D01*
X92065356Y-58235771D02*
X91827261Y-58235771D01*
X91827261Y-58235771D02*
X91732023Y-58283390D01*
X91732023Y-58283390D02*
X91684404Y-58331009D01*
X91684404Y-58331009D02*
X91636785Y-58426247D01*
X91636785Y-58426247D02*
X91636785Y-58664342D01*
X91636785Y-58664342D02*
X91684404Y-58759580D01*
X91684404Y-58759580D02*
X91732023Y-58807200D01*
X91732023Y-58807200D02*
X91827261Y-58854819D01*
X91827261Y-58854819D02*
X92065356Y-58854819D01*
X92065356Y-58854819D02*
X92160594Y-58807200D01*
X92160594Y-58807200D02*
X92208213Y-58759580D01*
X111930550Y-58862095D02*
X111997894Y-58862095D01*
X111997894Y-58862095D02*
X112132581Y-58794751D01*
X112132581Y-58794751D02*
X112199924Y-58727408D01*
X112199924Y-58727408D02*
X112267268Y-58592721D01*
X112267268Y-58592721D02*
X112267268Y-58458034D01*
X112267268Y-58458034D02*
X112233596Y-58357019D01*
X112233596Y-58357019D02*
X112132581Y-58188660D01*
X112132581Y-58188660D02*
X112031566Y-58087645D01*
X112031566Y-58087645D02*
X111863207Y-57986629D01*
X111863207Y-57986629D02*
X111762192Y-57952958D01*
X111762192Y-57952958D02*
X111627505Y-57952958D01*
X111627505Y-57952958D02*
X111492818Y-58020301D01*
X111492818Y-58020301D02*
X111425474Y-58087645D01*
X111425474Y-58087645D02*
X111358131Y-58222332D01*
X111358131Y-58222332D02*
X111358131Y-58289675D01*
X111324459Y-59602873D02*
X111728520Y-59198812D01*
X111526489Y-59400843D02*
X110819383Y-58693736D01*
X110819383Y-58693736D02*
X110987741Y-58727408D01*
X110987741Y-58727408D02*
X111122428Y-58727408D01*
X111122428Y-58727408D02*
X111223444Y-58693736D01*
X106733955Y-51422708D02*
X106781575Y-51375089D01*
X106781575Y-51375089D02*
X106829194Y-51232232D01*
X106829194Y-51232232D02*
X106829194Y-51136994D01*
X106829194Y-51136994D02*
X106781575Y-50994137D01*
X106781575Y-50994137D02*
X106686336Y-50898899D01*
X106686336Y-50898899D02*
X106591098Y-50851280D01*
X106591098Y-50851280D02*
X106400622Y-50803661D01*
X106400622Y-50803661D02*
X106257765Y-50803661D01*
X106257765Y-50803661D02*
X106067289Y-50851280D01*
X106067289Y-50851280D02*
X105972051Y-50898899D01*
X105972051Y-50898899D02*
X105876813Y-50994137D01*
X105876813Y-50994137D02*
X105829194Y-51136994D01*
X105829194Y-51136994D02*
X105829194Y-51232232D01*
X105829194Y-51232232D02*
X105876813Y-51375089D01*
X105876813Y-51375089D02*
X105924432Y-51422708D01*
X105829194Y-51756042D02*
X105829194Y-52375089D01*
X105829194Y-52375089D02*
X106210146Y-52041756D01*
X106210146Y-52041756D02*
X106210146Y-52184613D01*
X106210146Y-52184613D02*
X106257765Y-52279851D01*
X106257765Y-52279851D02*
X106305384Y-52327470D01*
X106305384Y-52327470D02*
X106400622Y-52375089D01*
X106400622Y-52375089D02*
X106638717Y-52375089D01*
X106638717Y-52375089D02*
X106733955Y-52327470D01*
X106733955Y-52327470D02*
X106781575Y-52279851D01*
X106781575Y-52279851D02*
X106829194Y-52184613D01*
X106829194Y-52184613D02*
X106829194Y-51898899D01*
X106829194Y-51898899D02*
X106781575Y-51803661D01*
X106781575Y-51803661D02*
X106733955Y-51756042D01*
X67562920Y-80111399D02*
X66762920Y-80111399D01*
X66762920Y-80111399D02*
X66762920Y-80301875D01*
X66762920Y-80301875D02*
X66801015Y-80416161D01*
X66801015Y-80416161D02*
X66877205Y-80492351D01*
X66877205Y-80492351D02*
X66953396Y-80530446D01*
X66953396Y-80530446D02*
X67105777Y-80568542D01*
X67105777Y-80568542D02*
X67220063Y-80568542D01*
X67220063Y-80568542D02*
X67372444Y-80530446D01*
X67372444Y-80530446D02*
X67448634Y-80492351D01*
X67448634Y-80492351D02*
X67524825Y-80416161D01*
X67524825Y-80416161D02*
X67562920Y-80301875D01*
X67562920Y-80301875D02*
X67562920Y-80111399D01*
X67562920Y-81330446D02*
X67562920Y-80873303D01*
X67562920Y-81101875D02*
X66762920Y-81101875D01*
X66762920Y-81101875D02*
X66877205Y-81025684D01*
X66877205Y-81025684D02*
X66953396Y-80949494D01*
X66953396Y-80949494D02*
X66991491Y-80873303D01*
X95084819Y-62318095D02*
X95894342Y-62318095D01*
X95894342Y-62318095D02*
X95989580Y-62365714D01*
X95989580Y-62365714D02*
X96037200Y-62413333D01*
X96037200Y-62413333D02*
X96084819Y-62508571D01*
X96084819Y-62508571D02*
X96084819Y-62699047D01*
X96084819Y-62699047D02*
X96037200Y-62794285D01*
X96037200Y-62794285D02*
X95989580Y-62841904D01*
X95989580Y-62841904D02*
X95894342Y-62889523D01*
X95894342Y-62889523D02*
X95084819Y-62889523D01*
X96084819Y-63889523D02*
X96084819Y-63318095D01*
X96084819Y-63603809D02*
X95084819Y-63603809D01*
X95084819Y-63603809D02*
X95227676Y-63508571D01*
X95227676Y-63508571D02*
X95322914Y-63413333D01*
X95322914Y-63413333D02*
X95370533Y-63318095D01*
X96674642Y-87140138D02*
X96674642Y-85640138D01*
X96674642Y-85640138D02*
X96317499Y-85640138D01*
X96317499Y-85640138D02*
X96103213Y-85711567D01*
X96103213Y-85711567D02*
X95960356Y-85854424D01*
X95960356Y-85854424D02*
X95888927Y-85997281D01*
X95888927Y-85997281D02*
X95817499Y-86282995D01*
X95817499Y-86282995D02*
X95817499Y-86497281D01*
X95817499Y-86497281D02*
X95888927Y-86782995D01*
X95888927Y-86782995D02*
X95960356Y-86925852D01*
X95960356Y-86925852D02*
X96103213Y-87068710D01*
X96103213Y-87068710D02*
X96317499Y-87140138D01*
X96317499Y-87140138D02*
X96674642Y-87140138D01*
X94531785Y-85640138D02*
X94817499Y-85640138D01*
X94817499Y-85640138D02*
X94960356Y-85711567D01*
X94960356Y-85711567D02*
X95031785Y-85782995D01*
X95031785Y-85782995D02*
X95174642Y-85997281D01*
X95174642Y-85997281D02*
X95246070Y-86282995D01*
X95246070Y-86282995D02*
X95246070Y-86854424D01*
X95246070Y-86854424D02*
X95174642Y-86997281D01*
X95174642Y-86997281D02*
X95103213Y-87068710D01*
X95103213Y-87068710D02*
X94960356Y-87140138D01*
X94960356Y-87140138D02*
X94674642Y-87140138D01*
X94674642Y-87140138D02*
X94531785Y-87068710D01*
X94531785Y-87068710D02*
X94460356Y-86997281D01*
X94460356Y-86997281D02*
X94388927Y-86854424D01*
X94388927Y-86854424D02*
X94388927Y-86497281D01*
X94388927Y-86497281D02*
X94460356Y-86354424D01*
X94460356Y-86354424D02*
X94531785Y-86282995D01*
X94531785Y-86282995D02*
X94674642Y-86211567D01*
X94674642Y-86211567D02*
X94960356Y-86211567D01*
X94960356Y-86211567D02*
X95103213Y-86282995D01*
X95103213Y-86282995D02*
X95174642Y-86354424D01*
X95174642Y-86354424D02*
X95246070Y-86497281D01*
X99875543Y-57119580D02*
X99923162Y-57167200D01*
X99923162Y-57167200D02*
X100066019Y-57214819D01*
X100066019Y-57214819D02*
X100161257Y-57214819D01*
X100161257Y-57214819D02*
X100304114Y-57167200D01*
X100304114Y-57167200D02*
X100399352Y-57071961D01*
X100399352Y-57071961D02*
X100446971Y-56976723D01*
X100446971Y-56976723D02*
X100494590Y-56786247D01*
X100494590Y-56786247D02*
X100494590Y-56643390D01*
X100494590Y-56643390D02*
X100446971Y-56452914D01*
X100446971Y-56452914D02*
X100399352Y-56357676D01*
X100399352Y-56357676D02*
X100304114Y-56262438D01*
X100304114Y-56262438D02*
X100161257Y-56214819D01*
X100161257Y-56214819D02*
X100066019Y-56214819D01*
X100066019Y-56214819D02*
X99923162Y-56262438D01*
X99923162Y-56262438D02*
X99875543Y-56310057D01*
X99304114Y-56643390D02*
X99399352Y-56595771D01*
X99399352Y-56595771D02*
X99446971Y-56548152D01*
X99446971Y-56548152D02*
X99494590Y-56452914D01*
X99494590Y-56452914D02*
X99494590Y-56405295D01*
X99494590Y-56405295D02*
X99446971Y-56310057D01*
X99446971Y-56310057D02*
X99399352Y-56262438D01*
X99399352Y-56262438D02*
X99304114Y-56214819D01*
X99304114Y-56214819D02*
X99113638Y-56214819D01*
X99113638Y-56214819D02*
X99018400Y-56262438D01*
X99018400Y-56262438D02*
X98970781Y-56310057D01*
X98970781Y-56310057D02*
X98923162Y-56405295D01*
X98923162Y-56405295D02*
X98923162Y-56452914D01*
X98923162Y-56452914D02*
X98970781Y-56548152D01*
X98970781Y-56548152D02*
X99018400Y-56595771D01*
X99018400Y-56595771D02*
X99113638Y-56643390D01*
X99113638Y-56643390D02*
X99304114Y-56643390D01*
X99304114Y-56643390D02*
X99399352Y-56691009D01*
X99399352Y-56691009D02*
X99446971Y-56738628D01*
X99446971Y-56738628D02*
X99494590Y-56833866D01*
X99494590Y-56833866D02*
X99494590Y-57024342D01*
X99494590Y-57024342D02*
X99446971Y-57119580D01*
X99446971Y-57119580D02*
X99399352Y-57167200D01*
X99399352Y-57167200D02*
X99304114Y-57214819D01*
X99304114Y-57214819D02*
X99113638Y-57214819D01*
X99113638Y-57214819D02*
X99018400Y-57167200D01*
X99018400Y-57167200D02*
X98970781Y-57119580D01*
X98970781Y-57119580D02*
X98923162Y-57024342D01*
X98923162Y-57024342D02*
X98923162Y-56833866D01*
X98923162Y-56833866D02*
X98970781Y-56738628D01*
X98970781Y-56738628D02*
X99018400Y-56691009D01*
X99018400Y-56691009D02*
X99113638Y-56643390D01*
X105196666Y-71018442D02*
X105529999Y-70542251D01*
X105768094Y-71018442D02*
X105768094Y-70018442D01*
X105768094Y-70018442D02*
X105387142Y-70018442D01*
X105387142Y-70018442D02*
X105291904Y-70066061D01*
X105291904Y-70066061D02*
X105244285Y-70113680D01*
X105244285Y-70113680D02*
X105196666Y-70208918D01*
X105196666Y-70208918D02*
X105196666Y-70351775D01*
X105196666Y-70351775D02*
X105244285Y-70447013D01*
X105244285Y-70447013D02*
X105291904Y-70494632D01*
X105291904Y-70494632D02*
X105387142Y-70542251D01*
X105387142Y-70542251D02*
X105768094Y-70542251D01*
X104244285Y-71018442D02*
X104815713Y-71018442D01*
X104529999Y-71018442D02*
X104529999Y-70018442D01*
X104529999Y-70018442D02*
X104625237Y-70161299D01*
X104625237Y-70161299D02*
X104720475Y-70256537D01*
X104720475Y-70256537D02*
X104815713Y-70304156D01*
X135229709Y-60070823D02*
X135086852Y-60118442D01*
X135086852Y-60118442D02*
X134848757Y-60118442D01*
X134848757Y-60118442D02*
X134753519Y-60070823D01*
X134753519Y-60070823D02*
X134705900Y-60023203D01*
X134705900Y-60023203D02*
X134658281Y-59927965D01*
X134658281Y-59927965D02*
X134658281Y-59832727D01*
X134658281Y-59832727D02*
X134705900Y-59737489D01*
X134705900Y-59737489D02*
X134753519Y-59689870D01*
X134753519Y-59689870D02*
X134848757Y-59642251D01*
X134848757Y-59642251D02*
X135039233Y-59594632D01*
X135039233Y-59594632D02*
X135134471Y-59547013D01*
X135134471Y-59547013D02*
X135182090Y-59499394D01*
X135182090Y-59499394D02*
X135229709Y-59404156D01*
X135229709Y-59404156D02*
X135229709Y-59308918D01*
X135229709Y-59308918D02*
X135182090Y-59213680D01*
X135182090Y-59213680D02*
X135134471Y-59166061D01*
X135134471Y-59166061D02*
X135039233Y-59118442D01*
X135039233Y-59118442D02*
X134801138Y-59118442D01*
X134801138Y-59118442D02*
X134658281Y-59166061D01*
X134324947Y-59118442D02*
X134086852Y-60118442D01*
X134086852Y-60118442D02*
X133896376Y-59404156D01*
X133896376Y-59404156D02*
X133705900Y-60118442D01*
X133705900Y-60118442D02*
X133467805Y-59118442D01*
X132610662Y-59118442D02*
X133086852Y-59118442D01*
X133086852Y-59118442D02*
X133134471Y-59594632D01*
X133134471Y-59594632D02*
X133086852Y-59547013D01*
X133086852Y-59547013D02*
X132991614Y-59499394D01*
X132991614Y-59499394D02*
X132753519Y-59499394D01*
X132753519Y-59499394D02*
X132658281Y-59547013D01*
X132658281Y-59547013D02*
X132610662Y-59594632D01*
X132610662Y-59594632D02*
X132563043Y-59689870D01*
X132563043Y-59689870D02*
X132563043Y-59927965D01*
X132563043Y-59927965D02*
X132610662Y-60023203D01*
X132610662Y-60023203D02*
X132658281Y-60070823D01*
X132658281Y-60070823D02*
X132753519Y-60118442D01*
X132753519Y-60118442D02*
X132991614Y-60118442D01*
X132991614Y-60118442D02*
X133086852Y-60070823D01*
X133086852Y-60070823D02*
X133134471Y-60023203D01*
X115674642Y-87140138D02*
X115674642Y-85640138D01*
X115674642Y-85640138D02*
X115317499Y-85640138D01*
X115317499Y-85640138D02*
X115103213Y-85711567D01*
X115103213Y-85711567D02*
X114960356Y-85854424D01*
X114960356Y-85854424D02*
X114888927Y-85997281D01*
X114888927Y-85997281D02*
X114817499Y-86282995D01*
X114817499Y-86282995D02*
X114817499Y-86497281D01*
X114817499Y-86497281D02*
X114888927Y-86782995D01*
X114888927Y-86782995D02*
X114960356Y-86925852D01*
X114960356Y-86925852D02*
X115103213Y-87068710D01*
X115103213Y-87068710D02*
X115317499Y-87140138D01*
X115317499Y-87140138D02*
X115674642Y-87140138D01*
X114317499Y-85640138D02*
X113317499Y-85640138D01*
X113317499Y-85640138D02*
X113960356Y-87140138D01*
X91626666Y-55884819D02*
X91959999Y-55408628D01*
X92198094Y-55884819D02*
X92198094Y-54884819D01*
X92198094Y-54884819D02*
X91817142Y-54884819D01*
X91817142Y-54884819D02*
X91721904Y-54932438D01*
X91721904Y-54932438D02*
X91674285Y-54980057D01*
X91674285Y-54980057D02*
X91626666Y-55075295D01*
X91626666Y-55075295D02*
X91626666Y-55218152D01*
X91626666Y-55218152D02*
X91674285Y-55313390D01*
X91674285Y-55313390D02*
X91721904Y-55361009D01*
X91721904Y-55361009D02*
X91817142Y-55408628D01*
X91817142Y-55408628D02*
X92198094Y-55408628D01*
X91293332Y-54884819D02*
X90674285Y-54884819D01*
X90674285Y-54884819D02*
X91007618Y-55265771D01*
X91007618Y-55265771D02*
X90864761Y-55265771D01*
X90864761Y-55265771D02*
X90769523Y-55313390D01*
X90769523Y-55313390D02*
X90721904Y-55361009D01*
X90721904Y-55361009D02*
X90674285Y-55456247D01*
X90674285Y-55456247D02*
X90674285Y-55694342D01*
X90674285Y-55694342D02*
X90721904Y-55789580D01*
X90721904Y-55789580D02*
X90769523Y-55837200D01*
X90769523Y-55837200D02*
X90864761Y-55884819D01*
X90864761Y-55884819D02*
X91150475Y-55884819D01*
X91150475Y-55884819D02*
X91245713Y-55837200D01*
X91245713Y-55837200D02*
X91293332Y-55789580D01*
X105662920Y-79727024D02*
X104862920Y-79727024D01*
X104862920Y-79727024D02*
X104862920Y-79917500D01*
X104862920Y-79917500D02*
X104901015Y-80031786D01*
X104901015Y-80031786D02*
X104977205Y-80107976D01*
X104977205Y-80107976D02*
X105053396Y-80146071D01*
X105053396Y-80146071D02*
X105205777Y-80184167D01*
X105205777Y-80184167D02*
X105320063Y-80184167D01*
X105320063Y-80184167D02*
X105472444Y-80146071D01*
X105472444Y-80146071D02*
X105548634Y-80107976D01*
X105548634Y-80107976D02*
X105624825Y-80031786D01*
X105624825Y-80031786D02*
X105662920Y-79917500D01*
X105662920Y-79917500D02*
X105662920Y-79727024D01*
X104862920Y-80450833D02*
X104862920Y-80946071D01*
X104862920Y-80946071D02*
X105167682Y-80679405D01*
X105167682Y-80679405D02*
X105167682Y-80793690D01*
X105167682Y-80793690D02*
X105205777Y-80869881D01*
X105205777Y-80869881D02*
X105243872Y-80907976D01*
X105243872Y-80907976D02*
X105320063Y-80946071D01*
X105320063Y-80946071D02*
X105510539Y-80946071D01*
X105510539Y-80946071D02*
X105586729Y-80907976D01*
X105586729Y-80907976D02*
X105624825Y-80869881D01*
X105624825Y-80869881D02*
X105662920Y-80793690D01*
X105662920Y-80793690D02*
X105662920Y-80565119D01*
X105662920Y-80565119D02*
X105624825Y-80488928D01*
X105624825Y-80488928D02*
X105586729Y-80450833D01*
X110305830Y-51422708D02*
X110353450Y-51375089D01*
X110353450Y-51375089D02*
X110401069Y-51232232D01*
X110401069Y-51232232D02*
X110401069Y-51136994D01*
X110401069Y-51136994D02*
X110353450Y-50994137D01*
X110353450Y-50994137D02*
X110258211Y-50898899D01*
X110258211Y-50898899D02*
X110162973Y-50851280D01*
X110162973Y-50851280D02*
X109972497Y-50803661D01*
X109972497Y-50803661D02*
X109829640Y-50803661D01*
X109829640Y-50803661D02*
X109639164Y-50851280D01*
X109639164Y-50851280D02*
X109543926Y-50898899D01*
X109543926Y-50898899D02*
X109448688Y-50994137D01*
X109448688Y-50994137D02*
X109401069Y-51136994D01*
X109401069Y-51136994D02*
X109401069Y-51232232D01*
X109401069Y-51232232D02*
X109448688Y-51375089D01*
X109448688Y-51375089D02*
X109496307Y-51422708D01*
X109401069Y-51756042D02*
X109401069Y-52422708D01*
X109401069Y-52422708D02*
X110401069Y-51994137D01*
X89686041Y-68281455D02*
X89733660Y-68329075D01*
X89733660Y-68329075D02*
X89876517Y-68376694D01*
X89876517Y-68376694D02*
X89971755Y-68376694D01*
X89971755Y-68376694D02*
X90114612Y-68329075D01*
X90114612Y-68329075D02*
X90209850Y-68233836D01*
X90209850Y-68233836D02*
X90257469Y-68138598D01*
X90257469Y-68138598D02*
X90305088Y-67948122D01*
X90305088Y-67948122D02*
X90305088Y-67805265D01*
X90305088Y-67805265D02*
X90257469Y-67614789D01*
X90257469Y-67614789D02*
X90209850Y-67519551D01*
X90209850Y-67519551D02*
X90114612Y-67424313D01*
X90114612Y-67424313D02*
X89971755Y-67376694D01*
X89971755Y-67376694D02*
X89876517Y-67376694D01*
X89876517Y-67376694D02*
X89733660Y-67424313D01*
X89733660Y-67424313D02*
X89686041Y-67471932D01*
X88828898Y-67376694D02*
X89019374Y-67376694D01*
X89019374Y-67376694D02*
X89114612Y-67424313D01*
X89114612Y-67424313D02*
X89162231Y-67471932D01*
X89162231Y-67471932D02*
X89257469Y-67614789D01*
X89257469Y-67614789D02*
X89305088Y-67805265D01*
X89305088Y-67805265D02*
X89305088Y-68186217D01*
X89305088Y-68186217D02*
X89257469Y-68281455D01*
X89257469Y-68281455D02*
X89209850Y-68329075D01*
X89209850Y-68329075D02*
X89114612Y-68376694D01*
X89114612Y-68376694D02*
X88924136Y-68376694D01*
X88924136Y-68376694D02*
X88828898Y-68329075D01*
X88828898Y-68329075D02*
X88781279Y-68281455D01*
X88781279Y-68281455D02*
X88733660Y-68186217D01*
X88733660Y-68186217D02*
X88733660Y-67948122D01*
X88733660Y-67948122D02*
X88781279Y-67852884D01*
X88781279Y-67852884D02*
X88828898Y-67805265D01*
X88828898Y-67805265D02*
X88924136Y-67757646D01*
X88924136Y-67757646D02*
X89114612Y-67757646D01*
X89114612Y-67757646D02*
X89209850Y-67805265D01*
X89209850Y-67805265D02*
X89257469Y-67852884D01*
X89257469Y-67852884D02*
X89305088Y-67948122D01*
D11*
%TO.C,D4*%
X125075625Y-77836250D02*
X125075625Y-83636250D01*
X125075625Y-83661250D02*
X127475625Y-83661250D01*
X127475625Y-77836250D02*
X125075625Y-77836250D01*
X127475625Y-82911250D02*
X125075625Y-82911250D01*
X127475625Y-83086250D02*
X125075625Y-83086250D01*
X127475625Y-83261250D02*
X125075625Y-83261250D01*
X127475625Y-83436250D02*
X125075625Y-83436250D01*
X127475625Y-83561250D02*
X125075625Y-83561250D01*
X127475625Y-83636250D02*
X127475625Y-77836250D01*
D12*
%TO.C,C4*%
X89630627Y-71248125D02*
X89108123Y-71248125D01*
X89630627Y-72718125D02*
X89108123Y-72718125D01*
%TO.C,R4*%
X95687064Y-54345000D02*
X95232936Y-54345000D01*
X95687064Y-55815000D02*
X95232936Y-55815000D01*
%TO.C,R5*%
X81725000Y-67307064D02*
X81725000Y-66852936D01*
X83195000Y-67307064D02*
X83195000Y-66852936D01*
D13*
%TO.C,D8*%
X130360000Y-88892500D02*
X130360000Y-89292500D01*
X130560000Y-89092500D02*
X130160000Y-89092500D01*
X138460000Y-90592500D02*
X138860000Y-90592500D01*
D11*
%TO.C,D2*%
X86975625Y-77901875D02*
X86975625Y-83701875D01*
X86975625Y-83726875D02*
X89375625Y-83726875D01*
X89375625Y-77901875D02*
X86975625Y-77901875D01*
X89375625Y-82976875D02*
X86975625Y-82976875D01*
X89375625Y-83151875D02*
X86975625Y-83151875D01*
X89375625Y-83326875D02*
X86975625Y-83326875D01*
X89375625Y-83501875D02*
X86975625Y-83501875D01*
X89375625Y-83626875D02*
X86975625Y-83626875D01*
X89375625Y-83701875D02*
X89375625Y-77901875D01*
D12*
%TO.C,Y1*%
X112563078Y-63293693D02*
X115759201Y-60097570D01*
X115759201Y-60097570D02*
X119662430Y-64000799D01*
D13*
%TO.C,D5*%
X73360000Y-88892500D02*
X73360000Y-89292500D01*
X73560000Y-89092500D02*
X73160000Y-89092500D01*
X81460000Y-90592500D02*
X81860000Y-90592500D01*
D12*
%TO.C,C2*%
X118345797Y-66578633D02*
X118715264Y-66209166D01*
X119385244Y-67618080D02*
X119754711Y-67248613D01*
%TO.C,P1*%
X69580625Y-44656250D02*
X78770625Y-44656250D01*
X69580625Y-47386250D02*
X69580625Y-44656250D01*
X69580625Y-50986250D02*
X69580625Y-50086250D01*
X69700625Y-54066250D02*
X78650625Y-54066250D01*
X78770625Y-47386250D02*
X78770625Y-44656250D01*
X78770625Y-50986250D02*
X78770625Y-50086250D01*
%TO.C,C5*%
X92683752Y-59345000D02*
X92161248Y-59345000D01*
X92683752Y-60815000D02*
X92161248Y-60815000D01*
%TO.C,C1*%
X112411387Y-59209166D02*
X112041920Y-59578633D01*
X113450834Y-60248613D02*
X113081367Y-60618080D01*
%TO.C,C3*%
X103959375Y-51850627D02*
X103959375Y-51328123D01*
X105429375Y-51850627D02*
X105429375Y-51328123D01*
D11*
%TO.C,D1*%
X67925625Y-77901875D02*
X67925625Y-83701875D01*
X67925625Y-83726875D02*
X70325625Y-83726875D01*
X70325625Y-77901875D02*
X67925625Y-77901875D01*
X70325625Y-82976875D02*
X67925625Y-82976875D01*
X70325625Y-83151875D02*
X67925625Y-83151875D01*
X70325625Y-83326875D02*
X67925625Y-83326875D01*
X70325625Y-83501875D02*
X67925625Y-83501875D01*
X70325625Y-83626875D02*
X67925625Y-83626875D01*
X70325625Y-83701875D02*
X70325625Y-77901875D01*
D12*
%TO.C,U1*%
X96850000Y-59470000D02*
X96850000Y-60195000D01*
X96850000Y-65965000D02*
X96850000Y-66690000D01*
X96850000Y-66690000D02*
X97575000Y-66690000D01*
X97575000Y-59470000D02*
X96850000Y-59470000D01*
X103345000Y-66690000D02*
X104070000Y-66690000D01*
X104070000Y-59470000D02*
X103345000Y-59470000D01*
X104070000Y-60195000D02*
X104070000Y-59470000D01*
X104070000Y-66690000D02*
X104070000Y-65965000D01*
X97960000Y-58940000D02*
X97720000Y-58610000D01*
X98200000Y-58610000D01*
X97960000Y-58940000D01*
G36*
X97960000Y-58940000D02*
G01*
X97720000Y-58610000D01*
X98200000Y-58610000D01*
X97960000Y-58940000D01*
G37*
D13*
%TO.C,D6*%
X92360000Y-88892500D02*
X92360000Y-89292500D01*
X92560000Y-89092500D02*
X92160000Y-89092500D01*
X100460000Y-90592500D02*
X100860000Y-90592500D01*
D12*
%TO.C,C8*%
X99447625Y-54345000D02*
X99970129Y-54345000D01*
X99447625Y-55815000D02*
X99970129Y-55815000D01*
%TO.C,R1*%
X104802936Y-68178623D02*
X105257064Y-68178623D01*
X104802936Y-69648623D02*
X105257064Y-69648623D01*
%TO.C,SW5*%
X131146377Y-56913623D02*
X131146377Y-54913623D01*
X132196377Y-53613623D02*
X132646377Y-53163623D01*
X132196377Y-58213623D02*
X132646377Y-58663623D01*
X132646377Y-53163623D02*
X135146377Y-53163623D01*
X132646377Y-58663623D02*
X135146377Y-58663623D01*
X135596377Y-53613623D02*
X135146377Y-53163623D01*
X135596377Y-58213623D02*
X135146377Y-58663623D01*
X136646377Y-56913623D02*
X136646377Y-54913623D01*
D13*
%TO.C,D7*%
X111360000Y-88892500D02*
X111360000Y-89292500D01*
X111560000Y-89092500D02*
X111160000Y-89092500D01*
X119460000Y-90592500D02*
X119860000Y-90592500D01*
D12*
%TO.C,R3*%
X91687064Y-56345000D02*
X91232936Y-56345000D01*
X91687064Y-57815000D02*
X91232936Y-57815000D01*
D11*
%TO.C,D3*%
X106025625Y-77517500D02*
X106025625Y-83317500D01*
X106025625Y-83342500D02*
X108425625Y-83342500D01*
X108425625Y-77517500D02*
X106025625Y-77517500D01*
X108425625Y-82592500D02*
X106025625Y-82592500D01*
X108425625Y-82767500D02*
X106025625Y-82767500D01*
X108425625Y-82942500D02*
X106025625Y-82942500D01*
X108425625Y-83117500D02*
X106025625Y-83117500D01*
X108425625Y-83242500D02*
X106025625Y-83242500D01*
X108425625Y-83317500D02*
X108425625Y-77517500D01*
D12*
%TO.C,C7*%
X107531250Y-51850627D02*
X107531250Y-51328123D01*
X109001250Y-51850627D02*
X109001250Y-51328123D01*
%TO.C,C6*%
X89780627Y-68866875D02*
X89258123Y-68866875D01*
X89780627Y-70336875D02*
X89258123Y-70336875D01*
%TD*%
D14*
%TO.C,D4*%
X126275625Y-84536250D03*
D15*
X126275625Y-76736250D03*
%TD*%
D14*
%TO.C,D2*%
X88175625Y-84601875D03*
D15*
X88175625Y-76801875D03*
%TD*%
D14*
%TO.C,D1*%
X69125625Y-84601875D03*
D15*
X69125625Y-76801875D03*
%TD*%
D14*
%TO.C,D3*%
X107225625Y-84217500D03*
D15*
X107225625Y-76417500D03*
%TD*%
M02*
