%TF.GenerationSoftware,KiCad,Pcbnew,9.0.7*%
%TF.CreationDate,2026-02-17T21:12:57+08:00*%
%TF.ProjectId,3rd testing,33726420-7465-4737-9469-6e672e6b6963,rev?*%
%TF.SameCoordinates,Original*%
%TF.FileFunction,Copper,L1,Top*%
%TF.FilePolarity,Positive*%
%FSLAX46Y46*%
G04 Gerber Fmt 4.6, Leading zero omitted, Abs format (unit mm)*
G04 Created by KiCad (PCBNEW 9.0.7) date 2026-02-17 21:12:57*
%MOMM*%
%LPD*%
G01*
G04 APERTURE LIST*
%TA.AperFunction,ComponentPad*%
%ADD10C,2.500000*%
%TD*%
%TA.AperFunction,SMDPad,CuDef*%
%ADD11R,1.000000X3.150000*%
%TD*%
%TA.AperFunction,ComponentPad*%
%ADD12R,2.000000X2.000000*%
%TD*%
%TA.AperFunction,ComponentPad*%
%ADD13C,2.000000*%
%TD*%
%TA.AperFunction,ComponentPad*%
%ADD14R,3.200000X2.000000*%
%TD*%
%TA.AperFunction,ComponentPad*%
%ADD15R,1.600000X1.600000*%
%TD*%
%TA.AperFunction,ComponentPad*%
%ADD16C,1.600000*%
%TD*%
%TA.AperFunction,ComponentPad*%
%ADD17C,0.700000*%
%TD*%
%TA.AperFunction,ComponentPad*%
%ADD18O,0.900000X1.700000*%
%TD*%
%TA.AperFunction,ComponentPad*%
%ADD19O,0.900000X2.400000*%
%TD*%
%TA.AperFunction,ViaPad*%
%ADD20C,0.600000*%
%TD*%
%TA.AperFunction,Conductor*%
%ADD21C,0.200000*%
%TD*%
G04 APERTURE END LIST*
D10*
%TO.P,SW1,1,1*%
%TO.N,Net-(D1-A)*%
X73650000Y-82540000D03*
%TO.P,SW1,2,2*%
%TO.N,Col0*%
X80000000Y-80000000D03*
%TD*%
D11*
%TO.P,PROG1,1,Pin_1*%
%TO.N,Net-(PROG1-Pin_1)*%
X118664375Y-52045000D03*
%TO.P,PROG1,2,Pin_2*%
%TO.N,VCC*%
X118664375Y-46995000D03*
%TO.P,PROG1,3,Pin_3*%
%TO.N,Net-(PROG1-Pin_3)*%
X121204375Y-52045000D03*
%TO.P,PROG1,4,Pin_4*%
%TO.N,Net-(PROG1-Pin_4)*%
X121204375Y-46995000D03*
%TO.P,PROG1,5,Pin_5*%
%TO.N,Net-(PROG1-Pin_5)*%
X123744375Y-52045000D03*
%TO.P,PROG1,6,Pin_6*%
%TO.N,GND*%
X123744375Y-46995000D03*
%TD*%
D10*
%TO.P,SW2,1,1*%
%TO.N,Net-(D2-A)*%
X92650000Y-82540000D03*
%TO.P,SW2,2,2*%
%TO.N,Col1*%
X99000000Y-80000000D03*
%TD*%
D12*
%TO.P,SW6,A,A*%
%TO.N,Net-(U1-ICP1{slash}PD4)*%
X149685000Y-82055000D03*
D13*
%TO.P,SW6,B,B*%
%TO.N,Net-(U1-T1{slash}PD6)*%
X149685000Y-87055000D03*
%TO.P,SW6,C,C*%
%TO.N,GND*%
X149685000Y-84555000D03*
D14*
%TO.P,SW6,MP*%
%TO.N,N/C*%
X157185000Y-78955000D03*
X157185000Y-90155000D03*
D13*
%TO.P,SW6,S1,S1*%
%TO.N,Net-(U1-T0{slash}PD7)*%
X164185000Y-87055000D03*
%TO.P,SW6,S2,S2*%
%TO.N,GND*%
X164185000Y-82055000D03*
%TD*%
D10*
%TO.P,SW4,1,1*%
%TO.N,Net-(D4-A)*%
X130650000Y-82540000D03*
%TO.P,SW4,2,2*%
%TO.N,Col3*%
X137000000Y-80000000D03*
%TD*%
%TO.P,SW3,1,1*%
%TO.N,Net-(D3-A)*%
X111650000Y-82540000D03*
%TO.P,SW3,2,2*%
%TO.N,Col2*%
X118000000Y-80000000D03*
%TD*%
D15*
%TO.P,D4,1,K*%
%TO.N,Row0*%
X126275625Y-84536250D03*
D16*
%TO.P,D4,2,A*%
%TO.N,Net-(D4-A)*%
X126275625Y-76736250D03*
%TD*%
D15*
%TO.P,D2,1,K*%
%TO.N,Row0*%
X88175625Y-84601875D03*
D16*
%TO.P,D2,2,A*%
%TO.N,Net-(D2-A)*%
X88175625Y-76801875D03*
%TD*%
D17*
%TO.P,P1,A1,GND*%
%TO.N,GND*%
X71200625Y-53386250D03*
%TO.P,P1,A4,VBUS*%
%TO.N,VCC*%
X72050625Y-53386250D03*
%TO.P,P1,A5,CC*%
%TO.N,Net-(P1-CC)*%
X72900625Y-53386250D03*
%TO.P,P1,A6,D+*%
%TO.N,Net-(P1-D+)*%
X73750625Y-53386250D03*
%TO.P,P1,A7,D-*%
%TO.N,Net-(P1-D-)*%
X74600625Y-53386250D03*
%TO.P,P1,A8*%
%TO.N,N/C*%
X75450625Y-53386250D03*
%TO.P,P1,A9,VBUS*%
%TO.N,VCC*%
X76300625Y-53386250D03*
%TO.P,P1,A12,GND*%
%TO.N,GND*%
X77150625Y-53386250D03*
%TO.P,P1,B1,GND*%
X77150625Y-52036250D03*
%TO.P,P1,B4,VBUS*%
%TO.N,VCC*%
X76300625Y-52036250D03*
%TO.P,P1,B5,VCONN*%
%TO.N,unconnected-(P1-VCONN-PadB5)*%
X75450625Y-52036250D03*
%TO.P,P1,B6*%
%TO.N,N/C*%
X74600625Y-52036250D03*
%TO.P,P1,B7*%
X73750625Y-52036250D03*
%TO.P,P1,B8*%
X72900625Y-52036250D03*
%TO.P,P1,B9,VBUS*%
%TO.N,VCC*%
X72050625Y-52036250D03*
%TO.P,P1,B12,GND*%
%TO.N,GND*%
X71200625Y-52036250D03*
D18*
%TO.P,P1,S1,SHIELD*%
X69850625Y-49026250D03*
D19*
X69850625Y-52406250D03*
D18*
X78500625Y-49026250D03*
D19*
X78500625Y-52406250D03*
%TD*%
D15*
%TO.P,D1,1,K*%
%TO.N,Row0*%
X69125625Y-84601875D03*
D16*
%TO.P,D1,2,A*%
%TO.N,Net-(D1-A)*%
X69125625Y-76801875D03*
%TD*%
D15*
%TO.P,D3,1,K*%
%TO.N,Row0*%
X107225625Y-84217500D03*
D16*
%TO.P,D3,2,A*%
%TO.N,Net-(D3-A)*%
X107225625Y-76417500D03*
%TD*%
D20*
%TO.N,GND*%
X110647500Y-51742500D03*
X111988125Y-94605000D03*
X135175567Y-93414375D03*
X91747500Y-94605000D03*
X97700625Y-94605000D03*
X128150254Y-57813623D03*
X85794375Y-76745625D03*
X116750625Y-94605000D03*
X118408771Y-55028771D03*
X85794375Y-71983125D03*
%TO.N,Row0*%
X103653750Y-73173750D03*
%TO.N,VCC*%
X105885000Y-54123750D03*
X103503750Y-70792500D03*
X105460000Y-58080000D03*
X99460000Y-69080000D03*
X104769375Y-57389375D03*
X97589737Y-57734737D03*
X102396937Y-57734737D03*
X92460000Y-69080000D03*
X110647500Y-50551875D03*
X107460000Y-60080000D03*
X76119375Y-69601875D03*
%TO.N,Net-(P1-D+)*%
X87460000Y-65080000D03*
X88460000Y-56080000D03*
%TO.N,Net-(PROG1-Pin_5)*%
X105580000Y-61080000D03*
X108030000Y-68913623D03*
X126125625Y-54013623D03*
%TO.N,Net-(PROG1-Pin_1)*%
X116600625Y-52933125D03*
%TO.N,Net-(PROG1-Pin_4)*%
X112239125Y-48960250D03*
%TO.N,Net-(D5-DOUT)*%
X91747500Y-95795625D03*
X100081875Y-95795625D03*
%TO.N,Net-(PROG1-Pin_3)*%
X101795937Y-57022188D03*
%TO.N,Net-(D5-DIN)*%
X97700625Y-58886250D03*
X77460000Y-73173750D03*
%TO.N,Net-(D6-DOUT)*%
X116750625Y-95795625D03*
X110797500Y-95795625D03*
%TO.N,Net-(D7-DOUT)*%
X139461000Y-88740375D03*
X131038125Y-95795625D03*
%TD*%
D21*
%TO.N,GND*%
X97700625Y-94605000D02*
X91747500Y-94605000D01*
X124935000Y-46980000D02*
X124920000Y-46995000D01*
X111988125Y-94605000D02*
X116750625Y-94605000D01*
X135175567Y-93414375D02*
X133984942Y-94605000D01*
X124920000Y-46995000D02*
X123744375Y-46995000D01*
X113933771Y-55028771D02*
X118408771Y-55028771D01*
X128150254Y-50195254D02*
X128150254Y-57813623D01*
X85794375Y-76745625D02*
X85794375Y-71983125D01*
X110647500Y-51742500D02*
X113933771Y-55028771D01*
X124935000Y-46980000D02*
X128150254Y-50195254D01*
X133984942Y-94605000D02*
X116750625Y-94605000D01*
X118408771Y-55028771D02*
X118460000Y-55080000D01*
%TO.N,Net-(D1-A)*%
X69125625Y-78015625D02*
X69125625Y-76801875D01*
X73650000Y-82540000D02*
X69125625Y-78015625D01*
%TO.N,Row0*%
X123380875Y-87431000D02*
X110439125Y-87431000D01*
X123894375Y-82155000D02*
X123894375Y-75555000D01*
X126275625Y-84536250D02*
X123380875Y-87431000D01*
X104012125Y-87431000D02*
X107225625Y-84217500D01*
X110439125Y-87431000D02*
X107225625Y-84217500D01*
X88175625Y-84601875D02*
X91004750Y-87431000D01*
X69125625Y-84601875D02*
X71954750Y-87431000D01*
X85346500Y-87431000D02*
X88175625Y-84601875D01*
X91004750Y-87431000D02*
X104012125Y-87431000D01*
X71954750Y-87431000D02*
X85346500Y-87431000D01*
X126275625Y-73173750D02*
X103653750Y-73173750D01*
X126275625Y-84536250D02*
X123894375Y-82155000D01*
X123894375Y-75555000D02*
X126275625Y-73173750D01*
%TO.N,Net-(D2-A)*%
X88175625Y-76801875D02*
X88175625Y-78065625D01*
X88175625Y-78065625D02*
X92650000Y-82540000D01*
%TO.N,Net-(D3-A)*%
X107225625Y-78115625D02*
X111650000Y-82540000D01*
X107225625Y-76417500D02*
X107225625Y-78115625D01*
%TO.N,Net-(D4-A)*%
X126275625Y-76736250D02*
X126275625Y-78165625D01*
X126275625Y-78165625D02*
X130650000Y-82540000D01*
%TO.N,VCC*%
X75616026Y-69098526D02*
X76119375Y-69601875D01*
X110647500Y-49361250D02*
X110647500Y-50551875D01*
X102396937Y-57734737D02*
X97589737Y-57734737D01*
X104769375Y-57389375D02*
X105885000Y-56273750D01*
X99460000Y-69080000D02*
X101791250Y-69080000D01*
X101791250Y-69080000D02*
X103503750Y-70792500D01*
X75616026Y-61440000D02*
X75616026Y-69098526D01*
X92460000Y-69080000D02*
X99460000Y-69080000D01*
X113013750Y-46995000D02*
X110647500Y-49361250D01*
X105460000Y-58080000D02*
X107460000Y-60080000D01*
X76300625Y-60755401D02*
X76300625Y-53386250D01*
X105885000Y-56273750D02*
X105885000Y-54123750D01*
X75616026Y-61440000D02*
X76300625Y-60755401D01*
X118664375Y-46995000D02*
X113013750Y-46995000D01*
%TO.N,Net-(P1-D+)*%
X87460000Y-65080000D02*
X88460000Y-64080000D01*
X88460000Y-64080000D02*
X88460000Y-56080000D01*
%TO.N,Net-(PROG1-Pin_5)*%
X125712998Y-54013623D02*
X123744375Y-52045000D01*
X126125625Y-54013623D02*
X125712998Y-54013623D01*
X105580000Y-61080000D02*
X105912754Y-61080000D01*
X108030000Y-63197246D02*
X108030000Y-68913623D01*
X105912754Y-61080000D02*
X108030000Y-63197246D01*
%TO.N,Net-(PROG1-Pin_1)*%
X117776250Y-52933125D02*
X118664375Y-52045000D01*
X116600625Y-52933125D02*
X117776250Y-52933125D01*
%TO.N,Net-(PROG1-Pin_4)*%
X119239125Y-48960250D02*
X112239125Y-48960250D01*
X121204375Y-46995000D02*
X119239125Y-48960250D01*
%TO.N,Net-(D5-DOUT)*%
X91747500Y-95795625D02*
X100081875Y-95795625D01*
%TO.N,Net-(PROG1-Pin_3)*%
X121204375Y-53120000D02*
X121204375Y-52045000D01*
X118694604Y-55629771D02*
X121204375Y-53120000D01*
X105295375Y-53522750D02*
X111860650Y-53522750D01*
X113967671Y-55629771D02*
X118694604Y-55629771D01*
X101795937Y-57022188D02*
X105295375Y-53522750D01*
X111860650Y-53522750D02*
X113967671Y-55629771D01*
%TO.N,Net-(D5-DIN)*%
X77460000Y-73173750D02*
X83413125Y-73173750D01*
X83413125Y-73173750D02*
X97700625Y-58886250D01*
%TO.N,Net-(D6-DOUT)*%
X110797500Y-95795625D02*
X116750625Y-95795625D01*
%TO.N,Net-(D7-DOUT)*%
X134846375Y-95795625D02*
X139461000Y-91181000D01*
X131038125Y-95795625D02*
X134846375Y-95795625D01*
X139461000Y-91181000D02*
X139461000Y-88740375D01*
X139461000Y-88740375D02*
X139372500Y-88651875D01*
%TD*%
M02*
