%TF.GenerationSoftware,KiCad,Pcbnew,9.0.7*%
%TF.CreationDate,2026-02-17T21:12:57+08:00*%
%TF.ProjectId,3rd testing,33726420-7465-4737-9469-6e672e6b6963,rev?*%
%TF.SameCoordinates,Original*%
%TF.FileFunction,Profile,NP*%
%FSLAX46Y46*%
G04 Gerber Fmt 4.6, Leading zero omitted, Abs format (unit mm)*
G04 Created by KiCad (PCBNEW 9.0.7) date 2026-02-17 21:12:57*
%MOMM*%
%LPD*%
G01*
G04 APERTURE LIST*
%TA.AperFunction,Profile*%
%ADD10C,0.050000*%
%TD*%
%TA.AperFunction,Profile*%
%ADD11C,0.010000*%
%TD*%
G04 APERTURE END LIST*
D10*
X63022500Y-48170625D02*
X63172500Y-105320625D01*
X170178750Y-74364375D02*
X142624212Y-44853998D01*
X171519375Y-106511200D02*
G75*
G02*
X167947500Y-110083075I-3571875J0D01*
G01*
X63172476Y-106511250D02*
X63172500Y-105320625D01*
X171519375Y-106511200D02*
X170671923Y-75555000D01*
X170178750Y-74364375D02*
G75*
G02*
X170671916Y-75555000I-1190650J-1190625D01*
G01*
X66744375Y-110083124D02*
X167947500Y-110083125D01*
X140413125Y-44184536D02*
G75*
G02*
X142624199Y-44854013I-25J-3986064D01*
G01*
X66594375Y-44598750D02*
X140413125Y-44184536D01*
X66744375Y-110083125D02*
G75*
G02*
X63172475Y-106511250I25J3571925D01*
G01*
X63022500Y-48170625D02*
G75*
G02*
X66594375Y-44598750I3571880J-5D01*
G01*
D11*
%TO.C,D8*%
X132760000Y-88342500D02*
X132760000Y-91342500D01*
X132760000Y-91342500D02*
X136160000Y-91342500D01*
X136160000Y-88342500D02*
X132760000Y-88342500D01*
X136160000Y-91342500D02*
X136160000Y-88342500D01*
%TO.C,D5*%
X75760000Y-88342500D02*
X75760000Y-91342500D01*
X75760000Y-91342500D02*
X79160000Y-91342500D01*
X79160000Y-88342500D02*
X75760000Y-88342500D01*
X79160000Y-91342500D02*
X79160000Y-88342500D01*
%TO.C,D6*%
X94760000Y-88342500D02*
X94760000Y-91342500D01*
X94760000Y-91342500D02*
X98160000Y-91342500D01*
X98160000Y-88342500D02*
X94760000Y-88342500D01*
X98160000Y-91342500D02*
X98160000Y-88342500D01*
%TO.C,D7*%
X113760000Y-88342500D02*
X113760000Y-91342500D01*
X113760000Y-91342500D02*
X117160000Y-91342500D01*
X117160000Y-88342500D02*
X113760000Y-88342500D01*
X117160000Y-91342500D02*
X117160000Y-88342500D01*
%TD*%
M02*
