%TF.GenerationSoftware,KiCad,Pcbnew,9.0.7*%
%TF.CreationDate,2026-02-17T21:12:57+08:00*%
%TF.ProjectId,3rd testing,33726420-7465-4737-9469-6e672e6b6963,rev?*%
%TF.SameCoordinates,Original*%
%TF.FileFunction,Soldermask,Top*%
%TF.FilePolarity,Negative*%
%FSLAX46Y46*%
G04 Gerber Fmt 4.6, Leading zero omitted, Abs format (unit mm)*
G04 Created by KiCad (PCBNEW 9.0.7) date 2026-02-17 21:12:57*
%MOMM*%
%LPD*%
G01*
G04 APERTURE LIST*
%ADD10C,2.100000*%
%ADD11C,1.750000*%
%ADD12C,4.000000*%
%ADD13C,2.500000*%
%ADD14R,1.000000X3.150000*%
%ADD15R,2.000000X2.000000*%
%ADD16C,2.000000*%
%ADD17R,3.200000X2.000000*%
%ADD18R,1.600000X1.600000*%
%ADD19C,1.600000*%
%ADD20C,0.700000*%
%ADD21O,0.900000X1.700000*%
%ADD22O,0.900000X2.400000*%
G04 APERTURE END LIST*
D10*
%TO.C,REF\u002A\u002A*%
X167947500Y-106511250D03*
%TD*%
D11*
%TO.C,SW1*%
X72380000Y-85080000D03*
D12*
X77460000Y-85080000D03*
D11*
X82540000Y-85080000D03*
D13*
X73650000Y-82540000D03*
X80000000Y-80000000D03*
%TD*%
D14*
%TO.C,PROG1*%
X118664375Y-52045000D03*
X118664375Y-46995000D03*
X121204375Y-52045000D03*
X121204375Y-46995000D03*
X123744375Y-52045000D03*
X123744375Y-46995000D03*
%TD*%
D11*
%TO.C,SW2*%
X91380000Y-85080000D03*
D12*
X96460000Y-85080000D03*
D11*
X101540000Y-85080000D03*
D13*
X92650000Y-82540000D03*
X99000000Y-80000000D03*
%TD*%
D10*
%TO.C,REF\u002A\u002A*%
X66744375Y-106511250D03*
%TD*%
%TO.C,REF\u002A\u002A*%
X140413125Y-48170625D03*
%TD*%
D15*
%TO.C,SW6*%
X149685000Y-82055000D03*
D16*
X149685000Y-87055000D03*
X149685000Y-84555000D03*
D17*
X157185000Y-78955000D03*
X157185000Y-90155000D03*
D16*
X164185000Y-87055000D03*
X164185000Y-82055000D03*
%TD*%
D10*
%TO.C,REF\u002A\u002A*%
X66594375Y-48170625D03*
%TD*%
D11*
%TO.C,SW4*%
X129380000Y-85080000D03*
D12*
X134460000Y-85080000D03*
D11*
X139540000Y-85080000D03*
D13*
X130650000Y-82540000D03*
X137000000Y-80000000D03*
%TD*%
D11*
%TO.C,SW3*%
X110380000Y-85080000D03*
D12*
X115460000Y-85080000D03*
D11*
X120540000Y-85080000D03*
D13*
X111650000Y-82540000D03*
X118000000Y-80000000D03*
%TD*%
D18*
%TO.C,D4*%
X126275625Y-84536250D03*
D19*
X126275625Y-76736250D03*
%TD*%
D18*
%TO.C,D2*%
X88175625Y-84601875D03*
D19*
X88175625Y-76801875D03*
%TD*%
D20*
%TO.C,P1*%
X71200625Y-53386250D03*
X72050625Y-53386250D03*
X72900625Y-53386250D03*
X73750625Y-53386250D03*
X74600625Y-53386250D03*
X75450625Y-53386250D03*
X76300625Y-53386250D03*
X77150625Y-53386250D03*
X77150625Y-52036250D03*
X76300625Y-52036250D03*
X75450625Y-52036250D03*
X74600625Y-52036250D03*
X73750625Y-52036250D03*
X72900625Y-52036250D03*
X72050625Y-52036250D03*
X71200625Y-52036250D03*
D21*
X69850625Y-49026250D03*
D22*
X69850625Y-52406250D03*
D21*
X78500625Y-49026250D03*
D22*
X78500625Y-52406250D03*
%TD*%
D18*
%TO.C,D1*%
X69125625Y-84601875D03*
D19*
X69125625Y-76801875D03*
%TD*%
D18*
%TO.C,D3*%
X107225625Y-84217500D03*
D19*
X107225625Y-76417500D03*
%TD*%
M02*
